<svg width="32" height="30" viewBox="0 0 32 30" fill="none" xmlns="http://www.w3.org/2000/svg">
<path fill-rule="evenodd" clip-rule="evenodd" d="M3.58525 0.073125C3.33987 0.191875 3.3125 0.376375 3.3125 1.90919V3.375H2.82219C2.12144 3.375 2.09962 3.40637 2.07294 4.45344C2.03825 5.817 2.10081 5.9375 2.84375 5.9375H3.3125V6.90312V7.86881L1.77562 7.8875C0.24625 7.90619 0.238187 7.907 0.119375 8.05381C0.00881249 8.1905 0 8.31975 0 9.811C0 11.3448 0.006125 11.4284 0.129562 11.5853C0.251188 11.7399 0.291187 11.75 0.785812 11.75H1.3125V18.4062V25.0625H0.910312C0.466812 25.0625 0.208875 25.1366 0.0851875 25.2993C0.022625 25.3817 0.0035 25.8608 0.002 27.3855C0.000875 28.4741 0.0175 29.4103 0.0388125 29.4659C0.15325 29.7642 -0.64325 29.75 16 29.75C32.6432 29.75 31.8468 29.7642 31.9612 29.4659C31.9825 29.4103 31.9991 28.4741 31.998 27.3855C31.9965 25.8608 31.9774 25.3817 31.9148 25.2993C31.7959 25.1429 31.5371 25.0625 31.1522 25.0625H30.8125V18.4062V11.75H31.2767C31.7038 11.75 31.7513 11.7368 31.8704 11.5853C31.9939 11.4284 32 11.3448 32 9.811C32 8.31975 31.9912 8.1905 31.8806 8.05381C31.7618 7.907 31.7537 7.90619 30.2244 7.8875L28.6875 7.86881V6.90312V5.9375H29.1562C29.8992 5.9375 29.9618 5.817 29.9271 4.45344C29.9004 3.40637 29.8786 3.375 29.1778 3.375H28.6875V1.90919C28.6875 0.353563 28.6617 0.19025 28.3964 0.069375C28.292 0.0218125 27.3597 0 25.4314 0C23.0325 0 22.5917 0.0139999 22.4344 0.0953749C22.333 0.147812 22.2442 0.197 22.2371 0.20475C22.2301 0.212437 22.2089 0.921875 22.1903 1.78125L22.1562 3.34375L21.6744 3.36194C21.2411 3.37831 21.1796 3.3965 21.065 3.54225C20.9492 3.6895 20.9375 3.79269 20.9375 4.6675C20.9375 5.60681 20.9413 5.6345 21.0909 5.78406C21.2267 5.91987 21.2986 5.9375 21.7159 5.9375H22.1875V6.90625V7.875H21.7228C21.4673 7.875 21.1904 7.90075 21.1076 7.93225C20.7893 8.05325 20.7551 8.5855 21.0554 8.74619C21.1397 8.79131 22.7572 8.8125 26.1209 8.8125H31.0625V9.8125V10.8125H16H0.9375V9.8125V8.8125H10.2528H19.5682L19.7216 8.65906C19.8059 8.57469 19.875 8.43281 19.875 8.34375C19.875 8.13656 19.6151 7.875 19.4091 7.875H19.25V6.90625V5.9375H19.7069C20.4552 5.9375 20.524 5.80706 20.4896 4.45344C20.4629 3.40637 20.4411 3.375 19.7403 3.375H19.25V1.90919C19.25 0.33525 19.2244 0.181313 18.9433 0.064875C18.8291 0.017625 17.8813 0.00175004 15.8911 0.0138125C13.2181 0.0299375 12.9961 0.0395 12.8928 0.14275C12.7936 0.241875 12.7778 0.425063 12.75 1.799L12.7188 3.34375L12.2369 3.36194C11.8036 3.37831 11.7421 3.3965 11.6275 3.54225C11.5117 3.6895 11.5 3.79269 11.5 4.6675C11.5 5.60681 11.5038 5.6345 11.6534 5.78406C11.7892 5.91987 11.8611 5.9375 12.2784 5.9375H12.75V6.90625V7.875H11.2812H9.8125V6.90625V5.9375H10.2841C10.7014 5.9375 10.7733 5.91987 10.9091 5.78406C11.0587 5.6345 11.0625 5.60681 11.0625 4.6675C11.0625 3.79269 11.0508 3.6895 10.935 3.54225C10.8204 3.3965 10.7589 3.37831 10.3256 3.36194L9.84375 3.34375L9.80975 1.78125C9.79106 0.921875 9.76994 0.212437 9.76287 0.20475C9.75581 0.197 9.667 0.147812 9.56563 0.0953749C9.40788 0.0138124 8.97131 0.00062505 6.55 0.00425005C4.7365 0.00693755 3.67075 0.0316875 3.58525 0.073125ZM8.875 2.157V3.37656L6.57812 3.36013L4.28125 3.34375L4.26425 2.14062L4.24731 0.9375H6.56112H8.875V2.157ZM18.2983 2.14062L18.2812 3.34375L15.9844 3.36013L13.6875 3.37656V2.157V0.9375H16.0014H18.3152L18.2983 2.14062ZM27.7358 2.14062L27.7188 3.34375L25.4219 3.36013L23.125 3.37656V2.157V0.9375H25.4389H27.7527L27.7358 2.14062ZM10.125 4.65625V5H6.5625H3V4.65625V4.3125H6.5625H10.125V4.65625ZM19.5625 4.65625V5H16H12.4375V4.65625V4.3125H16H19.5625V4.65625ZM29 4.65625V5H25.4375H21.875V4.65625V4.3125H25.4375H29V4.65625ZM8.875 6.90625V7.875H6.5625H4.25V6.90625V5.9375H6.5625H8.875V6.90625ZM18.3125 6.90625V7.875H16H13.6875V6.90625V5.9375H16H18.3125V6.90625ZM27.75 6.90625V7.875H25.4375H23.125V6.90625V5.9375H25.4375H27.75V6.90625ZM3.3125 13.9091V16.0682L3.46594 16.2216C3.65669 16.4123 3.91344 16.4194 4.10537 16.2391C4.24512 16.1078 4.25 16.0686 4.25 15.0829V14.0625H6.56488H8.87975L8.86175 17.7031L8.84375 21.3438L8.6775 21.6984C8.24856 22.6133 7.42894 23.106 6.42581 23.0519C5.37413 22.9952 4.51094 22.2338 4.31256 21.1879C4.27819 21.0064 4.25 20.1427 4.25 19.2686C4.25 18.2679 4.22544 17.6334 4.18369 17.5554C4.02325 17.2556 3.52756 17.2838 3.38313 17.6009C3.275 17.8382 3.29044 20.9169 3.40237 21.4451C3.63888 22.5607 4.52894 23.5384 5.61594 23.8764C6.15313 24.0436 6.97163 24.0433 7.51356 23.8759C8.259 23.6457 8.94356 23.1029 9.34494 22.4239C9.80725 21.6418 9.77775 22.0076 9.8125 16.625L9.84375 11.7812H11.2812H12.7188L12.75 16.625C12.7791 21.1429 12.7891 21.4897 12.8971 21.7812C13.2785 22.8096 14.1153 23.6073 15.1208 23.9009C15.5618 24.0297 16.4404 24.0295 16.8747 23.9006C17.9822 23.5717 18.9231 22.5637 19.1582 21.4544C19.2314 21.1089 19.248 20.1799 19.2489 16.3895L19.25 11.7477L20.7031 11.7645L22.1562 11.7812L22.1727 13.9344C22.1888 16.0436 22.1919 16.0904 22.3242 16.2313C22.5036 16.4221 22.7751 16.4181 22.9716 16.2216C23.1218 16.0714 23.125 16.0468 23.125 15.0653V14.0625H25.4375H27.75V17.4603C27.75 19.4668 27.7244 20.9931 27.6874 21.1879C27.3932 22.7392 25.6593 23.5417 24.2742 22.7676C23.9168 22.5678 23.5223 22.1246 23.3225 21.6984C23.1562 21.3438 23.1562 21.3438 23.1388 19.5625C23.1283 18.5033 23.0944 17.7138 23.0553 17.6147C22.9235 17.2821 22.4174 17.2497 22.2497 17.5631C22.2006 17.6549 22.1857 18.264 22.2006 19.5817C22.2242 21.6621 22.2314 21.7072 22.6551 22.4239C23.0564 23.1029 23.741 23.6457 24.4864 23.8759C25.0284 24.0433 25.8469 24.0436 26.3841 23.8764C27.1731 23.6311 27.9475 22.9731 28.3232 22.2289C28.6817 21.5185 28.6852 21.4629 28.6864 16.3883L28.6875 11.7453L29.2656 11.7633L29.8438 11.7812L29.8597 18.4219L29.8756 25.0625H20.9784C14.6436 25.0625 12.0241 25.0824 11.883 25.1316C11.5522 25.2469 11.4496 25.6371 11.6875 25.875C11.8114 25.9989 11.8958 26 21.4375 26H31.0625V27.4062V28.8125H16H0.9375V27.4062V26H5.64656C10.1932 26 10.3593 25.9959 10.4631 25.8813C10.6182 25.7099 10.6096 25.3944 10.4454 25.2301L10.3091 25.0938L6.27956 25.0764L2.25 25.059V18.4461C2.25 14.8091 2.26875 11.8146 2.29169 11.7917C2.31456 11.7688 2.55363 11.75 2.82294 11.75H3.3125V13.9091ZM8.875 12.4375V13.125H6.5625H4.25V12.4792C4.25 12.1239 4.26875 11.8146 4.29169 11.7917C4.31456 11.7688 5.35519 11.75 6.60419 11.75H8.875V12.4375ZM18.299 12.4531L18.3167 13.125H16.0021H13.6875V12.4368V11.7484L15.9844 11.7649L18.2812 11.7812L18.299 12.4531ZM27.7365 12.4531L27.7542 13.125H25.4396H23.125V12.4368V11.7484L25.4219 11.7649L27.7188 11.7812L27.7365 12.4531ZM18.3121 17.4219C18.3119 19.2696 18.2851 20.9444 18.2524 21.1439C17.9946 22.7179 16.2401 23.5519 14.8367 22.7676C14.4793 22.5678 14.0848 22.1246 13.885 21.6984L13.7188 21.3438L13.7012 17.7031L13.6836 14.0625H15.9981H18.3125L18.3121 17.4219Z" fill="#334B69"/>
</svg>
