<svg width="32" height="32" viewBox="0 0 32 32" fill="none" xmlns="http://www.w3.org/2000/svg">
<path fill-rule="evenodd" clip-rule="evenodd" d="M26.2894 0.0376719C24.3185 0.399297 22.8309 1.7408 22.2872 3.64686C22.0891 4.34148 22.09 5.49261 22.2892 6.19148C22.7919 7.95492 24.1275 9.26355 25.8478 9.67817C26.148 9.75048 26.4289 9.81861 26.4718 9.82942C26.5293 9.84392 26.55 10.0642 26.55 10.6636V11.478H25.8421C25.1744 11.478 25.1262 11.4866 24.9923 11.6291L24.8505 11.7801L24.7242 17.6329L24.5979 23.4857L24.7411 23.6382C24.9675 23.8792 25.3716 23.8141 25.484 23.5184C25.5131 23.4417 25.5687 21.777 25.6075 19.8191C25.6462 17.8612 25.694 15.971 25.7137 15.6187L25.7495 14.978H27.0503H28.3512L28.3865 15.4937C28.4058 15.7772 28.4829 19.089 28.5578 22.853L28.694 29.6968L28.5524 30.0235C28.3018 30.6016 27.6534 31.0405 27.05 31.0405C26.4983 31.0405 25.8655 30.6489 25.5923 30.1385C25.458 29.8875 25.4565 29.8523 25.4761 27.3615L25.4959 24.8389L25.3558 24.6897C25.2176 24.5427 25.032 24.5034 24.834 24.5794C24.5871 24.6741 24.565 24.8659 24.5174 27.325C24.4765 29.4395 24.4828 29.7427 24.5746 30.0582C25.0367 31.6478 26.7644 32.4092 28.2301 31.6692C28.64 31.4623 29.1556 30.9413 29.347 30.5405C29.6506 29.9052 29.6468 30.2855 29.444 20.7335L29.2541 11.785L29.1099 11.6315C28.9732 11.486 28.9286 11.478 28.2578 11.478H27.55V10.6636C27.55 10.0642 27.5706 9.84392 27.6281 9.82942C27.6711 9.81861 27.9519 9.75048 28.2521 9.67817C29.9726 9.26355 31.3094 7.95355 31.8103 6.19148C32.011 5.48555 32.0128 4.33548 31.8142 3.64686C31.3183 1.92673 30.0403 0.641422 28.3518 0.164297C27.8378 0.0190469 26.7537 -0.0475156 26.2894 0.0376719ZM27.8466 1.01448C29.265 1.30742 30.3455 2.26755 30.849 3.68223C30.9891 4.07605 31.0098 4.23498 31.0098 4.91555C31.0098 5.59873 30.9894 5.75436 30.8468 6.15523C30.6127 6.81355 30.3302 7.26011 29.8312 7.76067C28.5658 9.03011 26.5691 9.27036 25.0015 8.34186C24.5441 8.07098 23.8851 7.41367 23.6236 6.96773C22.4315 4.93386 23.214 2.34748 25.3312 1.32311C26.1255 0.938797 26.9754 0.834484 27.8466 1.01448ZM26.925 1.77236C26.7256 1.84567 26.6125 2.00292 26.6125 2.20648C26.6125 2.51586 26.7746 2.63742 27.289 2.71373C27.8451 2.7963 28.2503 2.99161 28.6151 3.35305C29.8951 4.62098 29.201 6.77423 27.4053 7.10617C26.7295 7.23111 25.9964 6.99236 25.4848 6.48073C24.5726 5.56855 24.6238 4.0358 25.5926 3.24542C26.0616 2.86298 26.1125 2.80011 26.1125 2.60305C26.1125 2.49886 26.0569 2.35998 25.9875 2.29055C25.5906 1.89373 24.7128 2.52623 24.2041 3.57542C23.2842 5.4728 24.4955 7.7223 26.6125 8.04798C28.2713 8.30323 29.8902 7.09948 30.1784 5.39673C30.4495 3.79486 29.3116 2.16323 27.6826 1.81792C27.2473 1.72567 27.0795 1.71561 26.925 1.77236ZM5.63089 2.75761C4.53226 2.9678 3.66089 3.3078 2.88595 3.8288C1.96058 4.45092 1.6672 4.9078 1.98745 5.22805C2.21576 5.45636 2.44189 5.39173 2.97208 4.94673C3.23833 4.7233 3.63976 4.4438 3.86414 4.32567C5.12395 3.6623 6.95351 3.41198 8.26495 3.72361C9.22526 3.95173 10.3026 4.54786 10.8625 5.16098C11.1323 5.45648 13.5303 7.41117 13.704 7.47717C13.8931 7.54911 14.1947 7.42961 14.2611 7.25648C14.3927 6.91367 14.3558 6.87055 12.9093 5.6718C12.4367 5.28011 12.05 4.93942 12.05 4.91473C12.05 4.71286 13.4698 3.93642 14.1591 3.76142C15.9465 3.30748 18.2388 3.7833 19.569 4.88436C21.6902 6.6403 22.26 10.606 21.0101 14.9137C20.8857 15.3423 20.661 15.999 20.5107 16.3729C20.3604 16.7469 20.2375 17.0885 20.2375 17.132C20.2375 17.3046 20.4951 17.5405 20.6836 17.5405C21.0174 17.5405 21.0915 17.4469 21.4123 16.6189C23.2513 11.8721 22.945 7.06386 20.6471 4.6093C19.502 3.38611 17.6557 2.66561 15.6662 2.66555C14.0825 2.66555 12.7161 3.11711 11.6663 3.98767C11.5068 4.11986 11.3453 4.22805 11.3072 4.22805C11.2692 4.22805 11.0631 4.08705 10.8493 3.9148C10.3652 3.52467 9.5062 3.09705 8.7687 2.87905C8.27595 2.73336 8.07451 2.71017 7.1437 2.69211C6.42014 2.67805 5.93751 2.69898 5.63089 2.75761ZM0.970576 6.16536C0.776388 6.31817 0.473701 7.12036 0.265889 8.03298C-0.389986 10.9136 0.190826 14.7644 1.75108 17.8791C1.92189 18.22 2.12751 18.6034 2.20814 18.7311C2.5092 19.208 2.9837 20.218 3.20501 20.853C3.64701 22.1211 3.84976 23.2719 4.04751 25.6343C4.19483 27.3942 4.21808 27.6065 4.33195 28.228C4.61358 29.765 5.19889 30.5641 6.23589 30.8273C7.13089 31.0544 8.08558 30.8182 8.63145 30.2347C9.36026 29.4555 9.6107 28.594 9.92233 25.7949C10.1296 23.933 10.2771 23.181 10.523 22.7348C10.9286 21.9984 11.6531 21.9848 12.0606 22.706C12.3156 23.1575 12.4642 23.8177 12.6105 25.1483C12.7977 26.8517 12.859 27.3248 12.965 27.8843C13.257 29.4259 13.7437 30.258 14.5998 30.6792C14.993 30.8727 15.0536 30.8841 15.6738 30.8805C16.497 30.8757 16.9083 30.7329 17.3565 30.2963C18.0048 29.6649 18.2713 28.8096 18.4559 26.7682C18.6945 24.1299 18.7551 23.5855 18.8955 22.8218C19.149 21.4432 19.4719 20.4784 20.0553 19.356C20.2243 19.0311 20.3625 18.7134 20.3625 18.65C20.3625 18.4881 20.0839 18.228 19.9105 18.228C19.6737 18.228 19.5137 18.387 19.2403 18.8938C18.2838 20.6672 17.9066 22.237 17.6132 25.6655C17.3985 28.1749 17.2622 28.8826 16.8903 29.4202C16.4803 30.0127 15.4161 30.1585 14.7769 29.7098C14.1915 29.2989 13.8978 28.269 13.6146 25.6343C13.3501 23.1723 13.1486 22.4269 12.5772 21.7943C11.9021 21.0472 10.605 21.0885 9.95826 21.8777C9.46751 22.4766 9.25289 23.2854 9.01964 25.4155C8.76433 27.7468 8.61645 28.4905 8.28226 29.1234C7.93808 29.7752 7.48283 30.0235 6.75483 29.9564C6.29383 29.9139 6.07301 29.8107 5.81564 29.5176C5.40676 29.0519 5.23714 28.3259 5.05239 26.2501C4.81545 23.5885 4.72676 22.9235 4.45333 21.7577C4.17645 20.5772 3.79395 19.6363 3.08214 18.3843C2.32445 17.0516 1.78233 15.7155 1.42914 14.3104C0.718951 11.4851 0.773451 9.09861 1.59926 6.85861C1.74526 6.46267 1.6977 6.22442 1.45014 6.11167C1.2332 6.0128 1.15314 6.0218 0.970576 6.16536ZM28.3231 12.5562C28.3438 12.6335 28.3611 12.9992 28.3616 13.3687L28.3625 14.0405H27.05H25.7375V13.4234C25.7375 13.0839 25.755 12.7183 25.7765 12.6109L25.8156 12.4155H27.0505C28.2783 12.4155 28.2856 12.4164 28.3231 12.5562Z" fill="#334B69"/>
</svg>
