<svg width="19" height="32" viewBox="0 0 19 32" fill="none" xmlns="http://www.w3.org/2000/svg">
<path fill-rule="evenodd" clip-rule="evenodd" d="M0.235111 0.111875C-0.0915141 0.376375 -0.0750141 2.02769 0.267111 3.3125C0.469048 4.07081 0.990548 5.14031 1.4878 5.81575C1.94286 6.43394 2.7248 7.22031 3.31617 7.6545C3.54624 7.82344 3.73442 7.97888 3.73442 8C3.73442 8.02112 3.54461 8.17719 3.31255 8.34681C2.38524 9.02469 1.38686 10.1911 0.907798 11.1562C0.304298 12.3721 0.0828606 13.3306 0.102736 14.6406C0.122298 15.9282 0.122611 16.2475 0.105423 17.2969C0.0882356 18.3451 0.183611 18.9777 0.491923 19.8609C0.997111 21.3079 2.06424 22.7351 3.3438 23.6747C3.55861 23.8325 3.73442 23.9788 3.73442 23.9998C3.73442 24.0208 3.57086 24.1532 3.37099 24.2942C1.74967 25.4376 0.544673 27.2811 0.131736 29.25C-0.0139516 29.9447 -0.0267644 31.442 0.110611 31.7173C0.233236 31.963 0.499611 32.0588 0.716861 31.9354C0.909486 31.8261 0.931236 31.7853 1.10311 31.2113C1.24867 30.7253 1.58592 30.1583 1.99086 29.719L2.25036 29.4375H5.39024C8.47211 29.4375 8.53311 29.4351 8.69474 29.3079C8.90749 29.1406 8.92092 28.8122 8.72261 28.6274C8.58961 28.5035 8.51499 28.4999 6.01949 28.4988L3.45317 28.4976L3.7478 28.3126C4.91511 27.5795 6.88274 26.8158 8.75124 26.3704L9.3618 26.2248L10.095 26.4005C11.719 26.7896 13.5564 27.4846 14.6962 28.1409L15.2657 28.4688L12.7132 28.5L10.1608 28.5312L10.0414 28.6788C9.87892 28.8794 9.8913 29.1001 10.0754 29.2841L10.2287 29.4375H13.3486H16.4685L16.728 29.719C17.1457 30.1722 17.4765 30.7377 17.6506 31.296C17.8176 31.8315 17.9515 32 18.2102 32C18.6384 32 18.798 31.3207 18.6774 30.0109C18.5554 28.6871 18.1415 27.5319 17.3779 26.3843C16.9747 25.7784 16.0334 24.797 15.4066 24.3293L14.9851 24.0146L15.4652 23.6533C17.5073 22.1163 18.6851 19.8792 18.6884 17.5312C18.689 17.1187 18.6905 16.4156 18.6919 15.9688C18.6978 13.9696 18.6872 13.6997 18.5833 13.1904C18.4384 12.4806 18.2809 12.0262 17.9213 11.2812C17.3992 10.1996 16.5024 9.13288 15.4394 8.32894L14.9881 7.98763L15.5332 7.56269C17.4805 6.04437 18.5624 4.04131 18.7064 1.6875C18.7757 0.5545 18.6109 0 18.2047 0C18.0229 0 17.7344 0.226875 17.7344 0.369812C17.7344 0.778437 17.28 1.65763 16.7763 2.22338L16.4744 2.5625H13.3277H10.181L10.0515 2.72719C9.82936 3.0095 9.91599 3.30456 10.2592 3.43506C10.3667 3.47594 11.3259 3.5 12.8467 3.5H15.2634L15.0237 3.66287C14.227 4.20431 12.316 4.99769 10.8285 5.40456C9.40799 5.79313 9.47111 5.78756 8.66599 5.59538C6.7718 5.14325 4.9083 4.41756 3.70317 3.66281L3.45317 3.50625L6.0248 3.4875C8.45136 3.46981 8.60386 3.46206 8.72792 3.34969C8.89955 3.19431 8.90286 2.85594 8.73442 2.6875C8.61267 2.56575 8.52611 2.5625 5.42986 2.5625H2.25036L1.99086 2.281C1.57317 1.82781 1.2423 1.26231 1.06824 0.704C0.901236 0.1685 0.767361 0 0.508673 0C0.434236 0 0.311111 0.0503125 0.235111 0.111875ZM2.87892 4.23631C3.91567 4.92963 5.6658 5.72837 6.95317 6.09575C7.15942 6.15462 7.35355 6.21775 7.38461 6.236C7.41567 6.25425 7.12036 6.38725 6.72836 6.53156C6.33636 6.67581 5.70724 6.93963 5.33024 7.11775L4.6448 7.44163L4.11149 7.08119C3.52067 6.68188 2.63924 5.842 2.25524 5.3125C1.76661 4.63869 1.41392 3.9045 1.14905 3.00981L1.05017 2.67587L1.6378 3.23762C1.96099 3.54656 2.51949 3.996 2.87892 4.23631ZM17.548 3.07181C17.1436 4.65175 15.934 6.23381 14.3282 7.28344C13.0259 8.13463 11.6073 8.69069 9.29261 9.25725C7.60261 9.67087 7.42192 9.75169 7.42192 10.0938C7.42192 10.2734 7.67299 10.5625 7.82899 10.5625C7.88411 10.5625 8.25992 10.479 8.66405 10.377L9.39886 10.1915L10.3279 10.4416C12.2848 10.9684 13.5803 11.5102 14.8581 12.3359L15.4505 12.7188L12.8581 12.75C10.9802 12.7726 10.2289 12.8023 10.1324 12.8576C9.88817 12.9976 9.85474 13.2727 10.0515 13.5228L10.181 13.6875H13.3285H16.476L16.6917 13.9531C16.9871 14.3171 17.2623 14.7801 17.4162 15.1719L17.5451 15.5H9.39067H1.23624L1.36511 15.1719C1.51861 14.7812 1.79561 14.3184 2.09455 13.9531L2.31199 13.6875H5.46067C8.52611 13.6875 8.61274 13.6842 8.73442 13.5625C8.90286 13.3941 8.89955 13.0557 8.72792 12.9003C8.60424 12.7883 8.44055 12.7794 5.96692 12.75L3.33742 12.7188L3.78436 12.4189C4.35967 12.0331 5.1263 11.6263 6.00267 11.242C6.38624 11.0738 6.74061 10.8956 6.79017 10.8461C6.91549 10.7207 6.90274 10.4014 6.76642 10.2508C6.59767 10.0644 6.33205 10.0937 5.6403 10.3751C3.93067 11.0708 2.38261 12.1279 1.48555 13.2125C1.26942 13.4737 1.08617 13.6875 1.0783 13.6875C1.03274 13.6875 1.20786 12.9497 1.36761 12.4688C1.66411 11.5759 2.08749 10.8677 2.78724 10.0942C3.57524 9.22313 4.49461 8.56669 5.79692 7.94537C6.87049 7.43319 7.75361 7.14144 9.78092 6.62937C12.5603 5.92725 13.8479 5.44594 15.3594 4.54394C16.0513 4.13112 16.7364 3.60563 17.1996 3.13263C17.4039 2.92394 17.5815 2.76375 17.5944 2.77656C17.6072 2.78938 17.5863 2.92225 17.548 3.07181ZM14.4852 8.79081C15.7454 9.62969 16.7345 10.7836 17.2509 12.0172C17.4544 12.5034 17.7719 13.6709 17.7158 13.7269C17.7017 13.741 17.6184 13.6441 17.5307 13.5114C17.314 13.1841 16.4782 12.3484 15.9985 11.9794C15.0289 11.2338 13.6765 10.5437 12.1146 9.99775L11.276 9.70463L11.7084 9.56144C12.2374 9.38613 13.2802 8.95231 13.7032 8.73144C13.875 8.64175 14.0442 8.567 14.079 8.56544C14.1139 8.56381 14.2967 8.66525 14.4852 8.79081ZM17.5162 16.5781C17.4325 16.8793 17.0304 17.6146 16.7632 17.9551L16.4826 18.3125H13.3318H10.181L10.0515 18.4772C9.85042 18.7327 9.88061 18.8905 10.19 19.2008C10.1972 19.208 11.3844 19.2291 12.8282 19.2476L15.4532 19.2812L15.0005 19.5826C14.7516 19.7483 14.2735 20.0268 13.938 20.2013C13.6026 20.3758 13.2649 20.5756 13.1875 20.6452C12.9268 20.8799 13.0642 21.3223 13.4243 21.4071C13.7502 21.4838 15.5318 20.4365 16.4958 19.6014C16.7599 19.3726 17.1486 18.9708 17.3597 18.7083L17.7436 18.2311L17.6995 18.4749C17.4102 20.0741 16.5593 21.5309 15.3006 22.5821C13.7822 23.8502 12.1951 24.5552 9.14067 25.3185C7.33986 25.7685 6.46211 26.0356 5.42192 26.4498C3.86024 27.0718 2.60542 27.8373 1.64924 28.7515L1.06417 29.3107L1.17299 28.921C1.8393 26.5333 3.7488 24.6927 6.76455 23.5313C7.57649 23.2186 8.16524 23.0474 9.7518 22.6624C11.4424 22.2521 12.361 21.9577 12.5313 21.7716C12.694 21.5939 12.7109 21.3961 12.5796 21.2086C12.4212 20.9824 12.2219 20.9832 11.5015 21.2134C11.1312 21.3318 10.4997 21.5133 10.0982 21.6169L9.3683 21.8054L8.44199 21.5632C7.93249 21.43 7.19224 21.206 6.79692 21.0654C5.9078 20.7493 4.49255 20.0566 3.83092 19.6139L3.33367 19.2812L5.96505 19.25C8.44055 19.2206 8.60424 19.2117 8.72792 19.0997C8.89955 18.9443 8.90286 18.6059 8.73442 18.4375C8.61274 18.3158 8.52611 18.3125 5.45411 18.3125H2.29874L2.0173 17.9539C1.75767 17.6231 1.37149 16.913 1.26905 16.5781L1.22599 16.4375H9.39067H17.5554L17.5162 16.5781ZM1.65792 18.9807C2.6068 20.0999 4.52742 21.2707 6.56417 21.9714C7.03767 22.1343 7.41736 22.2752 7.40792 22.2844C7.39842 22.2937 7.06724 22.4201 6.67192 22.5654C6.27661 22.7108 5.65974 22.967 5.30111 23.1348L4.64911 23.4401L4.30111 23.2101C2.76786 22.1966 1.73167 20.8362 1.27474 19.2365C1.19336 18.9517 1.11011 18.6063 1.08974 18.4688L1.05261 18.2188L1.19042 18.4053C1.26617 18.5078 1.47655 18.7668 1.65792 18.9807ZM14.595 24.8906C15.2227 25.3245 15.961 26.0256 16.3887 26.5939C16.953 27.3436 17.2753 28.0012 17.5787 29.0214L17.6687 29.3241L17.081 28.7624C15.8607 27.5958 14.1285 26.6472 11.9536 25.9548L11.2666 25.7359L11.9224 25.5044C12.6525 25.2467 13.9072 24.6993 13.9586 24.6162C14.0193 24.518 14.1165 24.5599 14.595 24.8906Z" fill="#334B69"/>
</svg>
