<svg width="32" height="32" viewBox="0 0 32 32" fill="none" xmlns="http://www.w3.org/2000/svg">
<path fill-rule="evenodd" clip-rule="evenodd" d="M14.8438 0.0841611C14.2624 0.177911 13.4159 0.438599 12.9688 0.661724C11.9919 1.14904 10.8971 2.09385 10.3507 2.92085C9.63344 4.00647 9.304 4.94954 9.18931 6.24529C9.11038 7.13697 9.10869 13.2325 9.18713 14.1024C9.29019 15.2453 9.60031 16.1967 10.1609 17.0896C10.5119 17.6486 10.5499 17.7412 10.4283 17.7412C10.2996 17.7412 7.91169 18.9312 7.76638 19.0677C7.56519 19.2567 7.576 19.5687 7.78969 19.7367C7.88025 19.8079 7.99981 19.8665 8.05531 19.8669C8.11081 19.8672 8.69063 19.6028 9.34375 19.2792C9.99687 18.9556 10.5945 18.6722 10.6719 18.6493L10.8125 18.6078V20.0682V21.5287L10.3594 21.6622C9.53162 21.906 8.86112 22.4559 8.44925 23.2287C8.10806 23.8688 8.06444 24.1999 8.06344 26.1585L8.0625 27.9197L8.22719 28.0492C8.37056 28.162 8.47869 28.1787 9.0625 28.1787C9.64631 28.1787 9.75444 28.162 9.89781 28.0492C10.0956 27.8936 10.1156 27.6331 9.94588 27.4235C9.8505 27.3058 9.75344 27.2747 9.41463 27.253L9 27.2267V25.8217C9 24.224 9.04606 23.9639 9.42412 23.4257C9.69119 23.0457 10.2173 22.6596 10.625 22.5444C11.5711 22.2772 12.618 22.6532 13.1469 23.45C13.5153 24.005 13.5625 24.2775 13.5625 25.8464V27.2412H13.1647C12.8569 27.2412 12.7296 27.2705 12.6022 27.3708C12.3869 27.5401 12.3777 27.8507 12.5821 28.0429C12.7137 28.1664 12.7933 28.1787 13.46 28.1787C14.1551 28.1787 14.2011 28.1708 14.3466 28.0253L14.5 27.8719L14.4989 26.1659C14.4977 24.2609 14.4454 23.8515 14.1273 23.2556C13.7035 22.4617 13.0332 21.9067 12.2031 21.6622L11.75 21.5287V20.2287C11.75 19.5137 11.764 18.9287 11.7811 18.9287C11.7982 18.9287 11.9459 19.0237 12.1093 19.1398C12.2726 19.2559 12.4944 19.3955 12.6021 19.4501C12.7635 19.5319 13.0307 19.9559 14.1178 21.855L15.4375 24.1607V27.6072V31.0537H10.9688C8.51094 31.0537 6.49944 31.0327 6.49875 31.0069C6.49806 30.981 6.71356 29.6593 6.97762 28.0695C7.49806 24.9364 7.49819 24.9337 7.1455 24.7997C6.94781 24.7245 6.66069 24.818 6.58763 24.9814C6.56206 25.0384 6.314 26.4209 6.03625 28.0537L5.53125 31.0225L3.32812 31.0389C2.11644 31.0479 1.125 31.0328 1.125 31.0053C1.125 30.7768 2.55494 26.8844 3.08575 25.6682C4.30638 22.8712 4.85931 22.1293 6.73287 20.775C7.14994 20.4735 7.25306 20.2785 7.13387 20.017C7.04838 19.8293 6.80813 19.7124 6.614 19.7639C6.36619 19.8297 5.1205 20.8016 4.5625 21.3645C4.27031 21.6592 3.89144 22.1102 3.72056 22.3667C3.09194 23.3104 2.17769 25.2811 1.36144 27.4522C0.725813 29.1429 0 31.3171 0 31.5304C0 31.6739 0.0475625 31.7695 0.164687 31.8617L0.329375 31.9912H10.7188H21.1081L21.2728 31.8617C21.5006 31.6825 21.5006 31.3624 21.2728 31.1833C21.1129 31.0575 21.0407 31.0537 18.7728 31.0537H16.4375V27.6072V24.1607L17.7551 21.8589L19.0726 19.5571L19.412 19.363C19.5986 19.2562 19.8917 19.0579 20.0632 18.9223L20.375 18.6758V21.1699V23.664L20.0368 23.8295C19.1332 24.2716 18.6938 25.3669 19.0249 26.3514C19.1803 26.8133 19.6401 27.2999 20.1284 27.519C20.4667 27.6708 20.5719 27.6884 21.0216 27.6687C21.8486 27.6322 22.4612 27.2279 22.8049 26.4912C23.041 25.9851 23.0363 25.2865 22.7934 24.791C22.5776 24.3507 22.1054 23.9143 21.6686 23.7514L21.3438 23.6302L21.3274 21.1857C21.3143 19.2277 21.3271 18.7412 21.3914 18.7412C21.5209 18.7412 23.4716 19.7374 24.2069 20.1791C25.6452 21.043 26.8625 22.0809 27.3842 22.888C27.9937 23.831 28.8484 25.6953 29.6381 27.8037C30.1239 29.1013 30.75 30.9033 30.75 31.0045C30.75 31.0316 29.7546 31.0537 28.538 31.0537H26.3261L26.2921 30.9131C26.2735 30.8357 26.0438 29.4928 25.7817 27.9287C25.5196 26.3647 25.2662 25.0252 25.2187 24.952C25.0324 24.6657 24.5815 24.735 24.4346 25.0727C24.3908 25.1732 24.5059 25.9922 24.8647 28.1319L25.3546 31.0537H24.0482C23.3297 31.0537 22.6913 31.0808 22.6294 31.1139C22.5677 31.1469 22.4829 31.2565 22.4411 31.3574C22.3786 31.5084 22.3822 31.5739 22.4615 31.7272C22.5145 31.8297 22.6034 31.931 22.6591 31.9524C22.7147 31.9737 24.7369 31.9912 27.1529 31.9912C31.5023 31.9912 31.5472 31.99 31.7103 31.8617C31.8274 31.7695 31.875 31.6739 31.875 31.5304C31.875 31.3265 31.1672 29.195 30.565 27.585C29.7849 25.4995 28.8927 23.544 28.2409 22.4912C27.657 21.548 26.5163 20.5218 24.9572 19.537C24.291 19.1162 21.6089 17.7412 21.4544 17.7412C21.3245 17.7412 21.3584 17.6562 21.7141 17.0896C22.2747 16.1967 22.5848 15.2453 22.6879 14.1024C22.7663 13.2325 22.7646 7.13697 22.6857 6.24529C22.571 4.94954 22.2416 4.00647 21.5243 2.92085C20.9779 2.09385 19.8856 1.15129 18.9053 0.660786C18.4576 0.436786 17.4266 0.132974 16.8549 0.0565986C16.2248 -0.0276514 15.4736 -0.0173389 14.8438 0.0841611ZM17.4062 1.11285C19.0344 1.53991 20.4417 2.69004 21.2106 4.22204C21.6359 5.06941 21.8124 6.17922 21.8124 8.00685L21.8125 9.05372L21.6094 9.05241C21.4976 9.05166 21.2136 8.9831 20.9782 8.90004C19.7788 8.47679 18.8129 7.52204 18.0804 6.03566C17.7311 5.32672 17.6585 5.24122 17.4062 5.24122C17.1575 5.24122 17.0761 5.33354 16.7744 5.95729C16.1087 7.33416 14.5807 8.29854 12.264 8.80404C11.6244 8.94354 10.1906 9.12554 10.1123 9.0771C10.0412 9.03316 10.0508 7.08441 10.1259 6.29197C10.1956 5.55754 10.4124 4.72422 10.6644 4.22204C11.5086 2.54004 13.0557 1.36835 14.8964 1.01697C15.5269 0.896599 16.7617 0.943786 17.4062 1.11285ZM18.0334 7.77247C18.934 8.98954 20.1961 9.7966 21.4894 9.98247L21.7812 10.0244L21.7779 12.1172C21.7757 13.5495 21.7498 14.3283 21.6958 14.585C21.4281 15.8587 20.9207 16.8143 20.0722 17.6431C19.2873 18.4097 18.5682 18.8362 17.5137 19.1605C17.0162 19.3135 16.879 19.3281 15.9375 19.3281C14.996 19.3281 14.8588 19.3135 14.3613 19.1605C13.3068 18.8362 12.5877 18.4097 11.8028 17.6431C10.9815 16.8409 10.4959 15.9559 10.2108 14.7412C10.1396 14.4377 10.1068 13.795 10.0814 12.1998L10.0475 10.0646L10.4144 10.0252C11.9196 9.86366 12.6782 9.72066 13.625 9.41997C15.1792 8.92635 16.489 8.06697 17.2036 7.07185L17.3963 6.80354L17.553 7.06929C17.6392 7.21541 17.8554 7.53185 18.0334 7.77247ZM14.7812 20.209C15.4177 20.324 16.4512 20.3248 17.0914 20.2107C17.3652 20.1619 17.6001 20.133 17.6134 20.1463C17.6423 20.1752 15.9827 23.1124 15.9375 23.1124C15.9028 23.1124 14.25 20.2154 14.25 20.1545C14.25 20.1335 14.2571 20.1168 14.2656 20.1175C14.2742 20.1181 14.5063 20.1594 14.7812 20.209ZM21.5961 24.77C21.9831 25.0652 22.1558 25.611 21.996 26.034C21.9146 26.2496 21.6516 26.5347 21.425 26.653C21.2052 26.7679 20.6667 26.766 20.4418 26.6497C20.0428 26.4434 19.7603 25.8845 19.8456 25.4704C20.0094 24.6756 20.9689 24.2917 21.5961 24.77ZM18.1562 28.1917C17.8544 28.3649 17.7976 28.626 18.0046 28.889L18.1341 29.0537H20.7188H23.3034L23.4329 28.889C23.5042 28.7985 23.5625 28.6873 23.5625 28.642C23.5625 28.4767 23.42 28.2534 23.2714 28.1856C23.0551 28.087 18.3289 28.0927 18.1562 28.1917Z" fill="#334B69"/>
</svg>
