<svg width="31" height="32" viewBox="0 0 31 32" fill="none" xmlns="http://www.w3.org/2000/svg">
<path fill-rule="evenodd" clip-rule="evenodd" d="M17.9895 0.0477171C16.4284 0.21578 14.8669 0.77853 13.5833 1.63572C12.9448 2.06209 11.8571 3.11065 11.3796 3.76015C10.4618 5.0084 9.82283 6.66578 9.70027 8.11565C9.66139 8.57528 9.66433 8.58859 9.83346 8.72165C10.0532 8.89453 10.1916 8.89334 10.3939 8.71703C10.5325 8.59622 10.5729 8.47059 10.6805 7.8264C10.9805 6.03128 11.7019 4.63278 12.9859 3.35765C15.2349 1.12428 18.5374 0.396092 22.2083 1.32409C24.1836 1.82347 25.4468 2.49928 26.6166 3.6824C27.9466 5.02778 28.8106 6.67615 29.2473 8.7014C29.4098 9.45522 29.4462 11.2058 29.3124 11.8264C28.9499 13.507 27.8357 15.4072 26.0145 17.4505C25.7086 17.7938 24.9801 18.5828 24.3958 19.2037C22.5887 21.1239 22.1043 21.6865 21.5185 22.5452C20.9668 23.3538 20.5709 24.2471 20.3287 25.2295C20.2139 25.6953 20.0486 26.2791 19.9615 26.5268C19.8413 26.8687 19.8173 27.0147 19.8621 27.1324C19.9712 27.4195 20.3907 27.519 20.602 27.3077C20.752 27.1577 20.999 26.4442 21.2446 25.4514C21.6774 23.702 22.251 22.848 24.8547 20.0764C27.6663 17.0836 28.4615 16.073 29.3547 14.3577C30.1006 12.9252 30.328 12.0115 30.3268 10.4514C30.3255 8.70815 29.9935 7.33684 29.1771 5.7014C27.7688 2.88015 25.6303 1.20784 22.3875 0.391967C21.0815 0.0634046 19.2068 -0.0833454 17.9895 0.0477171ZM19.0215 3.73934C18.1309 3.83309 16.6976 4.33709 16.3591 4.67559C16.1784 4.85628 16.2008 5.19315 16.4042 5.35309C16.6218 5.52428 16.6703 5.51903 17.163 5.27128C19.1984 4.24772 21.7049 4.45603 23.5563 5.80253C24.8178 6.72009 25.6145 8.1909 25.6145 9.60209C25.6145 10.0574 25.7003 10.2637 25.9287 10.3583C26.0671 10.4157 26.1389 10.4108 26.288 10.3337C26.5226 10.2123 26.552 10.1326 26.552 9.61815C26.5518 8.81228 26.3278 7.90097 25.9424 7.13865C25.1856 5.6414 23.5217 4.37447 21.7191 3.92284C20.7901 3.69015 19.9998 3.63634 19.0215 3.73934ZM15.2645 5.60615C14.9451 5.73528 14.2914 6.89728 14.0297 7.80109C13.7771 8.67353 13.7186 9.25628 13.7576 10.5079C13.7816 11.2739 13.8341 11.8406 13.9203 12.2639C14.196 13.6184 14.2911 13.7952 14.7434 13.7952C15.379 13.7952 16.1213 14.0859 16.3921 14.441C16.6108 14.7278 16.7193 15.2827 16.6208 15.6112C16.4531 16.1709 15.8153 16.5945 14.9168 16.7429C14.3531 16.836 14.1416 17.0051 14.2015 17.3149C14.2438 17.534 14.4408 17.7327 14.616 17.7327C14.6779 17.7327 14.9481 17.6907 15.2166 17.6393C16.2103 17.4492 17.0664 16.879 17.4106 16.178C17.5605 15.8727 17.5824 15.7564 17.5768 15.2952C17.568 14.5632 17.396 14.1287 16.9325 13.667C16.5482 13.2844 15.9622 13.0032 15.4138 12.9382C15.2472 12.9185 15.0922 12.8722 15.0695 12.8353C15.0467 12.7985 14.9542 12.3099 14.864 11.7496L14.7 10.7309L14.9868 10.5469C15.967 9.9179 17.2046 9.53353 18.2708 9.5269C19.5283 9.51909 20.369 9.85991 21.2418 10.7312C22.1486 11.6366 22.5757 12.6663 22.5774 13.9514C22.5781 14.5527 22.5571 14.6927 22.4091 15.0677C22.201 15.5953 21.8041 16.2005 21.3163 16.7344C20.7505 17.3537 20.6965 17.5078 20.9555 17.7667C21.2365 18.0478 21.4168 17.9837 21.9561 17.4104C22.6938 16.6262 23.0874 15.9951 23.376 15.1335C23.4983 14.7685 23.52 14.58 23.5156 13.9202C23.5059 12.4707 23.0078 11.2162 22.0356 10.1927C21.111 9.21928 20.1928 8.75803 18.8851 8.60997C17.6744 8.47284 16.0745 8.83234 14.9546 9.49309C14.8334 9.56466 14.7175 9.60647 14.6971 9.58615C14.6351 9.52403 14.796 8.4529 14.9353 8.00147C15.0964 7.47909 15.3661 6.93503 15.6853 6.48809C15.8183 6.30203 15.927 6.11353 15.927 6.06915C15.927 5.90553 15.7839 5.68197 15.636 5.61453C15.4609 5.53478 15.442 5.53434 15.2645 5.60615ZM4.98289 9.0529C4.79021 9.1229 4.65621 9.38034 4.71483 9.56797C4.73777 9.64134 4.91739 9.88422 5.11402 10.1077C7.21352 12.4933 7.86677 16.373 6.73752 19.7495C6.38471 20.8045 5.65858 22.0592 5.08327 22.6077C4.65889 23.0123 4.58633 23.3683 4.88558 23.5778C5.13996 23.756 5.31352 23.694 5.72014 23.2795C7.09402 21.8794 7.97696 19.7075 8.17833 17.2327C8.41671 14.3032 7.48746 11.2865 5.78733 9.47072C5.37058 9.02559 5.24202 8.95884 4.98289 9.0529ZM9.88421 9.67059C9.64889 9.7654 9.59733 9.9509 9.64314 10.5379C9.75021 11.91 9.99827 13.1488 10.455 14.5925C10.7796 15.6185 10.8636 16.0648 10.8635 16.7639C10.8634 18.3302 10.5033 19.7507 9.60383 21.7327C8.67046 23.7894 8.45627 24.628 8.46246 26.2014C8.46627 27.1703 8.48146 27.3123 8.63489 27.8137C9.14327 29.4747 10.2809 30.7455 11.9483 31.515C12.687 31.8559 13.1121 31.9453 13.9895 31.9444C15.0618 31.9433 15.9418 31.7301 16.927 31.2328C17.8894 30.747 19.0209 29.801 19.6856 28.9265C20.0273 28.4768 20.0591 28.2965 19.8361 28.0736C19.554 27.7915 19.3214 27.8738 18.928 28.3949C17.8079 29.8784 15.9665 30.9175 14.2708 31.0228C13.508 31.0702 12.9369 30.9433 12.1458 30.5509C10.821 29.8937 9.96058 28.9128 9.53764 27.5775C9.45621 27.3204 9.40796 26.9344 9.38521 26.3577C9.33271 25.0277 9.56008 24.1075 10.401 22.2462C11.2038 20.4693 11.5218 19.4768 11.7068 18.1702C11.8789 16.9547 11.7956 15.651 11.4893 14.7639C11.0539 13.5033 10.7281 12.0373 10.6142 10.8264C10.5326 9.95828 10.4767 9.77534 10.2636 9.67828C10.0851 9.5969 10.068 9.59659 9.88421 9.67059ZM2.46671 10.9872C2.19564 11.2004 2.24008 11.455 2.62514 11.8948C3.42952 12.8135 3.86708 13.814 4.08508 15.2327C4.38908 17.2116 3.85889 19.315 2.70677 20.7008C2.26546 21.2317 2.20339 21.4465 2.42702 21.6702C2.72427 21.9674 3.09846 21.7631 3.67089 20.9909C4.40064 20.0065 4.88114 18.7207 5.05127 17.2968C5.31402 15.0975 4.61933 12.6822 3.31908 11.2746C2.90364 10.8248 2.74227 10.7704 2.46671 10.9872ZM0.142956 13.0736C-0.080481 13.297 -0.048981 13.4767 0.286894 13.8952C1.06264 14.8618 1.31239 16.3122 0.921456 17.5806C0.747331 18.1457 0.610394 18.4076 0.303956 18.7617C-0.015981 19.1313 -0.065481 19.3165 0.097019 19.535C0.347331 19.8715 0.672457 19.7963 1.05977 19.3125C1.42914 18.851 1.71346 18.2838 1.87833 17.6792C2.07039 16.9748 2.06833 15.7028 1.87402 15.0139C1.67458 14.3068 1.33533 13.6542 0.961894 13.2593C0.593144 12.8694 0.392581 12.8239 0.142956 13.0736ZM18.8645 18.8027C18.2973 19.2166 17.7288 19.6562 17.6011 19.7795C17.2561 20.1126 16.9715 20.7123 16.6443 21.7952C16.2902 22.9667 16.0969 23.378 15.7806 23.6328C15.5513 23.8177 15.5146 23.8264 14.9681 23.8264C14.4685 23.8264 14.3698 23.8078 14.1912 23.6805C14.0787 23.6003 13.924 23.4175 13.8475 23.2743C13.7223 23.0402 13.7084 22.9257 13.7097 22.1389C13.711 21.3915 13.7368 21.1617 13.8865 20.563C13.9847 20.1705 14.0436 19.8046 14.0203 19.7313C13.9975 19.6594 13.8873 19.5569 13.7755 19.5035C13.5908 19.4155 13.5542 19.4158 13.3771 19.5074C13.2155 19.591 13.1607 19.6804 13.057 20.0298C12.7046 21.216 12.6421 22.7017 12.9132 23.4423C13.2446 24.3477 13.947 24.8058 14.9984 24.8025C15.6361 24.8005 16.0587 24.6495 16.4643 24.2788C16.8913 23.8885 17.1522 23.3625 17.4945 22.2014C17.7843 21.2187 18.0451 20.6314 18.2917 20.4063C18.3833 20.3228 18.9125 19.9257 19.4676 19.5238C20.0227 19.122 20.4938 18.7492 20.5145 18.6953C20.5816 18.5204 20.5545 18.3777 20.4225 18.2098C20.181 17.9028 20.0066 17.9692 18.8645 18.8027Z" fill="#334B69"/>
</svg>
