<svg width="33" height="32" viewBox="0 0 33 32" fill="none" xmlns="http://www.w3.org/2000/svg">
<path fill-rule="evenodd" clip-rule="evenodd" d="M8.00236 0.0378197C6.17916 0.267354 4.43469 1.05233 3.07175 2.25632C2.73477 2.55407 2.67238 2.64099 2.67238 2.8132C2.67238 3.0622 2.8904 3.28942 3.12926 3.28942C3.24077 3.28942 3.42982 3.17628 3.69683 2.94975C6.66777 0.42943 10.7319 0.234501 13.8317 2.46364C15.5331 3.68716 16.7059 5.55617 17.1081 7.68499C17.205 8.19794 17.2178 8.72447 17.2196 12.2803C17.2217 16.2649 17.2207 16.2975 17.0901 16.4724C16.8452 16.8007 16.6754 16.7951 15.757 16.4283C15.3042 16.2475 14.9206 16.0784 14.9046 16.0526C14.8887 16.0267 14.9977 15.8689 15.1469 15.7019C15.6517 15.1368 15.8763 14.801 15.8763 14.6112C15.8763 14.3697 15.6774 14.1779 15.427 14.1779C15.2648 14.1779 15.1754 14.2387 14.9434 14.5065C14.3028 15.2459 13.6423 15.8409 13.1571 16.1153C12.5269 16.4718 11.7806 16.7709 11.0096 16.9761C10.4592 17.1226 10.2835 17.1387 9.18045 17.1443C7.84611 17.1509 7.36201 17.082 6.39787 16.7478C4.41466 16.0604 2.72907 14.5588 1.79247 12.6448C0.902179 10.8255 0.704684 8.96627 1.19598 7.02956C1.42383 6.13132 1.66594 5.59471 2.39409 4.37395C2.53915 4.13077 2.47231 3.87189 2.2292 3.73541C1.84942 3.52227 1.55011 3.82277 0.959563 5.0103C0.00600493 6.92781 -0.243742 9.05626 0.241172 11.1337C0.930777 14.0884 3.06712 16.4981 5.96346 17.5883C7.06282 18.0021 8.06694 18.1505 9.43908 18.1022C10.9866 18.0476 11.9335 17.7977 13.3174 17.0787L13.9967 16.7257L15.0912 17.1716C16.3752 17.6949 16.5478 17.7324 17.0286 17.5927C17.456 17.4684 17.8143 17.1645 18.0159 16.7552L18.1603 16.462L18.1586 12.3319C18.157 8.66465 18.1446 8.13699 18.0473 7.62379C17.6533 5.5449 16.8463 3.99467 15.4326 2.60106C14.1494 1.33612 12.416 0.430995 10.6924 0.125866C10.0202 0.00690632 8.61362 -0.0391508 8.00236 0.0378197ZM27.6845 3.62627C27.5537 3.67502 27.3425 3.78722 27.2152 3.87564C26.7809 4.17714 21.4731 9.5632 21.3485 9.82878C21.2758 9.98379 21.2235 10.2578 21.211 10.5484C21.183 11.2013 21.3645 11.5479 22.0412 12.1339C22.7355 12.7351 23.6786 13.4311 24.2334 13.7515C24.8083 14.0835 24.8819 14.251 24.7709 14.9755C24.6008 16.0863 23.7739 17.5588 22.39 19.2154C21.7046 20.036 20.2728 21.48 19.4325 22.1984C19.0308 22.5417 18.6859 22.8652 18.6659 22.9171C18.5492 23.2213 18.7707 23.5646 19.0837 23.5646C19.3397 23.5646 20.0827 22.9339 21.5112 21.5038C23.2918 19.7215 24.3086 18.4178 25.0617 16.9516C25.6802 15.7476 25.879 14.5811 25.6041 13.7694C25.474 13.3851 25.4901 13.3997 24.6371 12.8938C24.4134 12.7611 24.0755 12.5393 23.8862 12.4008C23.6969 12.2624 23.5292 12.1399 23.5135 12.1286C23.4804 12.1046 29.5926 5.98026 29.6496 5.98026C29.7249 5.98026 30.3477 7.39213 30.5582 8.04C30.9176 9.14637 31.0413 9.97252 31.0417 11.2681C31.0421 12.686 30.8396 13.9217 30.3967 15.2046C30.1642 15.8782 30.2713 16.1804 30.7427 16.1804C31.01 16.1804 31.0978 16.0571 31.322 15.3669C32.0273 13.196 32.1851 11.0959 31.7964 9.05551C31.5059 7.53024 30.8486 5.99302 29.9159 4.65755C29.5607 4.14905 29.2671 3.85756 28.939 3.68791C28.6665 3.54699 27.9868 3.51357 27.6845 3.62627ZM28.5734 4.55755C28.6561 4.60004 28.8097 4.74153 28.9149 4.87194L29.106 5.10911L25.9214 8.29419L22.7368 11.4793L22.5544 11.3494C22.2847 11.1573 22.1345 10.8713 22.1343 10.5492L22.134 10.2683L25.029 7.37336C27.8832 4.51913 27.9275 4.47839 28.1735 4.47933C28.3107 4.47983 28.4907 4.515 28.5734 4.55755ZM7.80374 4.71131C7.57252 4.79816 7.34186 5.01831 7.2346 5.25442C7.14092 5.46067 7.11789 5.66624 7.11677 6.30416L7.11539 7.09739L6.21853 7.11767C5.35258 7.13725 5.31397 7.14382 5.0977 7.30897C4.71766 7.59914 4.66391 7.84482 4.6865 9.18686C4.70828 10.479 4.72642 10.5405 5.17486 10.8457C5.36478 10.975 5.45264 10.9865 6.24856 10.9865H7.11539V11.7959C7.11539 12.6445 7.16044 12.8627 7.38554 13.1044C7.65224 13.3909 7.85211 13.4466 8.72057 13.4769C10.1794 13.5276 10.6095 13.4188 10.8971 12.9264C11.0047 12.7421 11.0284 12.5727 11.0483 11.8472L11.072 10.9865H11.9317C12.72 10.9865 12.8088 10.9748 13.0007 10.8455C13.4297 10.5563 13.467 10.4125 13.467 9.04656C13.467 7.88393 13.4603 7.81541 13.3238 7.59607C13.0823 7.20753 12.7802 7.10665 11.8586 7.10665H11.072L11.0483 6.24621C11.0207 5.23959 10.933 5.01862 10.4725 4.79572C10.23 4.67833 10.096 4.66656 9.05117 4.67107C8.41669 4.67376 7.85537 4.69191 7.80374 4.71131ZM10.105 6.69752C10.1282 8.12354 10.0421 8.03693 11.4585 8.05952L12.5284 8.07661L12.5456 9.05701L12.5628 10.0374L11.4725 10.0583C10.0201 10.086 10.1191 9.98817 10.1191 11.3962C10.1191 12.3221 10.1051 12.4803 10.0201 12.5129C9.89121 12.5624 8.28196 12.5624 8.15305 12.5129C8.06832 12.4804 8.05405 12.3264 8.05405 11.445C8.05405 10.8785 8.02646 10.3635 7.99279 10.3006C7.8876 10.104 7.5722 10.0478 6.57415 10.0478H5.61352V9.04656V8.04532H6.68016C7.72927 8.04532 7.74936 8.04281 7.90042 7.89169C8.05155 7.74063 8.05405 7.7206 8.05405 6.66992V5.60166L9.07094 5.61887L10.0878 5.63608L10.105 6.69752ZM29.7861 16.8844C29.715 16.9619 29.5557 17.2276 29.4323 17.4749C28.4586 19.4251 26.7953 21.6708 24.7794 23.7569C22.1659 26.4615 19.779 28.289 17.2217 29.5434C13.9235 31.1612 10.7386 31.4804 7.81476 30.4862C7.1973 30.2761 5.98899 29.7168 5.98899 29.6409C5.98899 29.62 7.36514 28.2269 9.04703 26.5453L12.1051 23.4877L12.3967 23.8964C12.5571 24.1211 12.8364 24.5538 13.0175 24.8579C13.2936 25.3216 13.3916 25.4326 13.6258 25.547C14.3933 25.9219 15.5803 25.7547 16.9163 25.0835C18.1138 24.4819 18.4108 24.1803 18.1506 23.8304C17.9451 23.5539 17.7046 23.5707 17.1405 23.9009C15.9085 24.6221 14.8248 24.9385 14.1927 24.7616C14.0934 24.7338 13.9465 24.5607 13.7598 24.2516C13.2182 23.3544 12.0792 21.9013 11.6503 21.5605C11.1337 21.15 10.4001 21.075 9.80441 21.372C9.42275 21.5623 3.86848 27.1184 3.70278 27.4757C3.55885 27.786 3.51261 28.3929 3.60641 28.7412C3.64521 28.8855 3.76911 29.1244 3.88163 29.2722C4.31516 29.8412 6.20814 30.9343 7.54167 31.3856C11.794 32.8247 16.4639 31.7289 21.2468 28.1693C22.4448 27.2777 23.4364 26.3988 24.9205 24.9132C27.4996 22.3316 28.9296 20.4567 30.265 17.9062C30.5078 17.4425 30.5805 17.2444 30.5522 17.124C30.4665 16.7608 30.0261 16.6231 29.7861 16.8844ZM11.1891 22.4188L11.5029 22.7123L8.32376 25.8918C6.57528 27.6406 5.11641 29.0705 5.08186 29.0693C4.9977 29.0665 4.79908 28.8929 4.62736 28.6718C4.52855 28.5446 4.48713 28.4063 4.48713 28.2033V27.9152L7.38209 25.0203L10.2771 22.1253H10.5762C10.8463 22.1253 10.906 22.1539 11.1891 22.4188Z" fill="#334B69"/>
</svg>
