<svg width="32" height="32" viewBox="0 0 32 32" fill="none" xmlns="http://www.w3.org/2000/svg">
<path fill-rule="evenodd" clip-rule="evenodd" d="M20.8944 0.270624C18.9998 1.24362 17.3378 3.04931 16.1536 5.42137C15.687 6.35581 15.6483 6.56306 15.8999 6.7795C16.2594 7.08869 16.4648 6.93394 16.8946 6.02962C17.441 4.88019 18.4554 3.39369 19.1175 2.77244C19.2786 2.62125 19.2399 2.71062 18.9011 3.27244C17.8532 5.01012 17.1147 6.79719 16.5909 8.86281C16.2452 10.2262 16.1197 11.0867 16.0805 12.3628C16.0175 14.4132 16.2904 16.116 17.0015 18.1093C17.3224 19.0089 17.5211 19.9736 17.4809 20.4373C17.3471 21.9806 15.6761 22.7986 14.3886 21.9511C13.8619 21.6045 13.5 20.9185 13.5 20.2668C13.5 19.8308 13.7502 18.8151 14.0889 17.8761C14.7199 16.1272 14.9679 15.0184 15.1546 13.1128C15.3449 11.1692 15.5752 9.84019 15.9417 8.57225C16.1582 7.82319 16.1672 7.655 16 7.48781C15.8398 7.32762 15.4934 7.3225 15.3525 7.47812C15.1671 7.68306 14.7219 9.39275 14.5002 10.7519C14.4315 11.1729 14.3182 12.0943 14.2483 12.7994C14.0404 14.8988 13.8739 15.6445 13.1307 17.8034C12.6526 19.1926 12.5121 19.9836 12.6152 20.7066C12.8463 22.3256 14.3341 23.4405 15.9332 23.1929C17.5947 22.9358 18.6345 21.4496 18.3761 19.7015C18.2873 19.101 18.2106 18.8156 17.7804 17.4878C17.1629 15.5814 16.9608 14.2327 17.0183 12.4041C17.0694 10.7792 17.3266 9.436 17.9357 7.61225C18.7481 5.17944 19.8426 3.24837 21.5753 1.19025C22.1112 0.553624 22.162 0.394124 21.9091 0.141249C21.6937 -0.074189 21.5234 -0.052439 20.8944 0.270624ZM0.34375 9.53275C0.275 9.5495 0.169563 9.60687 0.109375 9.66019C0.0075 9.75056 0 10.0164 0 13.5503C0 17.2722 0.002375 17.3456 0.125813 17.4573C0.298187 17.6133 0.600688 17.6024 0.769125 17.4341C0.903188 17.3001 0.906687 17.2557 0.925375 15.4484L0.9445 13.5998L1.34169 13.9811C1.98444 14.5983 2.67044 14.7981 3.40919 14.5834C3.85056 14.4551 4.03606 14.335 4.53125 13.8568C4.7375 13.6576 4.98544 13.4649 5.08219 13.4287C5.55994 13.2498 6.09137 13.4335 6.50094 13.9193C6.68594 14.1386 6.90231 14.305 7.18162 14.4425C7.54006 14.6189 7.65375 14.6441 8.09375 14.6441C8.53375 14.6441 8.64744 14.6189 9.00587 14.4425C9.28519 14.305 9.50156 14.1386 9.68656 13.9193C10.1093 13.4179 10.6523 13.242 11.1437 13.4473C11.2549 13.4937 11.5083 13.7009 11.7069 13.9077C11.9055 14.1144 12.1652 14.3359 12.284 14.3999C12.4028 14.4639 12.5 14.535 12.5 14.5579C12.5 14.7449 12.1562 15.6229 11.7688 16.4253C11.0484 17.9174 10.8097 18.6768 10.7177 19.7691C10.6366 20.733 10.8951 21.8646 11.3887 22.7066C11.7444 23.3134 12.5932 24.1496 13.1875 24.4788C14.5261 25.2203 16.097 25.3164 17.4902 24.7419C18.5512 24.3043 19.442 23.4718 19.9686 22.4253C20.3132 21.7406 20.4468 21.2202 20.4821 20.4253C20.5381 19.1645 20.2754 18.1389 19.4659 16.4566C18.9419 15.3676 18.7167 14.7351 18.8279 14.6645C18.8709 14.6371 18.9519 14.6143 19.0077 14.6138C19.2551 14.6114 19.7411 14.3171 20.1216 13.9393C20.3469 13.7154 20.6217 13.4942 20.7324 13.4476C21.1965 13.2519 21.7808 13.4282 22.1299 13.8691C22.4071 14.2189 22.8048 14.4724 23.2594 14.5889C24.0256 14.7852 24.7327 14.5658 25.3242 13.9483C25.7179 13.5373 26.0291 13.3628 26.3684 13.3628C26.7514 13.3628 26.9223 13.4567 27.4401 13.9514C27.9962 14.4827 28.3524 14.6399 29 14.6399C29.6238 14.6399 30.0017 14.4805 30.5064 14.0043L30.9375 13.5977V18.6272C30.9375 22.1381 30.9584 23.7165 31.0066 23.8548C31.1219 24.1856 31.5121 24.2882 31.75 24.0503C31.8735 23.9268 31.875 23.842 31.875 16.8412V9.75719L31.7434 9.63812C31.6159 9.52275 31.4227 9.51906 25.5091 9.51906H19.4062L19.0529 9.66187C18.5729 9.856 18.1851 10.1652 17.9234 10.5623C17.5647 11.1069 17.5309 11.2738 17.5339 12.4878C17.5381 14.1809 17.7921 15.1996 18.6243 16.8619C19.9411 19.4924 19.8665 21.5483 18.401 23.0138C17.6705 23.7443 16.8428 24.1056 15.7812 24.1574C14.5954 24.2152 13.6863 23.8639 12.8385 23.0203C12.4392 22.6229 12.2791 22.4063 12.0745 21.9871C11.7008 21.2208 11.5894 20.5923 11.6765 19.7416C11.7725 18.8046 11.9916 18.1146 12.5904 16.8628C13.472 15.0199 13.6562 14.2635 13.6562 12.4878C13.6562 11.2824 13.6543 11.2649 13.4797 10.8872C13.1557 10.1859 12.4749 9.67944 11.6875 9.55369C11.2816 9.48881 0.604875 9.46912 0.34375 9.53275ZM11.9062 10.5692C12.2364 10.7181 12.4894 10.9622 12.6315 11.2691C12.7278 11.4771 12.7473 11.6763 12.7477 12.4566C12.7479 12.9722 12.7245 13.4313 12.6956 13.4768C12.6569 13.5379 12.5634 13.4717 12.3372 13.2224C11.9484 12.794 11.7395 12.6515 11.3167 12.5261C10.4884 12.2802 9.63625 12.5479 9.04369 13.2402C8.65381 13.6957 8.13281 13.8513 7.66988 13.6506C7.55925 13.6026 7.28594 13.3838 7.0625 13.1644C6.49944 12.6114 6.17425 12.4648 5.5 12.4602C5.04069 12.4571 4.92063 12.4802 4.61331 12.6311C4.411 12.7304 4.11475 12.9559 3.92581 13.1544C3.18337 13.9343 2.5675 13.9269 1.79656 13.1289C1.59875 12.9241 1.32456 12.7059 1.18719 12.6439L0.9375 12.5313V11.4766V10.4219L6.29688 10.4392C11.3053 10.4554 11.6726 10.4639 11.9062 10.5692ZM30.9375 11.4783V12.5313L30.6748 12.6498C30.5303 12.7149 30.2421 12.9429 30.0342 13.1565C29.2719 13.9396 28.7528 13.9356 27.9291 13.1403C27.3568 12.5879 27.0537 12.4555 26.375 12.4619C25.6814 12.4684 25.3714 12.6072 24.7887 13.1722C24.5436 13.4098 24.2641 13.6343 24.1675 13.6711C23.7183 13.8418 23.1621 13.6634 22.8211 13.2392C22.4339 12.7574 21.7546 12.4253 21.1562 12.4253C20.5574 12.4253 19.9016 12.7449 19.5181 13.2238C19.3122 13.4809 18.8744 13.7378 18.6424 13.7378C18.5221 13.7378 18.5081 13.6906 18.467 13.1423C18.4424 12.8148 18.4342 12.2996 18.4486 11.9974C18.4706 11.5391 18.5035 11.399 18.6472 11.1539C18.8498 10.8081 19.1836 10.5686 19.5679 10.4931C19.7196 10.4634 22.3399 10.4359 25.3906 10.4322L30.9375 10.4253V11.4783ZM7.50112 16.4371C6.99756 16.6234 7.13256 17.2281 7.70119 17.3331C8.2275 17.4303 8.43731 18.0042 8.08206 18.375C7.72144 18.7514 7.12269 18.529 7.03069 17.9844C6.96325 17.5854 6.57238 17.3656 6.29931 17.573C6.12225 17.7076 6.06712 17.9386 6.13562 18.2597C6.39512 19.4762 7.90225 19.9114 8.76819 19.0198C9.42813 18.3403 9.29212 17.1524 8.49837 16.6622C8.17575 16.463 7.71331 16.3586 7.50112 16.4371ZM27.4688 16.6868C27.2923 16.7901 27.1918 16.9348 27.1895 17.0887C27.1868 17.2684 27.4186 17.5503 27.5691 17.5503C27.7768 17.5503 28.1111 17.7201 28.1887 17.8651C28.3296 18.1283 28.2807 18.4361 28.0678 18.6263C27.668 18.9835 27.2052 18.7957 27.034 18.2067C26.9303 17.8498 26.8111 17.7378 26.5354 17.7378C25.9749 17.7378 25.9903 18.7185 26.5597 19.2879C26.9002 19.6284 27.1011 19.7048 27.6562 19.7048C28.2116 19.7048 28.4123 19.6285 28.7535 19.2872C29.37 18.6707 29.3417 17.6056 28.6937 17.0367C28.3294 16.7168 27.7163 16.5416 27.4688 16.6868ZM23.1782 18.1372C22.4866 18.3843 22.0535 19.1541 22.1923 19.8897C22.3556 20.7553 23.1687 21.2919 24.0422 21.1106C24.7499 20.9636 25.2513 20.3299 25.2486 19.586C25.2469 19.0949 25.098 18.7722 24.7197 18.4392C24.2859 18.0574 23.7149 17.9455 23.1782 18.1372ZM0.125 18.6753C0.001625 18.7987 0 18.8836 0 25.2645V31.7288L0.164687 31.8583L0.329375 31.9878H15.9375H31.5456L31.7103 31.8583L31.875 31.7288V28.5554C31.875 25.4548 31.8721 25.3796 31.7492 25.2683C31.5767 25.1123 31.2743 25.1232 31.1059 25.2916C30.9693 25.4281 30.9687 25.4406 30.9507 28.2395L30.9326 31.0503H15.9351H0.9375V25.0596C0.9375 20.8469 0.917 19.0102 0.868438 18.8708C0.753125 18.54 0.362875 18.4374 0.125 18.6753ZM24.1298 19.1705C24.6122 19.6529 24.1016 20.4125 23.4719 20.1494C23.0491 19.9727 22.9713 19.4408 23.3247 19.1434C23.5861 18.9234 23.8931 18.9338 24.1298 19.1705ZM3.81212 19.605C3.39387 19.7421 3.1015 19.9795 2.84713 20.3884C2.70644 20.6146 2.65088 21.2478 2.74213 21.5849C2.82881 21.9051 3.18844 22.3289 3.51469 22.4953C4.54063 23.0187 5.7625 22.2701 5.7625 21.1182C5.7625 20.5109 5.45294 20.0047 4.91075 19.7254C4.64281 19.5874 4.0605 19.5236 3.81212 19.605ZM4.609 20.6254C5.00338 20.9524 4.84025 21.6176 4.34275 21.7109C4.11006 21.7545 3.78969 21.6162 3.68937 21.4287C3.60681 21.2746 3.60669 20.9513 3.68906 20.7974C3.84081 20.5138 4.35788 20.4172 4.609 20.6254ZM7.54675 21.0145C6.46381 21.4009 6.157 22.7894 6.97819 23.5875C7.75194 24.3395 9.004 24.1135 9.46762 23.138C10.0461 21.9209 8.81631 20.5614 7.54675 21.0145ZM26.3125 21.8054C25.7055 22.0801 25.4124 22.5344 25.4087 23.2066C25.4059 23.6996 25.5108 23.9722 25.8277 24.2964C26.1354 24.6111 26.4764 24.7581 26.9062 24.7614C27.5624 24.7663 28.0651 24.4431 28.3521 23.8316C28.5321 23.4482 28.5389 23.0966 28.3751 22.6588C28.0714 21.8469 27.1046 21.4469 26.3125 21.8054ZM8.36931 21.9536C8.84325 22.1987 8.7165 22.9654 8.18256 23.0826C7.95238 23.1332 7.6015 22.9668 7.50869 22.7631C7.25081 22.1972 7.81469 21.6668 8.36931 21.9536ZM22.2897 22.6174C21.9419 22.8909 22.1441 23.3631 22.6474 23.4529C23.1829 23.5486 23.3778 24.1349 22.9934 24.494C22.6241 24.8389 22.054 24.6346 21.9631 24.1247C21.9073 23.8114 21.715 23.6128 21.4676 23.6128C21.0113 23.6128 20.892 24.1889 21.2225 24.7961C21.6205 25.5274 22.4778 25.8141 23.2188 25.4639C24.5064 24.8551 24.3875 22.9831 23.0355 22.5798C22.6231 22.4568 22.4851 22.4637 22.2897 22.6174ZM27.2896 22.7236C27.7698 23.1125 27.5371 23.8174 26.9286 23.8174C26.4784 23.8174 26.1829 23.358 26.3823 22.9681C26.495 22.7477 26.7031 22.6156 26.9375 22.6156C27.0578 22.6156 27.2162 22.6642 27.2896 22.7236ZM4.44544 23.9174C4.31875 24.0441 4.28475 24.1546 4.30831 24.3628C4.32331 24.4954 4.60925 24.7378 4.75056 24.7378C5.1065 24.7378 5.42169 25.1329 5.34481 25.4829C5.29787 25.6967 5.09081 25.9013 4.86469 25.9574C4.52806 26.0409 4.125 25.7173 4.125 25.3634C4.125 25.2221 3.88256 24.9361 3.75 24.9211C3.41188 24.8828 3.1875 25.0671 3.1875 25.3829C3.1875 25.9223 3.57644 26.5156 4.09644 26.7696C4.63444 27.0323 5.39087 26.8924 5.83525 26.4481C6.75556 25.5277 6.20538 23.9524 4.91713 23.8194C4.62731 23.7895 4.55912 23.8037 4.44544 23.9174ZM9.95788 25.4939C9.03088 25.6654 8.49131 26.5603 8.75106 27.4955C8.83469 27.7964 9.27731 28.2903 9.59131 28.4329C9.98281 28.6108 10.5267 28.5888 10.9415 28.3784C11.9097 27.8874 12.0829 26.5751 11.2734 25.8643C10.889 25.5268 10.4494 25.403 9.95788 25.4939ZM24.7188 25.9461C24.118 26.2372 23.8121 26.7099 23.8131 27.3452C23.8143 28.044 24.2438 28.6383 24.8854 28.8289C25.2909 28.9493 25.3969 28.9492 25.8049 28.8281C27.1403 28.4314 27.2716 26.5577 26.0068 25.9473C25.6352 25.768 25.0874 25.7675 24.7188 25.9461ZM10.6293 26.5218C10.6683 26.5459 10.7409 26.663 10.7907 26.7821C11.0501 27.4028 10.2849 27.9073 9.80769 27.4301C9.56969 27.1921 9.5605 26.8866 9.78337 26.6217C9.99031 26.3758 10.3284 26.3358 10.6293 26.5218ZM19.9527 26.5885C19.5932 26.7203 19.1622 27.1631 19.0376 27.5288C18.614 28.7719 19.7584 29.9314 21.0014 29.5186C21.6056 29.3179 22.0625 28.6856 22.0625 28.0503C22.0625 27.49 21.6794 26.898 21.1536 26.6456C20.8298 26.4902 20.2908 26.4646 19.9527 26.5885ZM25.7553 26.9118C26.0797 27.2017 26.0086 27.6957 25.613 27.9003C25.4514 27.9838 25.3756 27.9891 25.1796 27.9303C24.8853 27.8421 24.75 27.6576 24.75 27.3441C24.75 27.1612 24.7939 27.0593 24.9327 26.9205C25.1787 26.6745 25.486 26.6713 25.7553 26.9118ZM20.9156 27.6216C21.2086 27.8969 21.1511 28.4065 20.8068 28.5845C20.2106 28.8928 19.6024 28.2263 20.0086 27.7098C20.2546 27.3971 20.6371 27.3599 20.9156 27.6216Z" fill="#334B69"/>
</svg>
