<svg width="24" height="32" viewBox="0 0 24 32" fill="none" xmlns="http://www.w3.org/2000/svg">
<path fill-rule="evenodd" clip-rule="evenodd" d="M10.9721 0.109367C10.5792 0.267743 10.2722 0.560743 10.085 0.956118C9.95236 1.23618 9.93698 1.35562 9.93642 2.10718C9.93605 2.56837 9.9203 2.93018 9.9013 2.91124C9.88236 2.89224 9.75911 2.52131 9.62742 2.08693C9.37198 1.24399 9.1893 0.903055 8.86011 0.655118C8.62361 0.47693 8.13636 0.299868 7.88248 0.299868C7.30948 0.299868 6.62942 0.73768 6.3808 1.26668C6.15886 1.73881 6.1983 2.13993 6.59673 3.46349L6.94523 4.62093L6.79986 4.79824C6.71992 4.89581 6.5023 5.15399 6.31623 5.37212L5.97792 5.76862L3.87873 5.79987L1.77955 5.83112L1.37311 6.02374C0.871296 6.26156 0.404234 6.71749 0.194234 7.17474C-0.0322664 7.66774 -0.0652663 8.44437 0.119484 8.93443C0.297171 9.40562 0.606671 9.79806 1.0103 10.0639C1.46167 10.3612 1.7373 10.4415 2.45011 10.4831L3.05811 10.5186L2.77705 10.9221C1.90648 12.1714 1.31548 13.9854 1.18523 15.8077C1.1048 16.9332 1.23586 18.6138 1.43273 18.9817C1.5478 19.1967 1.87723 19.2402 2.11717 19.0721C2.25305 18.9769 2.26117 18.9392 2.22811 18.5565C2.20848 18.3294 2.16223 17.7921 2.1253 17.3624C1.97373 15.5973 2.30611 13.8009 3.06267 12.2961C3.30936 11.8056 3.74923 11.0922 3.78361 11.1271C3.79261 11.1362 3.77548 11.2702 3.74561 11.4249C3.66111 11.862 3.67636 12.3703 3.7848 12.7356C4.1153 13.8485 5.26017 14.5642 6.38386 14.3604C7.43723 14.1694 8.12848 13.4436 8.33686 12.3097C8.44336 11.7304 8.71523 10.6871 8.77542 10.6269C8.84986 10.5525 10.1029 10.8064 10.4164 10.9596C10.8515 11.1719 11.3167 11.6916 11.5147 12.1865C11.6016 12.4036 11.7335 12.8764 11.808 13.2374C11.8824 13.5983 12.0115 14.0362 12.0949 14.2106C12.521 15.1012 13.5971 15.6651 14.5385 15.491C15.3355 15.3437 15.95 14.8867 16.2902 14.1884C16.4448 13.8712 16.4645 13.7611 16.4657 13.2061C16.4664 12.8624 16.4451 12.4686 16.4184 12.3311L16.3696 12.0811L16.5589 12.2999C16.8226 12.6046 17.4563 13.5305 17.6069 13.8311C17.7186 14.0542 17.7233 14.1062 17.65 14.3147C17.5269 14.665 17.2197 15.0829 16.6424 15.6854C16.1983 16.1488 16.1233 16.2581 16.1233 16.4413C16.1233 16.7622 16.4207 16.9751 16.7134 16.8637C16.8923 16.7957 17.6382 16.0347 17.9915 15.5599L18.2397 15.2263L18.3694 15.6617C18.5671 16.3257 18.685 17.2457 18.6854 18.128C18.6857 18.8412 18.6989 18.938 18.8108 19.0499C18.9791 19.2182 19.3175 19.215 19.473 19.0436C19.5709 18.9356 19.5976 18.7842 19.6233 18.1893L19.6545 17.4662L19.9552 17.7268C20.3631 18.0802 20.6489 18.0658 20.8072 17.6837C20.8697 17.5326 20.866 17.4671 20.786 17.3125C20.6877 17.1223 20.2598 16.7322 19.7497 16.3677C19.4829 16.1771 19.4622 16.1395 19.3066 15.5619C18.8757 13.9622 18.0277 12.4757 16.7792 11.1309L16.2432 10.5537L16.4801 10.4533C16.7995 10.3181 18.0627 9.95506 18.5409 9.86118C18.9005 9.79056 18.94 9.79437 19.1122 9.91699C19.5743 10.246 20.1819 11.0254 20.5379 11.7457C21.053 12.7881 21.1907 13.5557 21.1875 15.3672C21.1844 17.1001 21.227 17.5363 21.6579 20.1807C22.0596 22.646 22.1842 23.7349 22.1851 24.7874C22.1856 25.3387 22.2117 25.6061 22.2772 25.7329C22.4275 26.0236 22.6908 26.0685 22.9677 25.8507L23.1414 25.7141L23.1024 24.4601C23.0574 23.0081 23.0439 22.8941 22.5912 20.1124C22.1565 17.4416 22.1257 17.1298 22.1244 15.389C22.1232 13.7807 22.0454 13.1322 21.7447 12.2234C21.4443 11.3154 21.0109 10.543 20.4554 9.92506C20.2105 9.65274 20.1893 9.60787 20.2895 9.57456C20.9577 9.35274 21.5115 8.86693 21.7985 8.25099C21.9403 7.94674 21.965 7.80999 21.9645 7.33112C21.964 6.84612 21.9394 6.71506 21.7859 6.37974C21.5677 5.90337 21.0813 5.42362 20.5766 5.18712C20.2535 5.03568 20.1505 5.01924 19.5608 5.02506C19.1767 5.02887 18.5975 5.08881 18.164 5.16962L17.4234 5.30774L17.0077 4.91781C16.7791 4.70337 16.5284 4.46856 16.4506 4.39599L16.3091 4.26412L16.5624 3.42262C16.7016 2.95981 16.8443 2.45462 16.8794 2.29999C17.028 1.64581 16.7154 0.918243 16.1372 0.572805C15.5632 0.229743 14.9952 0.23018 14.4199 0.573993C13.9902 0.830805 13.7765 1.19518 13.4983 2.14606L13.2795 2.89362L13.239 2.07324C13.1937 1.15443 13.0993 0.85418 12.7439 0.497993C12.276 0.02918 11.5605 -0.127758 10.9721 0.109367ZM12.0386 1.12087C12.2575 1.32662 12.31 1.61156 12.3104 2.59674C12.3109 3.65737 12.3172 3.66881 12.9972 3.82237C13.8983 4.02587 13.9125 4.01349 14.3161 2.67618C14.6527 1.56043 14.7884 1.33318 15.1589 1.26368C15.4917 1.20124 15.9073 1.48918 15.9697 1.82549C15.9947 1.96006 15.9003 2.36749 15.6582 3.16956C15.3195 4.29149 15.2645 4.57456 15.3586 4.70937C15.3839 4.74549 15.6084 4.93856 15.8577 5.13824C16.1069 5.33799 16.3108 5.52024 16.3108 5.54318C16.3108 5.56618 16.2267 5.61668 16.1239 5.65549C15.7523 5.79574 15.7468 6.33143 16.1154 6.48406C16.2525 6.54087 16.3951 6.52474 16.8756 6.39793C17.5827 6.21137 18.6635 6.01531 19.3129 5.95587C19.963 5.89631 20.2667 5.98781 20.6317 6.35331C21.1632 6.88543 21.2042 7.63318 20.7334 8.20443C20.4498 8.54849 20.158 8.66168 19.1972 8.80037C17.8198 8.99918 15.8391 9.60337 15.2379 10.008C14.8697 10.2559 14.841 10.4069 15.0555 10.9687C15.4986 12.1287 15.677 13.3267 15.4683 13.7399C15.036 14.5954 14.0007 14.8447 13.3156 14.2582C12.9705 13.9628 12.8527 13.7083 12.695 12.9172C12.3152 11.0114 11.2419 9.93718 9.54361 9.76318C9.31242 9.73949 9.1233 9.70912 9.1233 9.69568C9.1233 9.58681 9.57517 8.80912 9.84511 8.45349C10.3414 7.79962 10.9345 7.42487 11.4731 7.42487C11.683 7.42487 12.0993 7.59431 12.6233 7.89312C12.9564 8.08299 13.0571 8.06812 13.5429 7.75737C13.7382 7.63249 14.159 7.40656 14.4782 7.25537C15.2385 6.89518 15.4117 6.64049 15.1314 6.29431C14.9474 6.06706 14.6772 6.10843 13.9448 6.47599L13.2976 6.80081L12.8865 6.67387C11.9961 6.39881 11.0093 6.44837 10.3042 6.80356C9.05442 7.43312 7.99742 9.32224 7.47111 11.867C7.28405 12.7714 7.12161 13.0545 6.64936 13.2988C5.9043 13.6844 4.94392 13.3007 4.68417 12.5138C4.45836 11.8296 5.0868 9.41249 5.93417 7.70612C6.39942 6.76918 6.82355 6.16024 7.50755 5.44718C7.81936 5.12206 7.9358 4.95512 7.9358 4.83312C7.9358 4.74099 7.76705 4.10724 7.5608 3.42487C7.35455 2.74249 7.1858 2.07337 7.1858 1.93793C7.1858 1.62437 7.36736 1.38787 7.68017 1.29418C7.87867 1.23468 7.95567 1.24093 8.14773 1.33206C8.27417 1.39206 8.41011 1.50081 8.4498 1.57362C8.48948 1.64649 8.66955 2.18331 8.84998 2.76656C9.04755 3.40537 9.22155 3.85893 9.28755 3.90718C9.44398 4.02156 9.69192 4.00687 10.2264 3.85156C10.8576 3.66818 10.8733 3.63362 10.8733 2.42487C10.8733 1.69093 10.895 1.43912 10.9711 1.29206C11.1615 0.923868 11.7316 0.83243 12.0386 1.12087ZM5.03205 7.40924C4.76511 7.94768 4.33755 9.02249 4.21161 9.47174C4.19517 9.53037 3.91967 9.54987 3.1063 9.54987C2.0648 9.54987 2.01023 9.54356 1.6968 9.38737C1.0038 9.04206 0.737608 8.23743 1.08292 7.53162C1.17192 7.34981 1.33148 7.13687 1.43755 7.05843C1.82848 6.76943 1.9948 6.74643 3.72861 6.74174L5.36517 6.73737L5.03205 7.40924ZM5.87105 16.5342C5.75105 16.6854 5.73923 16.7558 5.77236 17.1193C5.81973 17.6389 6.01217 18.5739 6.18823 19.1399L6.32317 19.5736L6.19498 20.0149C6.06523 20.4616 5.7483 22.1888 5.7483 22.4491C5.7483 22.6487 5.99842 22.8624 6.23217 22.8624C6.54392 22.8624 6.65411 22.6565 6.78336 21.8325C6.84548 21.4364 6.91261 21.1124 6.93255 21.1124C6.95255 21.1124 7.08917 21.3304 7.23623 21.5967C7.55873 22.181 8.14755 23.0135 8.64611 23.5902L9.01261 24.0143L8.97111 24.6727C8.92323 25.4313 9.00473 26.1343 9.16042 26.3064C9.30748 26.4688 9.64911 26.4616 9.8183 26.2924C9.94217 26.1685 9.94798 26.1194 9.90705 25.5424C9.88173 25.1856 9.88705 24.9249 9.91955 24.9249C9.95048 24.9249 10.0864 25.0186 10.2214 25.1332C11.1546 25.9247 11.5529 26.0823 11.8062 25.7602C12.0612 25.436 11.9698 25.285 11.1348 24.6515C10.4639 24.1426 9.48055 23.1742 9.00048 22.5499L8.68805 22.1436L9.41092 22.1124C10.0329 22.0855 10.1461 22.0642 10.2223 21.9598C10.3541 21.7791 10.3329 21.4642 10.1794 21.3252C10.064 21.2206 9.92673 21.2037 9.04805 21.1861L8.04805 21.1661L7.68698 20.4049C7.1538 19.2807 6.81911 18.1449 6.71148 17.0938C6.65761 16.5685 6.5183 16.3624 6.21705 16.3624C6.06305 16.3624 5.97117 16.408 5.87105 16.5342ZM1.88723 19.7722C1.68905 19.911 1.70836 20.1844 1.9628 20.8405C3.74148 25.4267 7.98373 29.7304 12.2795 31.3066C13.877 31.8927 15.5792 32.1061 16.9983 31.8981C20.1516 31.4359 22.0339 30.0522 22.7845 27.6447C22.9268 27.1884 22.9399 27.0856 22.8754 26.9299C22.7725 26.6817 22.5033 26.5732 22.2686 26.6856C22.1225 26.7554 22.0595 26.867 21.9037 27.3318C21.6519 28.0827 21.4093 28.5431 21.0102 29.0277C20.2576 29.9414 19.0282 30.5701 17.342 30.9034C16.5132 31.0674 14.989 31.0527 14.1453 30.8729C12.3434 30.4886 10.3845 29.5197 8.60386 28.132C7.73773 27.457 6.19292 25.9239 5.4983 25.0499C4.41623 23.6885 3.41017 21.9871 2.87817 20.6187C2.54698 19.7669 2.48373 19.6749 2.22948 19.6749C2.11767 19.6749 1.96361 19.7187 1.88723 19.7722Z" fill="#334B69"/>
</svg>
