<svg width="32" height="32" viewBox="0 0 32 32" fill="none" xmlns="http://www.w3.org/2000/svg">
<path fill-rule="evenodd" clip-rule="evenodd" d="M13.5026 0.132827C13.3549 0.205952 13.1659 0.355077 13.0826 0.464265C12.7598 0.887515 12.7398 1.01276 12.7398 2.61195C12.7398 4.08977 12.7411 4.10427 12.8844 4.23895C13.0891 4.4312 13.3839 4.41845 13.5477 4.21014C13.6702 4.05452 13.6773 3.96739 13.6773 2.6282C13.6773 1.28827 13.6842 1.20345 13.8047 1.07414C13.9895 0.875827 14.3179 0.889265 14.4852 1.10201C14.6144 1.26614 14.6148 1.28802 14.6148 7.54427V13.8218L14.1486 13.3327L13.6824 12.8436L13.6799 9.29964C13.6781 6.78889 13.6566 5.7102 13.6062 5.59964C13.5095 5.38745 13.2531 5.30427 13.0104 5.40633C12.9062 5.45008 12.8027 5.53352 12.7804 5.59177C12.7581 5.64995 12.7398 7.17183 12.7398 8.9737C12.7398 10.7756 12.7161 12.2498 12.6871 12.2498C12.6581 12.2498 12.4701 12.1933 12.2692 12.1242C12.0683 12.0551 11.7053 11.981 11.4625 11.9596C11.2197 11.9381 10.9862 11.9023 10.9436 11.88C10.8888 11.8513 11.0471 11.482 11.4824 10.6227C12.1847 9.2362 12.3924 8.70508 12.4804 8.06945C12.7135 6.38795 11.5199 4.63283 9.73981 4.03927C8.05212 3.47652 6.03362 3.81877 4.23287 4.97302C3.36856 5.52702 2.17731 6.64858 2.17731 6.90833C2.17731 7.20708 2.50312 7.48052 2.76262 7.39958C2.836 7.3767 3.18606 7.0792 3.54056 6.73852C4.93656 5.39677 6.43037 4.73608 8.08356 4.7292C9.38181 4.72383 10.3834 5.18589 11.0056 6.0772C11.4802 6.75708 11.6375 7.30333 11.5481 7.96195C11.4847 8.42889 11.3962 8.68352 11.0692 9.33783L10.7911 9.89458L10.6678 9.61908C10.6001 9.46758 10.483 9.27758 10.4078 9.19689C9.77881 8.52208 8.58956 8.78452 8.27831 9.66683C8.228 9.80933 8.16731 10.1501 8.14343 10.4243C8.1195 10.6985 8.0775 10.959 8.05012 11.0033C8.0095 11.0691 7.8855 11.0688 7.377 11.0015C6.6915 10.9107 6.4425 10.936 6.17975 11.1231C5.80725 11.3883 5.68744 12.018 5.93368 12.4163C6.00587 12.5333 6.2875 12.7983 6.55943 13.0053C7.111 13.4251 7.26362 13.6116 7.19987 13.7879C7.17637 13.8529 6.89675 14.1764 6.57856 14.5068C5.92 15.1906 5.793 15.4513 5.91693 15.8649C6.17869 16.7385 6.90393 17.0065 7.83169 16.5724C8.06387 16.4637 8.2795 16.3748 8.31087 16.3748C8.34225 16.3748 8.39256 16.4397 8.42268 16.519C8.50181 16.7271 8.77587 17.0358 9.00993 17.1805C9.54243 17.5096 10.1411 17.4606 10.5696 17.053C10.7089 16.9205 10.829 16.8192 10.8364 16.8278C10.8844 16.8836 11.2633 17.6798 11.3667 17.9421C11.7699 18.965 11.5506 20.022 10.7573 20.8788C10.1172 21.5703 9.23243 21.9 8.02106 21.8985C6.80062 21.897 5.78475 21.5623 4.59219 20.7688C3.93537 20.3318 3.19887 19.6443 2.73056 19.0311C0.730498 16.4118 0.358435 12.2461 1.84081 9.06883C1.9915 8.74583 2.11481 8.41645 2.11481 8.33689C2.11481 8.03308 1.7175 7.84452 1.41662 8.00552C1.26862 8.08477 0.760623 9.12658 0.532185 9.81945C-0.11044 11.7686 -0.174752 14.137 0.359248 16.1911C0.93881 18.4206 2.20462 20.2754 3.9705 21.4825C6.54956 23.2454 9.501 23.3324 11.2462 21.6969C12.1725 20.829 12.6221 19.7112 12.4848 18.6175C12.3996 17.939 12.2976 17.6723 11.5367 16.1395C11.1567 15.3741 10.8601 14.7337 10.8775 14.7163C10.8949 14.699 11.0542 14.7159 11.2317 14.754C11.6524 14.8441 12.0864 15.1435 12.3443 15.5213C12.7596 16.1297 12.7398 15.7284 12.7398 23.5311C12.7398 31.3932 12.7204 31.0221 13.1536 31.4553C13.4666 31.7683 13.8287 31.897 14.3005 31.8629C14.794 31.8271 15.1358 31.5953 15.3777 31.1323L15.5523 30.7981L15.5509 15.9458C15.5496 1.69695 15.5449 1.08339 15.4354 0.842202C15.2964 0.536202 15.0104 0.241015 14.7191 0.102765C14.4066 -0.0455477 13.8344 -0.0314227 13.5026 0.132827ZM17.2496 0.102265C16.9605 0.24939 16.6798 0.543765 16.5442 0.842202C16.4351 1.08239 16.43 1.55933 16.4287 11.5808L16.4273 22.068L16.5807 22.2214C16.7647 22.4054 16.9854 22.4178 17.186 22.2555L17.3336 22.136L17.3654 19.0836L17.3972 16.0311L17.5799 15.506C17.9367 14.4806 18.6391 13.6556 19.5211 13.2259C19.9842 13.0002 20.3421 12.906 20.9667 12.8451L21.3499 12.8078L21.3929 13.0944C21.4166 13.252 21.4185 13.46 21.3973 13.5566C21.3609 13.7223 21.3352 13.7345 20.9457 13.7709C19.9512 13.8638 19.1321 14.4207 18.6788 15.3123C18.3182 16.0217 18.3386 15.5815 18.3036 23.4151C18.2721 30.4414 18.2672 30.6785 18.152 30.8058C17.9892 30.9857 17.6761 30.9794 17.5007 30.7927L17.3648 30.648V27.1336V23.6191L17.2114 23.4658C17.0159 23.2702 16.7762 23.2702 16.5807 23.4658L16.4273 23.6191V27.2086V30.7981L16.6019 31.1323C16.8438 31.5953 17.1856 31.8271 17.6791 31.8629C18.1509 31.897 18.513 31.7683 18.826 31.4553C19.2592 31.0221 19.2398 31.3932 19.2398 23.5311C19.2398 15.7284 19.22 16.1297 19.6353 15.5213C19.8932 15.1435 20.3272 14.8441 20.7479 14.754C20.9254 14.7159 21.0847 14.699 21.1021 14.7163C21.1195 14.7337 20.8229 15.3741 20.4429 16.1395C19.6871 17.6621 19.5796 17.9414 19.4981 18.5936C19.3619 19.684 19.7495 20.6978 20.6481 21.6016C21.2154 22.1721 21.8542 22.5323 22.6461 22.7279C23.1898 22.8623 24.463 22.8766 25.0836 22.7554C26.0433 22.5679 27.0774 22.1193 27.9939 21.4929C28.6687 21.0316 29.5439 20.2226 29.6546 19.9579C29.8 19.6098 29.5966 19.3123 29.2132 19.3123C29.1039 19.3123 28.9695 19.4026 28.7872 19.5986C28.4279 19.985 27.6731 20.6044 27.1773 20.9197C25.7499 21.8276 23.9666 22.1533 22.6502 21.7465C21.8077 21.4862 21.0581 20.8595 20.69 20.1077C20.2502 19.2095 20.3126 18.4735 20.9337 17.2343C21.0415 17.0194 21.1357 16.8365 21.1432 16.8278C21.1506 16.8192 21.2707 16.9205 21.41 17.053C22.0184 17.6318 22.9702 17.4537 23.4741 16.6666C23.5658 16.5233 23.6487 16.3947 23.6583 16.3808C23.6679 16.367 23.878 16.4488 24.1252 16.5628C25.0778 17.0018 25.7985 16.7466 26.0587 15.878C26.1844 15.4585 26.0525 15.1832 25.4016 14.5073C25.0831 14.1766 24.8032 13.8529 24.7797 13.7879C24.716 13.6116 24.8686 13.4251 25.4202 13.0053C26.053 12.5236 26.2016 12.293 26.1648 11.8497C26.1324 11.459 25.9587 11.1836 25.6535 11.0388C25.3979 10.9175 25.0591 10.9146 24.4273 11.0282C24.1695 11.0746 23.9491 11.1035 23.9376 11.0925C23.926 11.0814 23.8799 10.7818 23.8352 10.4267C23.7904 10.0716 23.7207 9.6967 23.6803 9.59358C23.431 8.95739 22.5462 8.62058 21.9404 8.93127C21.6406 9.08502 21.4646 9.27758 21.3118 9.61908L21.1885 9.89458L20.9067 9.33345C20.4579 8.43989 20.3197 7.76027 20.4578 7.12483C20.552 6.6912 20.8939 6.09833 21.2711 5.71464C21.9156 5.05889 22.7884 4.73077 23.8961 4.7277C24.8336 4.72508 25.6535 4.92777 26.5836 5.39208C29.4606 6.82833 31.1729 10.0218 31.0314 13.6873C30.9739 15.1778 30.7474 16.175 30.1667 17.4933C29.8241 18.2712 29.8214 18.3866 30.1412 18.5961C30.3989 18.765 30.6109 18.6506 30.848 18.2148C31.1798 17.6049 31.5312 16.6395 31.6996 15.8748C32.5775 11.8886 31.3907 7.91764 28.6378 5.63033C26.6651 3.9912 24.2229 3.3822 22.246 4.03639C20.4586 4.62783 19.2651 6.38027 19.4992 8.06945C19.5872 8.70508 19.7949 9.2362 20.4972 10.6227C20.9326 11.482 21.0908 11.8513 21.0361 11.88C20.9934 11.9023 20.7599 11.9381 20.5171 11.9596C20.2743 11.981 19.9113 12.0551 19.7104 12.1242C19.5096 12.1933 19.3215 12.2498 19.2925 12.2498C19.2636 12.2498 19.2398 9.73583 19.2398 6.6632V1.07658L19.0652 0.74239C18.8046 0.243515 18.4779 0.0380773 17.9077 0.0145773C17.5793 0.00101478 17.4024 0.0245773 17.2496 0.102265ZM18.1749 1.07414C18.3012 1.20976 18.3023 1.25845 18.2997 7.02727L18.2972 12.8436L17.831 13.3327L17.3648 13.8218V7.54427C17.3648 1.28802 17.3652 1.26614 17.4944 1.10201C17.6617 0.889265 17.9901 0.875827 18.1749 1.07414ZM9.82168 10.0126C9.88393 10.1399 9.9665 10.4948 10.0052 10.8013C10.0657 11.281 10.0613 11.3966 9.97356 11.6323C9.53718 12.8037 9.55575 14.0327 10.0268 15.1601C10.1459 15.4453 10.1216 16.0781 9.98293 16.3001C9.778 16.6282 9.32575 16.3738 9.17843 15.8475C8.9995 15.2085 8.63731 15.1448 7.69256 15.5865C7.35 15.7466 7.02581 15.8607 6.97212 15.8401C6.73544 15.7493 6.803 15.6056 7.33162 15.0758C7.90294 14.5032 8.17818 14.0517 8.17593 13.6907C8.17306 13.2254 7.91793 12.8869 7.022 12.1596C6.855 12.0241 6.75244 11.9019 6.79412 11.888C6.83575 11.8741 7.12106 11.909 7.42818 11.9654C8.57944 12.177 8.96719 11.8335 9.08293 10.4998C9.13381 9.91283 9.23637 9.73533 9.50931 9.76177C9.66856 9.7772 9.73125 9.82752 9.82168 10.0126ZM22.7652 9.89045C22.8152 9.96783 22.8744 10.242 22.8967 10.4998C22.9571 11.1956 23.0824 11.5865 23.3053 11.774C23.6199 12.0387 23.9101 12.0833 24.5514 11.9654C24.8586 11.909 25.1439 11.8741 25.1855 11.888C25.2272 11.9019 25.1246 12.0241 24.9576 12.1596C24.0617 12.8869 23.8066 13.2254 23.8037 13.6907C23.8014 14.0517 24.0767 14.5032 24.648 15.0758C25.1766 15.6056 25.2442 15.7493 25.0075 15.8401C24.9538 15.8607 24.6296 15.7466 24.2871 15.5865C23.3423 15.1448 22.9801 15.2085 22.8012 15.8475C22.6539 16.3738 22.2016 16.6282 21.9967 16.3001C21.858 16.0781 21.8337 15.4453 21.9528 15.1601C22.4202 14.0415 22.4401 12.7981 22.0091 11.6401C21.935 11.4411 21.9207 11.2683 21.9526 10.9526C22.0387 10.0962 22.1935 9.74983 22.4898 9.74983C22.6127 9.74983 22.7048 9.79683 22.7652 9.89045ZM11.7086 12.9476C12.8762 13.191 13.9477 14.2094 14.4003 15.506L14.5836 16.0311L14.6007 23.338L14.6178 30.6448L14.4804 30.7911C14.3036 30.9793 13.9911 30.9864 13.8276 30.8058C13.7124 30.6785 13.7075 30.4414 13.6761 23.4151C13.6411 15.5815 13.6614 16.0217 13.3008 15.3123C12.8476 14.4207 12.0284 13.8638 11.0339 13.7709C10.6444 13.7345 10.6187 13.7223 10.5823 13.5566C10.5611 13.46 10.5631 13.252 10.5867 13.0944L10.6297 12.8078L11.0129 12.8451C11.2236 12.8656 11.5367 12.9118 11.7086 12.9476Z" fill="#334B69"/>
</svg>
