<svg width="33" height="32" viewBox="0 0 33 32" fill="none" xmlns="http://www.w3.org/2000/svg">
<path fill-rule="evenodd" clip-rule="evenodd" d="M17.8062 0.0195676C17.1432 0.104334 16.5225 0.568859 16.2225 1.20467L16.0599 1.54951L16.042 3.8942L16.0241 6.2389L15.4464 6.19764C13.3248 6.04598 11.2502 6.09964 11.0152 6.31225C10.8232 6.48605 10.8394 6.87584 11.0442 7.01001C11.1826 7.10073 11.3544 7.10769 12.5019 7.06932C13.9142 7.02205 15.1504 7.08725 16.655 7.28839C18.2423 7.50055 19.6717 7.56557 20.8819 7.48068C22.1867 7.38908 22.7537 7.31184 25.0883 6.9075C27.5658 6.47846 28.6602 6.34492 29.6519 6.35069C30.6884 6.3567 30.9423 6.42429 31.05 6.72254C31.2188 7.19001 31.1354 7.71003 30.7635 8.50892C30.2977 9.50969 29.427 10.5722 27.4586 12.5414C25.9531 14.0477 25.8953 14.1258 26.0588 14.4314C26.1434 14.5894 26.4312 14.6808 26.6247 14.6109C26.7107 14.5799 27.4449 13.8855 28.2561 13.0678C30.206 11.1025 31.0286 10.0919 31.5707 8.99595C31.9587 8.21148 32.0445 7.89154 32.0462 7.22362C32.0476 6.68561 32.0295 6.59163 31.8596 6.25181C31.5379 5.60835 31.2003 5.46364 29.9226 5.42164C28.7741 5.38383 28.0585 5.46201 25.2137 5.936C23.9033 6.15438 22.5914 6.36598 22.2983 6.4063C21.691 6.48975 20.2843 6.5873 20.2136 6.55081C20.1877 6.53746 20.1665 5.42891 20.1665 4.08737C20.1665 1.2606 20.1585 1.21138 19.5986 0.636635C19.1191 0.144335 18.4994 -0.0690238 17.8062 0.0195676ZM18.7064 1.10103C18.8171 1.1584 18.9794 1.32762 19.0669 1.47697L19.2261 1.74864V4.17107V6.59351L19.0537 6.56674C18.9589 6.55201 18.5991 6.52442 18.2543 6.50542C17.9094 6.48642 17.4792 6.45294 17.2981 6.431L16.969 6.39106V4.10938C16.969 1.58255 16.9708 1.56932 17.3683 1.22028C17.5817 1.03295 17.6682 0.994386 18.0035 0.937457C18.1749 0.908365 18.4648 0.975765 18.7064 1.10103ZM8.53042 6.53332C6.49482 6.94117 4.48939 8.07242 3.34698 9.4574C1.90989 11.1994 1.07144 13.1954 0.611302 15.9699C0.47876 16.7689 0.381641 17.7056 0.409792 17.9135C0.455248 18.2493 0.930243 18.3999 1.17426 18.1558C1.27169 18.0584 1.31753 17.8614 1.39188 17.2206C1.64926 15.0013 2.03121 13.5932 2.80264 12.02C3.95075 9.67841 5.75606 8.20082 8.23536 7.57341C8.57324 7.48795 8.98999 7.3983 9.16153 7.37428C9.74506 7.29246 9.99396 6.83151 9.6238 6.51827C9.46467 6.38366 9.2636 6.38642 8.53042 6.53332ZM20.6727 11.4642C20.5108 11.67 20.5091 11.6329 20.713 12.3563C20.865 12.8957 20.8832 13.0646 20.8829 13.9322C20.8826 15.021 20.8005 15.5204 20.435 16.6579C20.0334 17.9078 19.36 19.2378 18.4343 20.6095C17.8295 21.5058 17.8323 21.5028 17.2825 21.8732C15.2053 23.2725 12.2589 24.7339 10.396 25.2888C8.48452 25.8581 7.79868 26.3301 5.20765 28.8591C3.43601 30.5883 2.76922 31.0467 2.02394 31.048C1.68148 31.0486 1.63966 31.0323 1.41866 30.8112C1.16925 30.5618 1.07257 30.3058 0.975574 29.6379C0.885728 29.0191 0.909679 28.2316 1.08542 26.0271C1.2305 24.207 1.25107 23.6246 1.24197 21.5831C1.23627 20.291 1.21558 19.1833 1.19595 19.1216C1.17639 19.0599 1.08028 18.9679 0.982345 18.9173C0.746164 18.7952 0.455185 18.8922 0.358631 19.1253C0.310605 19.2414 0.292799 19.9934 0.302078 21.5194C0.313865 23.4545 0.292799 24.0426 0.140131 26.0328C-0.102132 29.1912 -0.0455786 30.1714 0.430295 31.0643C1.00097 32.135 2.33441 32.3068 3.62636 31.4762C4.19295 31.1119 4.55215 30.7962 5.98447 29.4033C7.3339 28.0911 8.25599 27.3048 8.91526 26.9043C9.13658 26.7698 9.33226 26.6598 9.35012 26.6598C9.47376 26.6598 9.22962 27.7879 9.00416 28.2586C8.90504 28.4655 8.68309 28.8268 8.51092 29.0616C8.0257 29.7233 8.01812 30.2855 8.48734 30.8049C9.08648 31.4681 9.94055 31.3792 10.5614 30.5892C11.5078 29.385 11.8879 28.2985 11.9242 26.6933C11.9432 25.8573 11.9578 25.7502 12.059 25.7103C12.3308 25.6031 12.3242 25.5498 12.3429 28.0235L12.3607 30.3903L12.5267 30.7444C13.0199 31.7964 14.2129 32.2438 15.2636 31.7708C15.7474 31.553 16.1516 31.1265 16.352 30.6224C16.4897 30.2759 16.4951 30.1822 16.5277 27.5791L16.5615 24.8932L16.7796 25.1845C17.0237 25.5105 17.663 26.0938 18.1095 26.3978C18.5907 26.7254 19.4178 27.0987 19.6616 27.0983C20.4304 27.0971 20.9995 26.5506 20.9995 25.8134C20.9995 25.2292 20.7051 24.8487 19.9874 24.5055C19.522 24.2829 19.0301 23.89 18.7347 23.5049C18.4841 23.1783 18.1118 22.483 18.1637 22.4389C18.179 22.4258 18.5063 22.1879 18.8908 21.9102C20.1207 21.0221 20.8021 20.4452 21.7653 19.4764C25.6081 15.6113 25.6839 15.5311 25.6839 15.3278C25.6839 15.1006 25.4427 14.8727 25.2022 14.8727C25.0027 14.8727 23.4694 16.3183 22.1242 17.7747C21.5759 18.3683 20.898 19.0606 20.6178 19.3131L20.1084 19.7722L20.571 18.8115C21.8283 16.2001 22.1583 13.9314 21.57 11.9429C21.4078 11.3948 21.3215 11.2989 20.9903 11.2989C20.8622 11.2989 20.7614 11.3514 20.6727 11.4642ZM17.5356 23.3945C17.9723 24.2139 18.6623 24.883 19.5431 25.3412C20.0349 25.597 20.1252 25.7098 20.0345 25.9549C19.9173 26.2718 19.5044 26.1747 18.6678 25.6334C17.9418 25.1638 17.2546 24.3967 16.8539 23.6088L16.7212 23.3478L16.9862 23.188C17.1319 23.1002 17.2706 23.0271 17.2944 23.0258C17.3183 23.0245 17.4268 23.1903 17.5356 23.3945ZM15.513 27.2134L15.4956 30.3374L15.3199 30.5677C15.1112 30.8413 14.8734 30.9751 14.5092 31.0239C14.1169 31.0763 13.6138 30.8016 13.4155 30.4266C13.27 30.1515 13.2698 30.1481 13.2728 27.6688L13.2757 25.1864L14.3543 24.6428C14.9475 24.3438 15.4548 24.0969 15.4816 24.0942C15.5084 24.0915 15.5225 25.4951 15.513 27.2134ZM10.9942 26.8322C10.9489 27.7168 10.748 28.4763 10.3765 29.1677C10.1438 29.6006 9.7601 30.1374 9.60417 30.2483C9.46668 30.346 9.25746 30.2922 9.15269 30.1323C9.03093 29.9465 9.01112 29.9947 9.51533 29.2503C10.0104 28.5192 10.3231 27.5176 10.3231 26.6623V26.2997L10.6522 26.2027C10.8332 26.1493 10.9927 26.1034 11.0067 26.1006C11.0205 26.0978 11.0149 26.4271 10.9942 26.8322Z" fill="#334B69"/>
</svg>
