<svg width="32" height="29" viewBox="0 0 32 29" fill="none" xmlns="http://www.w3.org/2000/svg">
<path fill-rule="evenodd" clip-rule="evenodd" d="M9.52816 0.0707035C8.48159 0.405551 7.76644 1.22025 7.61799 2.24668C7.58667 2.46353 7.5604 3.26704 7.55972 4.03228L7.55847 5.42357H4.9978C3.3387 5.42357 2.32052 5.44834 2.1058 5.49392C1.06836 5.71421 0.256912 6.54198 0.0575039 7.58336C0.00554155 7.85492 -0.0087778 10.4668 0.00485372 17.2105C0.022237 25.7823 0.031554 26.4846 0.130914 26.7324C0.443438 27.5119 1.10294 28.1408 1.84955 28.3714C2.24936 28.4949 2.41719 28.4971 11.3168 28.4971C20.2937 28.4971 20.3782 28.496 20.5022 28.372C20.6707 28.2035 20.6674 27.865 20.4956 27.7095C20.3678 27.5939 20.1014 27.5895 11.2568 27.5592L2.14963 27.5279L1.88738 27.3877C1.50707 27.1844 1.20149 26.8411 1.05686 26.4544C0.933173 26.1239 0.930296 25.9856 0.930296 20.3346V14.5529H2.52481H4.11932V15.1759C4.11932 15.6599 4.14927 15.8788 4.25351 16.1576C4.4239 16.6129 4.83979 17.0621 5.29957 17.2876C5.59703 17.4334 5.72853 17.4595 6.15154 17.457C6.79554 17.4531 7.18729 17.288 7.60824 16.8429C8.04151 16.3848 8.18376 15.9727 8.18376 15.1759V14.5529H9.55648C11.0539 14.5529 11.2015 14.5254 11.3058 14.226C11.3787 14.0172 11.2666 13.7222 11.0886 13.6538C11.0329 13.6325 10.3566 13.615 9.58556 13.615H8.18376V12.7514C8.18376 11.5135 8.36329 11.614 6.15154 11.614C3.9398 11.614 4.11932 11.5135 4.11932 12.7514V13.615H2.52481H0.930296V10.75C0.930296 7.4004 0.929296 7.40771 1.45292 6.88415C2.02526 6.31181 0.640908 6.36152 16 6.36152C31.3591 6.36152 29.9747 6.31181 30.5471 6.88415C31.0707 7.40771 31.0697 7.4004 31.0697 10.75V13.615H29.4752H27.8807V12.7514C27.8807 11.5135 28.0602 11.614 25.8485 11.614C23.6367 11.614 23.8162 11.5135 23.8162 12.7514V13.615H18.1994H12.5827L12.4467 13.7597C12.2543 13.9645 12.2671 14.2594 12.4755 14.4233C12.6394 14.5523 12.6697 14.5529 18.2283 14.5529H23.8162V15.1759C23.8162 15.9727 23.9585 16.3848 24.3918 16.8429C24.8149 17.2903 25.2051 17.454 25.8485 17.454C26.4918 17.454 26.882 17.2903 27.3052 16.8429C27.7384 16.3848 27.8807 15.9727 27.8807 15.1759V14.5529H29.4752H31.0697V20.3346C31.0697 25.9856 31.0668 26.1239 30.9431 26.4544C30.7985 26.8411 30.4929 27.1844 30.1126 27.3877C29.8507 27.5277 29.8448 27.528 25.8706 27.5592C22.0687 27.589 21.8849 27.5957 21.7593 27.7095C21.5875 27.865 21.5842 28.2035 21.7528 28.372C21.8752 28.4945 21.9612 28.4971 25.8106 28.4971C29.5737 28.4971 29.761 28.4917 30.1505 28.3714C30.8971 28.1408 31.5566 27.5119 31.8691 26.7324C31.9684 26.4846 31.9778 25.7823 31.9951 17.2105C32.0088 10.4668 31.9945 7.85492 31.9425 7.58336C31.7431 6.54198 30.9316 5.71421 29.8942 5.49392C29.6795 5.44834 28.6613 5.42357 27.0022 5.42357H24.4415L24.4403 4.03228C24.4396 3.26704 24.4133 2.46353 24.382 2.24668C24.2541 1.36245 23.7111 0.637412 22.8783 0.239097L22.4093 0.0147392L16.0938 0.00267088C11.1077 -0.00683366 9.72563 0.00748576 9.52816 0.0707035ZM22.4011 1.0488C22.6275 1.13346 22.8289 1.2709 23.0023 1.45899C23.4517 1.94654 23.4637 2.00438 23.4913 3.81343L23.5159 5.42357H22.6656H21.8153V4.01253C21.8153 3.1805 21.7893 2.55301 21.752 2.48329C21.7172 2.41826 21.5835 2.33585 21.455 2.30014C21.1309 2.21016 19.2137 2.22242 18.9402 2.31621C18.694 2.40075 18.5835 2.61842 18.6508 2.88642C18.7204 3.16387 18.9957 3.23503 19.9999 3.23503H20.8773V4.3293V5.42357H16H11.1227V4.33099V3.23841L14.2475 3.22108C17.3702 3.20376 17.3723 3.2037 17.5095 3.06657C17.6892 2.88674 17.6892 2.58284 17.5095 2.40301C17.3723 2.26588 17.3713 2.26582 14.1693 2.24674C12.4077 2.23618 10.8447 2.24524 10.6961 2.26688C10.1873 2.34073 10.1847 2.34929 10.1847 3.98539V5.42357H9.33444H8.48409L8.50598 3.81343C8.52655 2.29789 8.53606 2.18665 8.66737 1.92002C8.85571 1.53772 9.22195 1.1933 9.59519 1.04761C9.89158 0.931865 10.1354 0.927175 15.982 0.924362C21.948 0.921485 22.067 0.923799 22.4011 1.0488ZM7.23312 14.1984L7.21455 15.8448L7.03421 16.0811C6.83543 16.3416 6.44193 16.5511 6.15154 16.5511C5.86115 16.5511 5.46765 16.3416 5.26887 16.0811L5.08853 15.8448L5.06996 14.1984L5.05145 12.552H6.15154H7.25163L7.23312 14.1984ZM26.93 14.1984L26.9115 15.8448L26.7311 16.0811C26.5323 16.3416 26.1388 16.5511 25.8485 16.5511C25.5581 16.5511 25.1646 16.3416 24.9658 16.0811L24.7854 15.8448L24.7669 14.1984L24.7484 12.552H25.8485H26.9485L26.93 14.1984ZM14.8196 16.3039C14.544 16.369 14.3106 16.547 14.1554 16.8106C14.0504 16.9889 14.0269 17.1607 14.0087 17.8827L13.987 18.7424H13.1934C12.4946 18.7424 12.3665 18.7593 12.1213 18.8831C11.9681 18.9605 11.7777 19.1217 11.6983 19.2412C11.5569 19.4538 11.5541 19.4879 11.5727 20.7845C11.5903 22.0184 11.6008 22.1225 11.7233 22.2866C11.989 22.6427 12.1979 22.7091 13.1332 22.7348L13.9874 22.7582L14.0102 23.6111C14.0357 24.5613 14.0963 24.7528 14.4514 25.0061C14.65 25.1478 14.6924 25.1518 16 25.1518C17.3076 25.1518 17.35 25.1478 17.5486 25.0061C17.9037 24.7528 17.9643 24.5613 17.9898 23.6111L18.0127 22.7582L18.8668 22.7348C19.8021 22.7091 20.011 22.6427 20.2767 22.2866C20.3992 22.1225 20.4097 22.0184 20.4273 20.7845C20.4459 19.4879 20.4431 19.4538 20.3017 19.2412C20.2223 19.1217 20.0319 18.9605 19.8787 18.8831C19.6335 18.7593 19.5054 18.7424 18.8066 18.7424H18.013L17.9913 17.8827C17.9731 17.1607 17.9496 16.9889 17.8446 16.8106C17.6837 16.5374 17.4594 16.3724 17.152 16.3011C16.8547 16.2322 15.1146 16.2342 14.8196 16.3039ZM17.063 18.336C17.063 19.3469 17.0725 19.4398 17.1881 19.5553C17.3036 19.6709 17.3965 19.6804 18.4074 19.6804H19.5017V20.7121V21.7439L18.5794 21.7443C17.6608 21.7446 17.2369 21.8052 17.1434 21.9494C17.1164 21.9911 17.0802 22.5177 17.063 23.1195L17.0317 24.2138H16H14.9683L14.937 23.1195C14.9198 22.5177 14.8836 21.9911 14.8566 21.9494C14.7631 21.8052 14.3392 21.7446 13.4206 21.7443L12.4983 21.7439V20.7121V19.6804H13.5926C14.6035 19.6804 14.6964 19.6709 14.8119 19.5553C14.9275 19.4398 14.937 19.3469 14.937 18.336V17.2417H16H17.063V18.336Z" fill="#334B69"/>
</svg>
