<svg width="25" height="32" viewBox="0 0 25 32" fill="none" xmlns="http://www.w3.org/2000/svg">
<path fill-rule="evenodd" clip-rule="evenodd" d="M9.40353 0.0723772C8.85026 0.248089 8.24777 0.861768 8.01228 1.48939C7.8053 2.04098 7.93262 1.98514 6.88153 1.98514C5.81138 1.98514 5.74053 2.01384 5.66199 2.47876L5.6186 2.73551H3.06965C0.443032 2.73551 0.186655 2.75702 0.0630318 2.98807C-0.00443913 3.1142 -0.0265127 24.2872 0.0406456 24.4622C0.0620312 24.5179 0.157954 24.604 0.253876 24.6536C0.478925 24.77 0.768756 24.6782 0.868618 24.459C0.920894 24.3443 0.939778 21.5723 0.939778 14.0194V3.736H3.28469H5.6296V4.26752V4.79903H4.26361C2.95465 4.79903 2.89262 4.80453 2.7785 4.93059C2.66751 5.05309 2.65813 5.1971 2.64118 7.03745C2.62861 8.39944 2.64487 9.06564 2.69346 9.18295C2.83084 9.51468 3.33484 9.55395 3.49973 9.24586C3.54182 9.16726 3.56608 8.5028 3.56608 7.42946V5.73699H4.58946H5.61278L5.64455 6.18071C5.66912 6.52401 5.70676 6.65482 5.811 6.75913L5.94576 6.89382H12.3204H18.6951L18.8298 6.75913C18.9341 6.65482 18.9717 6.52401 18.9963 6.18071L19.028 5.73699H20.0514H21.0747V10.9827C21.0747 15.9874 21.0801 16.2349 21.1901 16.3708C21.3574 16.5774 21.6764 16.5637 21.8673 16.3418L22.0147 16.1704L21.9981 10.6163C21.982 5.25488 21.9773 5.05766 21.8623 4.93066C21.7481 4.80447 21.6864 4.79903 20.3772 4.79903H19.0112V4.26752V3.736H21.3561H23.701V17.399V31.062H12.3224H0.943781L0.926147 28.5048C0.909513 26.0915 0.901822 25.9401 0.789392 25.8159C0.626498 25.636 0.313218 25.6424 0.137756 25.8291C0.00225165 25.9733 0.00181396 25.9835 0.00181396 28.8334V31.693L0.155328 31.8465L0.308778 32H12.3204H24.3321L24.4855 31.8465L24.639 31.693V17.407C24.639 9.54963 24.6216 3.07561 24.6004 3.02027C24.5087 2.78134 24.3657 2.76759 21.6376 2.73551C19.3346 2.70843 18.9792 2.69174 18.9739 2.61045C18.9705 2.55886 18.9635 2.45331 18.9582 2.37596C18.953 2.29854 18.8924 2.17898 18.8236 2.1102C18.7097 1.99627 18.6152 1.98514 17.7593 1.98514H16.82L16.754 1.81318C16.4323 0.974636 16.0061 0.429304 15.4638 0.162297C15.1658 0.0155365 15.1632 0.0154115 12.4142 0.00271767C10.2822 -0.00716222 9.60444 0.00853305 9.40353 0.0723772ZM15.0686 1.01428C15.4572 1.21526 15.8847 1.90822 15.8847 2.33725C15.8847 2.57862 16.0182 2.78878 16.2153 2.85744C16.3188 2.89359 16.7652 2.9231 17.2071 2.9231H18.0107V4.42384V5.92459H12.3204H6.6301V4.42384V2.9231H7.43368C7.87565 2.9231 8.322 2.89359 8.42555 2.85744C8.62258 2.78878 8.75615 2.57862 8.75615 2.33725C8.75615 1.91748 9.13696 1.28141 9.53278 1.03998C9.713 0.930114 9.89159 0.922548 12.3079 0.922361C14.461 0.922173 14.92 0.937431 15.0686 1.01428ZM10.3499 1.6733C10.1938 1.84582 10.2048 2.14841 10.3733 2.31693C10.5082 2.45187 10.5404 2.45412 12.3204 2.45412C14.1004 2.45412 14.1326 2.45187 14.2676 2.31693C14.436 2.14841 14.447 1.84582 14.2909 1.6733C14.1816 1.55255 14.1015 1.54742 12.3204 1.54742C10.5393 1.54742 10.4592 1.55255 10.3499 1.6733ZM11.1885 8.38018C10.8653 8.5961 10.7573 8.86961 10.7573 9.47322L10.7571 9.9891L10.3351 9.9906C9.74714 9.99266 9.45531 10.074 9.23063 10.2985L9.03754 10.4914L9.01984 11.5065C9.00352 12.4394 9.01253 12.5384 9.13065 12.7286C9.30949 13.0167 9.589 13.1156 10.2236 13.1156H10.7571V13.6638C10.7571 14.3023 10.8663 14.5746 11.2019 14.7727C11.3875 14.8823 11.526 14.8978 12.3204 14.8978C13.1148 14.8978 13.2533 14.8823 13.4389 14.7727C13.7745 14.5746 13.8837 14.3023 13.8837 13.6638V13.1156H14.4172C15.0518 13.1156 15.3313 13.0167 15.5102 12.7286C15.6283 12.5384 15.6373 12.4394 15.621 11.5065L15.6033 10.4914L15.4102 10.2985C15.1855 10.074 14.8937 9.99266 14.3058 9.9906L13.8837 9.9891L13.8836 9.47322C13.8835 8.86961 13.7756 8.5961 13.4523 8.38018C13.2555 8.24868 13.1722 8.23823 12.3204 8.23823C11.4686 8.23823 11.3853 8.24868 11.1885 8.38018ZM12.9457 9.91475C12.9457 10.9278 12.945 10.9271 13.9487 10.9271H14.6966V11.5524V12.1777H13.9844C12.9863 12.1777 12.9867 12.1773 12.9457 13.1881L12.9145 13.9598H12.3204H11.7264L11.6951 13.1881C11.6541 12.1773 11.6545 12.1777 10.6564 12.1777H9.94424V11.5524V10.9271H10.6922C11.6959 10.9271 11.6951 10.9278 11.6951 9.91475V9.1762H12.3204H12.9457V9.91475ZM2.80702 10.5464L2.65938 10.6659L2.64287 19.7228C2.6313 26.1066 2.64637 28.828 2.69402 28.9435C2.73123 29.0336 2.8314 29.1391 2.91669 29.178C3.13805 29.2788 21.5028 29.2788 21.7241 29.178C21.8094 29.1391 21.9097 29.0336 21.947 28.9435C21.9945 28.8289 22.0098 27.1187 21.9981 23.2557L21.9814 17.7319L21.8338 17.6123C21.6339 17.4505 21.3766 17.4609 21.2107 17.6375L21.0747 17.7823V23.0464V28.3107H12.3204H3.56608V19.5047V10.6988L3.42138 10.5628C3.24273 10.395 3.00192 10.3885 2.80702 10.5464ZM5.81719 16.6174C5.64867 16.7859 5.65199 17.1244 5.82376 17.2799C5.95138 17.3954 6.14898 17.399 12.3204 17.399C18.4918 17.399 18.6894 17.3954 18.8171 17.2799C18.9888 17.1244 18.9922 16.7859 18.8236 16.6174C18.7002 16.4939 18.6152 16.4923 12.3204 16.4923C6.02561 16.4923 5.94063 16.4939 5.81719 16.6174ZM5.81719 19.3687C5.64867 19.5373 5.65199 19.8758 5.82376 20.0313C5.95138 20.1468 6.14898 20.1504 12.3204 20.1504C18.4918 20.1504 18.6894 20.1468 18.8171 20.0313C18.9888 19.8758 18.9922 19.5373 18.8236 19.3687C18.7002 19.2453 18.6152 19.2437 12.3204 19.2437C6.02561 19.2437 5.94063 19.2453 5.81719 19.3687ZM5.81719 22.1201C5.64867 22.2886 5.65199 22.6272 5.82376 22.7826C5.95138 22.8981 6.14898 22.9017 12.3204 22.9017C18.4918 22.9017 18.6894 22.8981 18.8171 22.7826C18.9888 22.6272 18.9922 22.2886 18.8236 22.1201C18.7002 21.9967 18.6152 21.995 12.3204 21.995C6.02561 21.995 5.94063 21.9967 5.81719 22.1201ZM5.75923 24.9112C5.54844 25.1791 5.59702 25.4444 5.88423 25.5929C6.03393 25.6703 6.66243 25.6844 9.9765 25.6844C12.8333 25.6844 13.9288 25.6647 14.0285 25.6116C14.34 25.4458 14.4023 25.1787 14.1918 24.9112L14.0622 24.7464H9.9755H5.88879L5.75923 24.9112Z" fill="#334B69"/>
</svg>
