<svg width="31" height="32" viewBox="0 0 31 32" fill="none" xmlns="http://www.w3.org/2000/svg">
<path fill-rule="evenodd" clip-rule="evenodd" d="M14.9529 0.0339356C14.5828 0.0958315 13.995 0.32852 13.657 0.547002C13.2343 0.820245 12.7254 1.36742 12.4875 1.80445C12.2786 2.18821 12.0737 2.97922 12.0751 3.39597C12.0786 4.44257 12.6107 5.50882 13.4527 6.15669C13.7707 6.40146 13.8303 6.47699 13.8143 6.61543C13.7966 6.76776 13.7749 6.77959 13.5447 6.76144C13.0198 6.72007 12.7749 6.52919 12.2633 5.76291C11.0261 3.90991 9.8719 3.0112 8.45906 2.80104C7.83353 2.70798 7.10142 2.77845 6.44141 2.99518C5.77257 3.21485 4.64861 3.77898 4.5354 3.95184C4.35096 4.23328 4.57032 4.62199 4.91366 4.62199C4.98745 4.62199 5.31207 4.49714 5.63507 4.3445C6.8937 3.74988 7.73033 3.58328 8.52234 3.76972C9.62019 4.02813 10.4532 4.73715 11.4858 6.292C11.7414 6.67695 12.0662 7.09095 12.2076 7.21192C12.4836 7.44824 13.0984 7.68863 13.4266 7.68863C13.8092 7.68863 13.8264 7.71441 13.8264 8.289V8.81339L13.5917 8.96829C13.0314 9.3381 12.1528 9.44337 11.4232 9.22808C10.9537 9.08958 10.809 9.12882 10.5792 9.45714C10.1403 10.0843 9.74749 10.3261 9.16795 10.3261C8.70921 10.3261 8.36694 10.2253 7.82602 9.93078C7.31314 9.65152 7.29606 9.65121 6.59787 9.90462C6.05958 10.0999 5.53525 10.1144 5.04928 9.94717C4.62408 9.80091 4.43132 9.68269 4.05025 9.3346C3.71686 9.03006 3.70459 9.02831 2.83736 9.15899C2.11132 9.26845 1.49812 9.27883 1.16867 9.18734C0.875654 9.10598 0.866516 8.988 1.11335 8.47093C1.4652 7.73369 2.26484 6.77246 3.18483 5.98064C3.92883 5.34021 3.94085 5.32538 3.92214 5.06628C3.90255 4.79529 3.64964 4.58657 3.41289 4.64597C3.19822 4.69985 2.25852 5.48898 1.72211 6.06594C0.34087 7.55132 -0.294048 8.94482 0.129961 9.5604C0.210758 9.67768 0.350821 9.82845 0.441193 9.89535C0.819077 10.1752 1.82612 10.2628 2.8664 10.1063L3.39067 10.0274L3.64526 10.2401C3.96407 10.5065 4.49159 10.7752 4.96736 10.9135C5.45545 11.0554 6.325 11.015 6.85427 10.8259L7.23585 10.6895L7.60529 10.8723C8.16817 11.1507 8.6092 11.2603 9.17058 11.2613C9.93849 11.2626 10.4858 11.0166 11.0147 10.4323L11.2384 10.1852L11.8283 10.2443C12.4965 10.3112 13.0331 10.2562 13.4974 10.0732L13.8083 9.95061L13.8486 10.519C13.8708 10.8316 13.8889 11.3365 13.8889 11.6411C13.8889 12.1113 13.9078 12.2135 14.0141 12.3199C14.2157 12.5215 14.4834 12.5082 14.6826 12.2869L14.8191 12.1352L14.7824 9.48655L14.7457 6.83792H15.5064H16.2672V7.66848C16.2672 9.07087 16.134 17.2928 16.111 17.3159C16.0601 17.3668 15.3219 17.4019 15.1155 17.3632L14.8903 17.3209L14.8901 16.7136C14.89 16.3795 14.8713 15.5313 14.8485 14.8286C14.8122 13.7064 14.7932 13.5371 14.6923 13.4361C14.5132 13.257 14.1766 13.2852 14.0132 13.4931C13.8792 13.6633 13.8784 13.6822 13.9234 15.4332C13.9672 17.1407 13.9647 17.2014 13.8506 17.2013C13.6558 17.2011 11.7025 16.9024 11.1978 16.7957C10.0813 16.5595 9.26039 16.2256 9.00774 15.9051L8.8703 15.7307L9.61162 15.6888C10.5404 15.6362 11.178 15.4712 11.9801 15.0758C13.405 14.3734 13.8921 13.6714 13.5136 12.866C13.3407 12.4984 13.0665 12.2549 12.5093 11.9743C11.7101 11.5717 10.86 11.4749 9.75838 11.6608C7.208 12.0912 6.00888 13.3221 6.00438 15.5142C6.00175 16.8313 6.62077 17.8575 7.85782 18.5871C8.38747 18.8994 9.31753 19.2677 9.89919 19.3954C10.0971 19.4388 10.2591 19.4947 10.2591 19.5194C10.2591 19.5442 10.1831 19.7299 10.0903 19.9319C9.95921 20.2174 9.91546 20.4235 9.8945 20.8555C9.84412 21.8905 10.1327 22.6409 10.8619 23.3715L11.3083 23.8187L11.0904 24.093C10.7888 24.4729 10.6499 24.7636 10.5339 25.2579C10.2587 26.4305 10.7329 27.5848 11.9013 28.5867L12.4428 29.051L12.2921 29.2302C12.0192 29.5544 11.9477 30.0079 12.1086 30.3931C12.386 31.0573 13.0467 31.3111 13.8604 31.0662C14.0278 31.0158 14.1661 30.9806 14.1676 30.988C14.1693 30.9953 14.2438 31.1421 14.3332 31.3142C14.5727 31.775 14.9655 32.0035 15.5115 32C15.7679 31.9983 15.9952 31.9587 16.1145 31.8949C16.3701 31.7584 16.678 31.4371 16.773 31.2078C16.8382 31.0504 16.8751 31.0276 17.0123 31.0599C17.4184 31.1556 17.9609 31.1715 18.1583 31.0936C18.5945 30.9216 18.954 30.4215 18.9569 29.9823C18.9585 29.735 18.8111 29.3628 18.639 29.1796L18.5135 29.046L18.9229 28.7202C20.2257 27.6836 20.7501 26.4516 20.4242 25.1937C20.3048 24.7329 20.1677 24.4564 19.8777 24.091L19.6583 23.8147L20.0797 23.4026C20.7595 22.7376 21.081 22.0318 21.0959 21.1713C21.1059 20.593 21.0414 20.2365 20.8606 19.8718C20.7781 19.7055 20.7106 19.5467 20.7106 19.5189C20.7106 19.4912 20.8163 19.4492 20.9453 19.4256C21.0744 19.4021 21.4836 19.2826 21.8547 19.1601C22.7026 18.8801 22.8844 18.6972 22.7052 18.3039C22.5731 18.0139 22.3701 17.9921 21.755 18.2019C20.5846 18.6009 19.6696 18.7786 17.0807 19.1096C14.2394 19.473 13.2112 19.6947 12.4808 20.1013C11.9919 20.3735 11.8237 20.6194 11.8237 21.0617C11.8237 21.5056 11.9326 21.7459 12.2776 22.0629C12.7825 22.5269 13.3678 22.7452 15.1093 23.1194C17.7519 23.6871 18.3453 23.9029 18.9688 24.5234C19.3163 24.8692 19.404 25.0002 19.4928 25.3057C19.7 26.0182 19.4989 26.788 18.9349 27.4413C18.442 28.0123 17.3243 28.7302 16.059 29.2886C15.2502 29.6455 13.4618 30.2286 13.2436 30.2065C13.0355 30.1856 12.9099 30.0386 12.969 29.8849C12.9902 29.8295 13.514 29.5306 14.133 29.2208C15.3548 28.6092 16.8904 27.7331 17.4875 27.307C18.7397 26.4136 18.9208 25.66 18.0442 24.9913C17.6911 24.7221 16.8347 24.4534 15.3597 24.1491C13.2709 23.7183 12.4651 23.4447 11.7597 22.9269C11.1623 22.4883 10.8263 21.8398 10.8238 21.1202C10.8211 20.3514 11.0507 19.9064 11.6701 19.48C12.5777 18.8552 13.6337 18.5941 16.9799 18.1674C21.0348 17.6504 22.4433 17.1755 22.908 16.1688C23.0544 15.8517 23.0622 15.3118 22.9235 15.1001C22.7532 14.8402 22.5969 14.7987 21.6181 14.7538C20.6078 14.7073 20.1629 14.6053 19.4317 14.2523C18.6624 13.8808 18.2252 13.498 18.3003 13.2613C18.3561 13.0856 18.8626 12.7732 19.3221 12.6313C19.9669 12.4321 21.1404 12.5044 22.0562 12.7996C23.4543 13.2502 24.0979 14.2078 24.0149 15.7139C23.9841 16.2723 23.8167 16.6986 23.4557 17.1375C23.1335 17.5291 23.2888 18.015 23.7361 18.015C24.0764 18.015 24.6345 17.2446 24.8666 16.4547C25.0087 15.9709 24.9976 15.0281 24.8428 14.4225C24.5864 13.4202 24.0466 12.7265 23.1675 12.2698C21.9792 11.6524 20.0937 11.3976 19.0772 11.7171C18.3152 11.9566 17.6713 12.4084 17.4643 12.8488C17.2885 13.2228 17.2963 13.4771 17.496 13.8779C17.7058 14.2989 18.1577 14.6609 18.9896 15.0743C19.7913 15.4729 20.4244 15.6355 21.3521 15.6815C21.7565 15.7015 22.0875 15.7366 22.0875 15.7595C22.0875 15.7824 22.0101 15.8748 21.9154 15.9648C21.5642 16.2988 20.8156 16.5803 19.6445 16.8186C18.9285 16.9644 17.1442 17.2232 17.1077 17.1866C17.0641 17.1431 17.1605 10.2654 17.2058 10.1923C17.2358 10.1437 17.3321 10.1431 17.5432 10.1904C17.8916 10.2685 18.6108 10.2836 19.0964 10.2229C19.43 10.1812 19.4462 10.1861 19.5765 10.369C19.7617 10.6291 20.2742 10.9945 20.6589 11.1407C21.2998 11.3842 22.2268 11.2802 23.0515 10.8723L23.4209 10.6895L23.8025 10.8252C24.2624 10.9886 25.0712 11.0472 25.5246 10.95C25.9682 10.8548 26.6931 10.5102 27.0081 10.2448L27.2661 10.0274L27.7904 10.1063C28.8306 10.2628 29.8377 10.1752 30.2156 9.89535C30.7518 9.49832 30.7987 8.94757 30.3718 8.06019C29.5179 6.28536 27.2685 4.28504 25.0603 3.33682C23.8062 2.79835 23.0397 2.65854 22.1484 2.80567C20.7507 3.03642 19.647 3.90509 18.3841 5.76841C17.9684 6.38174 17.8348 6.53263 17.6212 6.62958C17.2704 6.78885 17.2054 6.78065 17.2089 6.57776C17.2113 6.44176 17.2855 6.35314 17.563 6.15531C18.2718 5.64976 18.7675 4.80086 18.9036 3.85909C19 3.19226 18.89 2.53462 18.5738 1.88793C18.325 1.37931 17.6493 0.671983 17.1637 0.41182C16.5573 0.0870697 15.6068 -0.0753993 14.9529 0.0339356ZM16.0994 1.02308C16.6102 1.15614 16.9036 1.32155 17.2589 1.67684C18.2332 2.65121 18.2368 4.22027 17.2668 5.17512C15.8254 6.59397 13.4665 5.85178 13.0671 3.85365C12.9216 3.12573 13.2026 2.23578 13.7512 1.6871C14.3942 1.04405 15.2505 0.801971 16.0994 1.02308ZM24.0424 3.9382C25.5027 4.43844 26.8773 5.33608 28.1582 6.62595C28.929 7.40218 29.7175 8.59172 29.7214 8.98431C29.7242 9.25843 28.9506 9.32946 27.8194 9.15899C27.4782 9.10754 27.1349 9.06548 27.0564 9.06548C26.9746 9.06548 26.7611 9.1991 26.556 9.37853C25.7836 10.0544 24.9765 10.2295 24.0902 9.91325C23.3602 9.65278 23.3357 9.65246 22.8911 9.89836C21.689 10.5634 20.82 10.4677 20.183 9.60014C20.0196 9.37765 19.8313 9.17826 19.7646 9.15704C19.6978 9.13583 19.4539 9.16618 19.2225 9.22439C18.6636 9.36508 17.9507 9.35882 17.5501 9.20961L17.2372 9.09308L17.2196 8.39671L17.2019 7.70033L17.4669 7.65552C18.1589 7.53861 18.5386 7.24365 19.1032 6.38443C19.6598 5.53729 20.0812 5.02523 20.5708 4.6009C21.6267 3.68586 22.7049 3.48002 24.0424 3.9382ZM12.0278 12.7801C12.8561 13.1785 12.8801 13.4222 12.1398 13.9126C11.2727 14.487 10.3489 14.7607 9.27698 14.7607C8.45887 14.7607 8.19014 14.8406 8.04144 15.1282C7.91633 15.37 7.91583 15.825 8.04037 16.1239C8.16692 16.4277 8.52258 16.7892 8.91349 17.0116C9.53795 17.3668 10.2532 17.5708 12.074 17.9131C12.4582 17.9854 12.515 18.0101 12.3869 18.0495C12.3009 18.076 11.9682 18.2333 11.6477 18.3991L11.0649 18.7005L10.5212 18.5751C8.68011 18.1503 7.64559 17.5369 7.18197 16.5952C6.83832 15.8971 6.8606 14.8876 7.23735 14.0919C7.40959 13.7282 7.85863 13.2738 8.23626 13.0811C8.93858 12.7229 9.97536 12.5073 10.8855 12.5303C11.4995 12.5459 11.5756 12.5626 12.0278 12.7801ZM19.798 19.9116C20.0529 20.2458 20.1584 20.5699 20.1584 21.0188C20.1584 21.5433 20.079 21.8375 19.8203 22.2701C19.6067 22.6274 18.8802 23.246 18.7466 23.1843C18.7081 23.1665 18.445 23.0593 18.162 22.9461C17.8789 22.8328 17.6473 22.7261 17.6474 22.7089C17.6474 22.6917 17.8261 22.5978 18.0446 22.5002C18.788 22.1683 19.146 21.7192 19.1595 21.1017C19.1687 20.6787 19.0177 20.4289 18.5822 20.1475L18.2131 19.9089L18.8517 19.8148C19.2029 19.763 19.524 19.7171 19.5653 19.7127C19.6066 19.7084 19.7113 19.7979 19.798 19.9116ZM15.789 20.3079L16.0794 20.3477V21.2383V22.129L15.7821 22.187C15.6108 22.2205 15.3721 22.2224 15.2189 22.1916L14.9529 22.1382V21.2386V20.339L15.125 20.3129C15.4238 20.2676 15.4917 20.2671 15.789 20.3079ZM14.0141 21.2423C14.0141 21.9994 14.0609 21.9677 13.3885 21.6666C12.827 21.4151 12.6264 21.1473 12.8567 20.9561C12.9852 20.8496 13.6993 20.5883 13.8733 20.5843C14.0107 20.5811 14.0141 20.5973 14.0141 21.2423ZM17.6187 20.7329C18.1231 20.916 18.2374 21.0157 18.1845 21.2264C18.1399 21.4042 17.8288 21.6078 17.3467 21.7747L17.0182 21.8885V21.2348C17.0182 20.4811 16.9899 20.5047 17.6187 20.7329ZM12.8719 24.5009C13.1559 24.5965 13.388 24.6901 13.3876 24.7088C13.3871 24.7275 13.2731 24.7974 13.134 24.864C12.6065 25.1168 12.3196 25.616 12.4136 26.1173C12.4743 26.4408 12.993 26.9652 13.7559 27.4741C14.1216 27.7181 14.429 27.939 14.439 27.9649C14.449 27.9908 14.23 28.1302 13.9523 28.2747L13.4475 28.5374L13.2145 28.3971C12.4863 27.9588 11.8382 27.2859 11.5606 26.6798C11.3689 26.2613 11.3666 25.5585 11.5556 25.1386C11.7058 24.8052 12.1845 24.2552 12.2872 24.2982C12.3248 24.314 12.588 24.4052 12.8719 24.5009ZM15.7837 25.1901L16.0199 25.2291L16.0027 26.1942L15.9855 27.1592L15.7536 27.2917C15.5255 27.422 15.5174 27.4223 15.2686 27.3101L15.0155 27.1959V26.2085C15.0155 25.2342 15.0173 25.2206 15.1563 25.1938C15.3856 25.1497 15.5337 25.1488 15.7837 25.1901ZM14.0767 26.0258C14.0767 26.3012 14.0505 26.5265 14.0185 26.5265C13.9865 26.5265 13.8127 26.3908 13.6323 26.2249C13.2629 25.8853 13.266 25.825 13.662 25.6452C14.0698 25.46 14.0767 25.4663 14.0767 26.0258ZM17.4054 25.6891C17.4978 25.7361 17.5924 25.8053 17.6156 25.8427C17.6607 25.9158 17.4089 26.2092 17.1277 26.4113L16.9556 26.535V26.0259C16.9556 25.4622 16.957 25.4611 17.4054 25.6891ZM17.91 29.7667C18.1219 29.9528 18.0035 30.2197 17.7097 30.2181C17.6219 30.2177 17.3812 30.1661 17.1746 30.1035L16.7991 29.9897L17.1746 29.795C17.5607 29.5948 17.7078 29.5891 17.91 29.7667ZM15.7123 30.6044C15.8453 30.6443 15.9542 30.7019 15.9542 30.7324C15.9542 30.8351 15.6482 31.0952 15.5274 31.0952C15.3789 31.0952 15.078 30.8652 15.078 30.7516C15.078 30.6854 15.2709 30.5729 15.4463 30.5369C15.4595 30.5342 15.5792 30.5645 15.7123 30.6044Z" fill="#334B69"/>
</svg>
