<svg width="31" height="32" viewBox="0 0 31 32" fill="none" xmlns="http://www.w3.org/2000/svg">
<path fill-rule="evenodd" clip-rule="evenodd" d="M19.9681 0.0676032C19.8993 0.105102 19.5888 0.386155 19.278 0.692082L18.7129 1.24838L18.5281 1.05319C18.2741 0.785141 18.0958 0.724456 17.8865 0.834827C17.7939 0.883701 17.1064 1.53893 16.3588 2.29097C14.8995 3.75879 14.8661 3.8091 15.1291 4.14328C15.2195 4.25827 15.3174 4.30796 15.4535 4.30796C15.6231 4.30796 15.8052 4.1519 16.8561 3.106L18.0638 1.90404L19.6878 3.52805L21.3118 5.15206L18.187 8.27645L15.0622 11.4008L13.4684 9.8079C12.5918 8.9318 11.8746 8.18745 11.8746 8.15377C11.8746 8.12014 12.5074 7.4576 13.2808 6.6815C14.8081 5.14899 14.8479 5.08825 14.5336 4.77388C14.2004 4.44064 14.2576 4.39521 11.3598 7.29305C8.87932 9.77352 8.68721 9.98102 8.68721 10.1795C8.68721 10.3768 8.84301 10.5497 10.6934 12.4058C11.7969 13.5126 12.7649 14.4532 12.8448 14.4959C12.9306 14.5418 13.0622 14.5559 13.1666 14.5304C13.2866 14.501 14.106 13.7261 15.7182 12.1174L18.0931 9.74765L18.7806 10.0813C20.3283 10.8324 21.5588 12.0615 22.3352 13.6321C22.5307 14.0276 22.7532 14.6004 22.8405 14.9326C23.0571 15.7573 23.3233 15.9818 23.7173 15.6719C23.8791 15.5447 23.8875 15.5144 23.853 15.1845C23.8328 14.991 23.7142 14.5388 23.5895 14.1796C22.8549 12.0631 21.3986 10.3836 19.368 9.31104L18.8166 9.0198L19.5299 8.30851L20.2433 7.59716L20.5744 7.77453C21.6122 8.33039 22.9469 9.47516 23.7386 10.4884C24.8205 11.8733 25.5198 13.46 25.8485 15.2763C25.9963 16.0928 26.0002 17.9117 25.8559 18.6733C25.8015 18.9605 25.7445 19.2079 25.7293 19.2231C25.7141 19.2383 25.5757 19.1658 25.4218 19.062C25.0817 18.8324 24.703 18.6668 24.26 18.5538C23.9504 18.4749 23.9296 18.4577 23.9626 18.31C24.0457 17.9379 24.0773 16.891 24.0093 16.7638C23.9216 16.6 23.6356 16.4962 23.4556 16.5628C23.2248 16.6482 23.1412 16.8681 23.1012 17.495C23.0425 18.4144 23.0299 18.44 22.5898 18.5305C21.1484 18.8271 20.0326 19.895 19.6585 21.3361C19.5438 21.7781 19.5325 22.6084 19.6353 23.0533C19.7243 23.4394 19.7346 23.4288 18.8431 23.8677C17.7977 24.3823 16.9589 24.6023 15.8055 24.6644C13.2893 24.7997 10.7792 23.6136 9.27031 21.5763C9.08713 21.3289 8.9372 21.112 8.9372 21.0941C8.9372 21.0763 9.97485 21.0538 11.2431 21.044C13.409 21.0272 13.557 21.0189 13.6805 20.9071C13.8051 20.7943 13.812 20.7275 13.812 19.6415C13.812 18.5783 13.803 18.4859 13.687 18.37C13.5645 18.2475 13.4787 18.245 9.41049 18.245H5.25888L5.12939 18.4097C5.05814 18.5002 4.99983 18.6114 4.99983 18.6567C4.99983 18.8415 5.1532 19.0551 5.33026 19.1168C5.45344 19.1598 6.7894 19.1825 9.1965 19.1825H12.8746V19.6512V20.1199H6.90602H0.937468V19.6512V19.1825H2.2843C3.34407 19.1825 3.66875 19.163 3.80787 19.091C4.09492 18.9426 4.14349 18.6775 3.9328 18.4097L3.80331 18.245H2.02662C0.333301 18.245 0.244117 18.2509 0.124996 18.37C0.00931219 18.4857 0 18.5783 0 19.613C0 20.6205 0.0118121 20.7457 0.119433 20.8786L0.238804 21.0261L2.46379 21.0574L4.68878 21.0886L4.9574 21.6852C5.74599 23.4365 6.89145 24.8889 8.44259 26.1042C8.90926 26.4698 9.99022 27.1361 10.4955 27.3697L10.8336 27.5259L7.24482 27.558C3.74981 27.5892 3.6455 27.5936 3.24989 27.7282C1.66419 28.2675 0.497296 29.7905 0.500921 31.316C0.501983 31.7503 0.52667 31.8155 0.730225 31.9226C0.942031 32.0341 19.9279 32.0211 20.075 31.9093C20.3211 31.7223 20.3215 31.3295 20.0758 31.1429C19.9882 31.0763 18.2383 31.0607 10.7016 31.0591L1.43508 31.0571L1.47645 30.8852C1.74707 29.7619 2.61354 28.8789 3.73069 28.5879C4.04155 28.5069 5.57094 28.4946 15.363 28.4946C27.6609 28.4946 26.9699 28.4752 27.6924 28.8413C28.3751 29.1872 29.0196 29.9937 29.2197 30.7519L29.3002 31.0571H25.4106H21.5211L21.3852 31.2017C21.1929 31.4064 21.2057 31.7012 21.414 31.865C21.5768 31.9931 21.6246 31.9945 25.7491 31.9945H29.9196L30.0929 31.8583C30.2638 31.7238 30.2656 31.7152 30.2311 31.1864C30.1304 29.64 29.0307 28.2482 27.4991 27.7285C27.1022 27.5939 27.0114 27.5902 23.5631 27.571L20.0335 27.5513L20.657 27.22C21.3418 26.8562 21.886 26.5206 22.2995 26.2072C22.5661 26.0051 22.5733 26.0036 23.112 26.0365C24.1596 26.1004 25.1578 25.7473 25.9047 25.0485C26.4225 24.5642 26.7295 24.095 26.9532 23.4459C27.103 23.0111 27.1336 22.8207 27.1343 22.3182C27.1353 21.5853 27.0586 21.2443 26.744 20.581C26.5321 20.1342 26.5107 20.0481 26.5657 19.8623C26.6 19.7462 26.6844 19.3278 26.7533 18.9325C27.1621 16.5863 26.8249 14.1863 25.7806 12.0094C24.8215 10.0099 23.3051 8.33107 21.4308 7.1933L20.9503 6.90162L21.6935 6.14165C22.5651 5.25049 22.6046 5.14137 22.2044 4.73157L21.9721 4.49364L22.5731 3.88522C22.9037 3.55055 23.1925 3.21487 23.2149 3.13925C23.238 3.06138 23.2159 2.92588 23.1639 2.82676C23.1135 2.73051 22.4694 2.05416 21.7328 1.32369C20.35 -0.0475804 20.2759 -0.100329 19.9681 0.0676032ZM21.155 2.11997L22.0903 3.05681L21.718 3.43299L21.3457 3.80923L20.3918 2.85676L19.4379 1.90435L19.7948 1.54368C19.9911 1.34537 20.1669 1.18307 20.1856 1.18307C20.2043 1.18307 20.6406 1.60468 21.155 2.11997ZM13.7337 12.729L13.0621 13.4006L11.4374 11.7768L9.81273 10.153L10.4837 9.47991L11.1547 8.80687L12.7799 10.4322L14.4053 12.0575L13.7337 12.729ZM23.8813 19.4328C25.2315 19.6848 26.2016 20.8761 26.1951 22.2745C26.1833 24.808 23.0707 26.0609 21.3097 24.241C20.7545 23.6674 20.5038 23.0458 20.5008 22.2358C20.4944 20.4763 22.1439 19.1085 23.8813 19.4328ZM22.836 20.7653C21.729 21.1828 21.4298 22.5408 22.2617 23.3726C22.7314 23.8424 23.4655 23.948 24.0691 23.6327C25.5381 22.8653 24.9713 20.6592 23.3121 20.6872C23.1572 20.6898 22.9429 20.7249 22.836 20.7653ZM8.23585 21.7408C8.73302 22.4973 9.57786 23.3973 10.2762 23.9143C12.5128 25.5701 15.4111 26.0472 18.0907 25.2006C18.6239 25.0323 19.4301 24.6694 19.8438 24.4117L20.0946 24.2555L20.3751 24.6063C20.6325 24.9283 21.1185 25.3629 21.4111 25.5328C21.5181 25.5949 21.4829 25.6329 21.0726 25.8983C18.8239 27.3529 15.8853 27.8747 13.1928 27.2972C11.702 26.9774 10.0665 26.2042 8.8747 25.2556C7.65668 24.2861 6.43378 22.7326 5.85286 21.4168L5.69418 21.0574H6.74046H7.78674L8.23585 21.7408ZM23.7398 21.7778C24.2067 22.1707 23.9338 22.8698 23.3136 22.8698C23.0852 22.8698 22.7742 22.6116 22.7311 22.3862C22.6198 21.804 23.2903 21.3996 23.7398 21.7778Z" fill="#334B69"/>
</svg>
