<svg width="26" height="32" viewBox="0 0 26 32" fill="none" xmlns="http://www.w3.org/2000/svg">
<path fill-rule="evenodd" clip-rule="evenodd" d="M8.89718 0.0121341C7.42231 0.164197 6.30906 0.538572 5.27449 1.23051C4.56481 1.7052 4.47249 1.90276 4.80499 2.23526C5.04149 2.47176 5.15656 2.44945 5.72712 2.05632C6.30912 1.65532 7.06599 1.31076 7.68612 1.16457C9.52156 0.731884 11.3305 0.899134 12.4339 1.60351C12.795 1.83407 12.9516 1.83313 13.3034 1.59832C14.5819 0.745134 17.2916 0.699759 19.029 1.50251C21.8712 2.8157 23.8207 6.25332 24.5254 11.1946C24.8767 13.6584 24.8969 16.6213 24.5776 18.8803C24.1437 21.9506 22.9815 24.7943 21.321 26.8491C20.8222 27.4663 19.7649 28.4888 19.1784 28.9212C18.5107 29.4134 18.2481 29.571 17.3581 30.0135C16.9241 30.2293 16.5514 30.4516 16.53 30.5076C16.3966 30.8551 16.5897 31.1824 16.9282 31.1824C17.0319 31.1824 17.4839 30.9981 17.9522 30.7648C20.4582 29.5163 22.4834 27.3876 23.832 24.5844C24.8475 22.4736 25.398 20.4029 25.6558 17.7241C25.7771 16.4642 25.7412 13.4988 25.5878 12.0991C25.2274 8.8117 24.3714 6.01195 23.1364 4.08138C21.9436 2.21676 20.4066 0.929947 18.7209 0.384509C17.8734 0.110322 17.1818 0.0158216 16.0222 0.0156966C15.0714 0.0155716 14.895 0.0328841 14.344 0.180322C14.0054 0.270947 13.5343 0.434509 13.2971 0.543822L12.8659 0.742572L12.4347 0.543822C11.7105 0.210009 10.8873 0.0316341 9.95968 0.00750914C9.51281 -0.00411586 9.03468 -0.00199086 8.89718 0.0121341ZM3.45356 2.89595C1.79968 4.87476 0.648931 7.93407 0.215118 11.5053C-0.0413191 13.6162 -0.0728817 16.7273 0.144118 18.5045C0.715243 23.1821 2.66149 27.0281 5.67268 29.4291C7.17074 30.6237 9.00449 31.4616 10.8577 31.7983C12.2436 32.0502 14.9354 31.9499 15.5677 31.6229C15.8866 31.4581 15.8674 30.9388 15.5381 30.823C15.4198 30.7814 15.1661 30.7964 14.6955 30.8729C10.5839 31.5411 6.71512 29.939 4.14899 26.5053C2.45799 24.2426 1.50324 21.6988 1.06899 18.2988C0.934681 17.2473 0.918181 13.6203 1.04249 12.4741C1.48281 8.41345 2.40956 5.73513 4.13106 3.54807C4.38362 3.22726 4.49093 3.0362 4.49093 2.90745C4.49093 2.65738 4.29324 2.47407 4.02356 2.47407C3.83168 2.47407 3.76481 2.52357 3.45356 2.89595ZM9.67843 3.5792C8.06781 3.74582 6.66093 4.48851 5.63806 5.71207C3.86624 7.83151 2.99243 10.8904 2.99212 14.9741C2.99187 19.3307 4.35899 22.7133 7.05949 25.0374C8.91824 26.6373 11.5557 27.4081 14.0222 27.0726C17.2164 26.6379 19.7603 24.7338 21.3346 21.5993C22.2886 19.6998 22.7406 17.5576 22.7391 14.9428C22.7361 9.75445 21.204 5.94526 18.4751 4.34138C17.0063 3.47813 14.7624 3.29007 13.2938 3.90713L12.8659 4.08695L12.4394 3.90776C11.7244 3.60732 10.6466 3.47907 9.67843 3.5792ZM11.8171 4.68495C12.0791 4.77288 12.3871 4.90195 12.5016 4.9717C12.7811 5.14207 12.9216 5.13245 13.3533 4.91307C13.9484 4.61057 14.4269 4.51138 15.3034 4.5087C16.9729 4.50351 18.0379 4.9462 19.1479 6.10682C20.1774 7.1832 20.8606 8.53313 21.3036 10.3658C21.4603 11.0141 21.6784 12.2448 21.6784 12.4806C21.6784 12.5831 21.2757 12.4939 20.8659 12.3006C20.2745 12.0217 19.6816 11.3483 18.9626 10.1389C18.0211 8.55532 17.5811 8.0832 16.5808 7.58326C16.0459 7.31595 15.6739 7.19532 14.9997 7.0707C14.3272 6.94638 14.3253 6.94651 14.1444 7.12751C13.7889 7.48295 14.0396 7.85338 14.7141 7.9692C15.9265 8.17726 16.7903 8.63245 17.3462 9.3562C17.4884 9.54138 17.8482 10.1006 18.1459 10.5989C18.4436 11.0973 18.8028 11.6549 18.9441 11.8382C19.5789 12.6609 20.4792 13.2729 21.2722 13.4205C21.4784 13.4589 21.6861 13.5013 21.7336 13.5147C21.8556 13.549 21.7912 16.5589 21.6497 17.4428C21.4747 18.5358 20.9975 20.2896 20.8764 20.2849C20.8534 20.2841 20.7396 20.1432 20.6234 19.9719C20.5072 19.8005 20.1949 19.4427 19.9294 19.1766L19.4467 18.6928L19.2792 17.7195C18.6566 14.1026 17.5482 11.7505 16.1424 11.0627C15.4559 10.7269 14.4445 10.8068 13.9563 11.2354C13.4883 11.6463 13.3664 12.206 13.4758 13.4428C13.5365 14.1291 13.4931 14.4598 13.3262 14.5818C13.1849 14.6851 12.547 14.6851 12.4057 14.5818C12.2388 14.4598 12.1954 14.1291 12.2561 13.4428C12.3654 12.206 12.2436 11.6463 11.7756 11.2354C11.2874 10.8068 10.2759 10.7269 9.58949 11.0627C8.18431 11.7503 7.07781 14.0974 6.45256 17.7169L6.28487 18.6877L5.80974 19.163C5.54849 19.4244 5.23624 19.7834 5.11593 19.9608C4.99562 20.1382 4.87843 20.2841 4.85543 20.2849C4.73437 20.2896 4.25718 18.5358 4.08212 17.4428C3.94062 16.5589 3.87631 13.549 3.99824 13.5147C4.04581 13.5013 4.25343 13.4589 4.45968 13.4205C5.27449 13.2688 6.18399 12.6389 6.83106 11.7782C6.98774 11.5698 7.27381 11.1278 7.46681 10.796C8.05899 9.77813 8.29605 9.43757 8.68756 9.04245C9.41831 8.30482 10.4829 7.94145 12.1589 7.85751C13.1646 7.80713 13.3034 7.74807 13.3034 7.37063C13.3034 6.99501 13.1462 6.91157 12.4384 6.91157C11.2436 6.91157 10.1223 7.13257 9.25181 7.53963C8.19893 8.03188 7.73631 8.5152 6.76981 10.1328C6.08449 11.2797 5.67774 11.7765 5.11793 12.1503C4.77981 12.3761 4.15531 12.5968 4.07674 12.5182C4.02193 12.4634 4.23899 11.1351 4.43187 10.3454C4.87712 8.52195 5.55956 7.17795 6.58399 6.10682C7.37031 5.28463 8.12362 4.83795 9.06174 4.63745C9.72199 4.49638 9.87943 4.48326 10.6502 4.50532C11.1875 4.5207 11.4466 4.56057 11.8171 4.68495ZM11.0246 11.8773C11.1524 11.9307 11.2673 12.0353 11.3039 12.1314C11.3423 12.2325 11.3505 12.7055 11.3254 13.3709C11.2811 14.5455 11.3162 14.7686 11.5979 15.1034C11.894 15.4553 12.2006 15.5674 12.8659 15.5674C13.5312 15.5674 13.8379 15.4553 14.1339 15.1034C14.4157 14.7686 14.4508 14.5455 14.4065 13.3709C14.3814 12.7055 14.3896 12.2325 14.428 12.1314C14.5041 11.9312 14.826 11.7866 15.1954 11.7866C15.5769 11.7866 16.0589 12.0452 16.3996 12.4328C16.7518 12.8336 17.3462 14.0291 17.6404 14.9286C17.9686 15.9322 18.4237 17.8747 18.3482 17.9501C18.3342 17.9642 18.1696 17.908 17.9825 17.8253C16.8569 17.3274 15.2957 17.1637 13.8739 17.3943C13.0555 17.5271 12.7046 17.5269 11.8659 17.3934C10.9323 17.2447 10.3389 17.2511 10.1784 17.4116C10.0128 17.5772 10.0132 17.9183 10.1793 18.0686C10.2758 18.1559 10.4634 18.194 10.9822 18.2315C11.3545 18.2584 11.9299 18.3369 12.2609 18.4061L12.8627 18.5318L13.4424 18.3972C14.2359 18.2131 16.0589 18.1983 16.6784 18.3709C17.8022 18.6841 18.6147 19.1606 19.3502 19.9376C19.7985 20.4111 20.3659 21.2255 20.3659 21.3952C20.3659 21.4336 20.2616 21.6429 20.1341 21.8602C19.2369 23.3891 17.7975 24.7468 16.3413 25.4376C15.8394 25.6758 14.8476 25.9925 14.2409 26.1084C13.7166 26.2087 12.0152 26.2087 11.4909 26.1084C10.8842 25.9925 9.89249 25.6758 9.39056 25.4376C7.93437 24.7468 6.49499 23.3891 5.59781 21.8602C5.47024 21.6429 5.36593 21.4336 5.36593 21.3951C5.36593 21.2309 5.89468 20.4559 6.31043 20.0108C7.05524 19.2132 7.83012 18.7343 8.84737 18.4426C9.42124 18.2781 9.61593 18.136 9.61593 17.8818C9.61593 17.664 9.38456 17.4116 9.18493 17.4116C8.98056 17.4116 8.14699 17.6573 7.71643 17.8443C7.54831 17.9174 7.3983 17.9648 7.38312 17.9496C7.29537 17.8618 7.89818 15.4456 8.25018 14.4741C8.52068 13.7276 9.01724 12.7945 9.34118 12.4243C9.82631 11.8696 10.4901 11.654 11.0246 11.8773Z" fill="#334B69"/>
</svg>
