<svg width="32" height="28" viewBox="0 0 32 28" fill="none" xmlns="http://www.w3.org/2000/svg">
<path fill-rule="evenodd" clip-rule="evenodd" d="M14.8722 0.0100511C11.9508 0.121325 8.64414 1.28976 6.0419 3.13022C5.28812 3.66339 5.18016 3.85018 5.43721 4.17694C5.63331 4.4263 5.87274 4.39548 6.34228 4.06041C7.31842 3.36383 8.16004 2.86585 9.09818 2.42988L9.6693 2.16438L9.33129 2.61229C8.66302 3.49767 8.03482 4.97754 7.76495 6.30201L7.65218 6.85576L7.36274 7.00248C6.89321 7.2404 6.16705 7.85672 5.69808 8.4154C3.68509 10.8133 3.13072 13.4782 4.10061 16.0942C4.3521 16.7724 4.5002 16.9693 4.75875 16.9693C4.95279 16.9693 5.24511 16.7279 5.24511 16.5674C5.24511 16.5153 5.16428 16.2678 5.06551 16.0176C4.19438 13.8114 4.45756 11.7906 5.88856 9.69711C6.26545 9.14568 7.05424 8.29081 7.31467 8.15141C7.45239 8.0777 7.45245 8.07783 7.41194 8.5383C7.38969 8.79161 7.34005 9.50207 7.30167 10.117C7.21284 11.5398 7.26247 17.194 7.37325 18.2673C7.41669 18.6889 7.4357 19.0505 7.41544 19.0708C7.35124 19.1349 6.81644 18.6461 6.33034 18.079C6.07247 17.7783 5.79516 17.5155 5.71408 17.4951C5.49335 17.4398 5.31725 17.5195 5.21235 17.7224C5.08714 17.9645 5.1629 18.1351 5.66582 18.7436C6.11654 19.289 6.81419 19.887 7.30867 20.1519L7.65318 20.3364L7.76552 20.8877C8.02864 22.1793 8.60882 23.5694 9.26759 24.4866C9.459 24.753 9.60428 24.971 9.59053 24.971C9.5122 24.971 8.51905 24.4849 8.03276 24.2086C6.06453 23.0901 4.40612 21.6575 3.1988 20.0329L2.91267 19.6478L3.01451 18.793C3.25593 16.7654 3.27594 16.363 3.27569 13.5311C3.27544 10.7051 3.24531 10.0919 3.01795 8.29313L2.92086 7.5249L3.18717 7.16789C3.50474 6.74223 4.40474 5.69801 4.6768 5.43958C4.91791 5.21047 4.93723 4.92672 4.72537 4.72762C4.43875 4.45844 4.27015 4.53108 3.62883 5.20041C0.927876 8.01919 -0.36965 11.5845 0.0915107 14.9199C0.615185 18.7073 2.91117 22.0385 6.68291 24.4831C11.3907 27.5345 16.929 28.0276 21.4911 25.8019C21.8825 25.6109 22.2552 25.4022 22.3194 25.3379C22.4974 25.16 22.4734 24.8218 22.2715 24.663C22.181 24.5918 22.0726 24.5335 22.0307 24.5335C21.9889 24.5335 21.6442 24.6858 21.2648 24.872C18.6734 26.1439 15.822 26.5638 13.3692 26.0351C10.0699 25.3239 8.58194 22.7496 8.24774 17.175C8.16454 15.7867 8.16454 11.4005 8.24774 10.0123C8.48098 6.12191 9.23114 3.8403 10.7283 2.4677C11.865 1.42567 13.3692 0.947438 15.4973 0.951501C18.8045 0.957878 21.7657 2.12731 24.1823 4.38142C25.8848 5.96938 27.227 8.26299 27.7806 10.5305C27.9161 11.0851 27.9973 11.2748 28.1294 11.3455C28.1919 11.3789 28.8689 11.4057 29.6524 11.4057H31.0631V12.1603V12.915L30.7036 12.8713C30.2624 12.8177 29.4363 12.5844 28.9181 12.3669C27.7348 11.8702 26.6404 10.9816 25.8362 9.86408L25.5591 9.47907L25.6002 8.79992C25.6321 8.27612 25.6171 7.99963 25.5345 7.59091C25.3194 6.52562 24.653 5.52941 24.1556 5.52941C24.0008 5.52941 23.749 5.81847 23.749 5.99632C23.749 6.09366 23.8619 6.29483 24.0372 6.51012C24.3489 6.8927 24.5319 7.26234 24.5951 7.63667C24.6172 7.76701 24.6501 7.92992 24.6684 7.99869C24.6866 8.06745 24.3885 7.79546 24.0059 7.39425C22.7135 6.03908 21.4816 5.28999 20.0104 4.96467C19.2937 4.80613 18.9961 4.80732 18.8223 4.96923C18.5081 5.26198 18.7546 5.77822 19.2096 5.7804C19.4924 5.78172 20.153 5.94569 20.6405 6.13554L21.064 6.30051L20.5579 6.53838C19.9929 6.80393 19.574 7.10775 19.5011 7.30479C19.4392 7.47226 19.5406 7.76476 19.6881 7.84372C19.888 7.95074 20.0701 7.91086 20.409 7.68593C21.0232 7.27822 21.6779 7.07987 22.2059 7.14157C22.6652 7.19514 23.9708 8.62645 24.7057 9.88184C24.7337 9.92966 24.6127 9.92235 24.3261 9.85883C23.7944 9.74093 22.4183 9.72843 21.8632 9.83645C21.3602 9.93429 21.1668 10.1003 21.1971 10.4081C21.2101 10.5389 21.2749 10.6548 21.3784 10.7316C21.5344 10.8475 21.5612 10.8481 22.2223 10.7488C22.9482 10.6397 23.5019 10.6576 24.2491 10.8142C25.1823 11.0098 25.7483 11.2793 26.3121 11.7967C26.5356 12.0017 26.9695 12.3352 27.2764 12.5378L27.8343 12.906H24.2098H20.5854L20.3074 12.7289C19.7453 12.3709 19.2568 11.6897 18.8691 10.7235C18.7337 10.3859 18.623 10.0799 18.623 10.0434C18.623 9.94816 18.3134 9.7178 18.1854 9.7178C17.9753 9.7178 17.7478 9.96198 17.7478 10.1875C17.7478 10.6393 18.278 11.8447 18.7711 12.5136L19.0579 12.9027L15.8342 12.92L12.6105 12.9372L12.4911 13.0848C12.3362 13.2762 12.3387 13.5607 12.4966 13.7187C12.6154 13.8374 12.705 13.8437 14.2783 13.8437C15.1894 13.8437 15.9349 13.8544 15.9349 13.8675C15.9349 13.8806 15.6962 14.1242 15.4045 14.4089C15.1128 14.6937 14.8571 14.9804 14.8362 15.0461C14.7786 15.2277 14.9247 15.5122 15.1161 15.5915C15.3566 15.6911 15.5291 15.6064 15.9349 15.1892C16.3792 14.7322 17.0089 14.2649 17.4734 14.0473L17.8415 13.8749L21.9362 13.8571C24.1882 13.8473 26.4105 13.8473 26.8747 13.8571L27.7186 13.8749L26.9544 14.261C26.4354 14.5231 26.0828 14.6604 25.8554 14.6888C25.4183 14.7434 24.6924 14.6301 24.0169 14.4017C23.3723 14.1839 23.3144 14.1805 23.1011 14.3484C22.8876 14.5162 22.8764 14.829 23.077 15.0149C23.2207 15.1478 23.9932 15.4032 24.6413 15.5319L25.0022 15.6035L24.4619 16.1771C24.1373 16.5216 23.6563 17.1489 23.2571 17.7483C22.5745 18.7732 21.9225 19.5118 21.3623 19.8949C21.1375 20.0486 21.003 20.095 20.782 20.095C20.4054 20.095 19.8173 19.8957 19.3066 19.5948C18.7569 19.271 18.6265 19.2436 18.4171 19.4084C18.2851 19.5122 18.2479 19.5948 18.2479 19.784C18.2479 19.9991 18.2779 20.0471 18.5136 20.2087C18.6596 20.3089 18.9602 20.4821 19.1814 20.5935C19.6471 20.828 19.6417 20.8354 18.8638 21.025C18.0873 21.2143 17.3302 21.2641 16.1372 21.2044L15.091 21.1521L14.9503 21.3147C14.777 21.515 14.7727 21.6565 14.9337 21.8612C15.0875 22.0567 15.1857 22.0816 16.102 22.1563C18.6816 22.3665 21.1295 21.5369 22.7697 19.8968L23.3303 19.3361L23.2911 19.7563C23.2435 20.266 22.9987 20.819 22.6342 21.2397C22.3434 21.5755 22.3016 21.8049 22.489 22.0364C22.5654 22.1308 22.6716 22.1788 22.8039 22.1788C23.2836 22.1788 24.0744 20.9986 24.2128 20.0763C24.2784 19.6386 24.2647 18.8771 24.1843 18.4899L24.1126 18.1442L24.4153 17.7009C24.8228 17.1041 25.7876 16.1422 26.4327 15.6894C27.5346 14.916 28.9559 14.3187 30.3666 14.036C30.7227 13.9646 31.0251 13.9062 31.0386 13.9062C31.0521 13.9062 31.0631 14.3282 31.0631 14.8439V15.7816H29.6524C28.8689 15.7816 28.1919 15.8083 28.1294 15.8417C27.9973 15.9124 27.9161 16.1022 27.7806 16.6568C27.2152 18.9728 25.8477 21.2849 24.1148 22.8552C23.1601 23.7204 23.1864 23.6899 23.1864 23.9302C23.1864 24.1639 23.4097 24.4084 23.6231 24.4084C23.7814 24.4084 24.1577 24.1162 24.8438 23.4605C26.6908 21.6954 27.9081 19.6713 28.6253 17.1725L28.7554 16.7193H30.1624C31.6289 16.7193 31.8674 16.6817 31.962 16.4352C32.0127 16.303 32.0127 10.8842 31.962 10.7521C31.8674 10.5056 31.6289 10.468 30.1624 10.468H28.7554L28.6253 10.0147C27.7858 7.08974 26.158 4.66279 23.8101 2.83528C21.3283 0.903616 18.1108 -0.11335 14.8722 0.0100511ZM2.25116 9.88972C2.41801 11.7764 2.34143 17.4843 2.13995 18.1806C2.11588 18.2637 2.03355 18.1373 1.85657 17.7456C0.87749 15.5781 0.677385 13.2594 1.27826 11.043C1.45318 10.3978 2.03899 8.90513 2.11732 8.90513C2.14307 8.90513 2.20327 9.34823 2.25116 9.88972Z" fill="#334B69"/>
</svg>
