<svg width="32" height="32" viewBox="0 0 32 32" fill="none" xmlns="http://www.w3.org/2000/svg">
<path fill-rule="evenodd" clip-rule="evenodd" d="M14.8646 0.0157068C14.7441 0.029858 14.3778 0.0704329 14.0506 0.105936C11.9847 0.3301 9.69699 1.10528 7.85096 2.20675C5.50149 3.60853 3.5919 5.51812 2.19012 7.86759C1.09767 9.69853 0.372078 11.8263 0.0760311 14.0672C-0.0253437 14.8345 -0.0253437 17.1822 0.0760311 17.9494C0.372078 20.1904 1.09767 22.3181 2.19012 24.149C3.5919 26.4985 5.50149 28.4081 7.85096 29.8099C9.6819 30.9023 11.8096 31.6279 14.0506 31.924C14.8178 32.0253 17.1655 32.0253 17.9328 31.924C21.8317 31.4088 25.1366 29.6964 27.8339 26.7937C29.3261 25.1879 30.4935 23.1905 31.2099 21.0176C31.7747 19.3047 31.986 17.9408 31.986 16.0083C31.986 14.5787 31.9256 13.9471 31.669 12.6897C30.7891 8.37853 28.0193 4.52585 24.1324 2.20675C22.3201 1.12544 20.159 0.384513 17.9954 0.102617C17.4462 0.0311103 15.2528 -0.0298148 14.8646 0.0157068ZM18.1832 1.07441C18.5448 1.12901 19.2217 1.26827 19.6874 1.38386C24.9963 2.70148 29.2742 6.96874 30.6103 12.2796C30.9566 13.656 31.0461 14.4216 31.0461 16.0083C31.0461 17.595 30.9566 18.3607 30.6103 19.737C29.5465 23.9651 26.5954 27.6012 22.6603 29.5322C21.578 30.0632 20.7803 30.3603 19.7204 30.627C18.344 30.9733 17.5784 31.0628 15.9917 31.0628C14.405 31.0628 13.6393 30.9733 12.263 30.627C6.96614 29.2943 2.7057 25.0339 1.37305 19.737C1.02672 18.3607 0.937247 17.595 0.937247 16.0083C0.937247 14.4216 1.02672 13.656 1.37305 12.2796C2.43683 8.05155 5.38797 4.41546 9.32311 2.48446C11.1 1.61253 12.7066 1.16658 14.8333 0.954942C15.3666 0.901844 17.5579 0.979988 18.1832 1.07441ZM14.2698 2.6388C12.0113 2.95075 9.97144 3.75004 8.19071 5.0207C7.77294 5.31882 7.6638 5.45444 7.6638 5.67548C7.6638 5.84836 7.93374 6.11504 8.10868 6.11504C8.18432 6.11504 8.55895 5.90515 8.94116 5.64861C11.1254 4.18278 13.4165 3.48305 16.0204 3.48643C18.8173 3.49 21.3441 4.35272 23.6308 6.08467C25.8188 7.74192 27.4564 10.2375 28.1455 12.9645C28.6431 14.9342 28.6435 17.1256 28.1467 19.0856C27.6034 21.2288 26.7023 22.8375 24.9614 24.7718C24.4446 25.3461 24.3865 25.5469 24.6724 25.7718C24.9349 25.9783 25.1032 25.9373 25.4893 25.5729C27.0037 24.1433 28.3278 21.884 28.9846 19.6087C29.4202 18.0998 29.5723 15.9696 29.3626 14.3153C29.0506 11.8525 28.0897 9.57512 26.5261 7.59214C26.0764 7.0219 24.9781 5.92356 24.4079 5.47392C22.448 3.92856 20.1571 2.95457 17.7548 2.64538C16.8418 2.52791 15.0968 2.52459 14.2698 2.6388ZM17.9328 4.65528C17.7325 4.73192 17.6197 4.88821 17.6197 5.08914C17.6197 5.34981 17.7986 5.52407 18.1188 5.57523C18.4262 5.62444 18.6842 5.91266 18.6842 6.20715C18.6842 6.51071 18.3939 6.80381 18.0933 6.80381C17.7571 6.80381 17.5726 6.65197 17.4638 6.28548C17.4121 6.11141 17.323 5.9173 17.2659 5.85418C17.1181 5.69094 16.8304 5.70898 16.6463 5.89307C16.4689 6.07052 16.4565 6.22192 16.5847 6.65153C16.8521 7.54762 17.8653 7.9957 18.7155 7.59383C19.6382 7.15759 19.9057 6.03426 19.2817 5.21619C19.0087 4.85834 18.2388 4.53812 17.9328 4.65528ZM6.33478 6.61358C6.12258 6.78052 5.37138 7.67617 4.99355 8.21266C2.10278 12.3177 1.71844 17.7218 4.00078 22.1732C4.63639 23.4128 5.42717 24.4882 6.46947 25.5305C7.20771 26.2688 7.74075 26.7067 8.59896 27.2798C12.615 29.9617 18.0946 30.2054 22.3472 27.8911C23.713 27.1478 23.9687 26.8599 23.5949 26.4862C23.3691 26.2604 23.174 26.3095 22.3712 26.7943C20.574 27.8797 18.6088 28.4473 16.4167 28.5143C14.259 28.5802 12.5285 28.2201 10.5441 27.292C8.12822 26.1622 5.8378 23.8718 4.70796 21.4559C3.85057 19.6226 3.47224 17.9635 3.4698 16.0261C3.46573 12.8995 4.5677 10.0006 6.65406 7.64912C7.00965 7.24832 7.09869 7.1075 7.09938 6.9447C7.10113 6.54176 6.66577 6.35323 6.33478 6.61358ZM11.7964 6.80957C10.1931 6.94657 9.03252 7.54562 8.57285 8.47333C8.32064 8.98234 8.27787 9.79152 8.46985 10.4234C9.08611 12.4524 11.8461 13.6329 14.3008 12.9172C14.5934 12.8319 14.8417 12.7711 14.8527 12.7821C14.8637 12.7931 14.8472 12.9419 14.8161 13.1128C14.7371 13.5479 14.8277 14.1865 15.0235 14.5728C15.4695 15.453 16.5787 16.066 17.7319 16.0699C18.2686 16.0716 18.9888 15.8925 19.5921 15.6073C21.5911 14.6621 22.8515 12.4581 22.4985 10.5253C22.2863 9.36367 21.3481 8.41967 20.2691 8.2821C19.5867 8.19513 18.6138 8.54415 17.7373 9.19053C17.5092 9.35872 17.3049 9.49629 17.2833 9.49629C17.2617 9.49629 17.244 9.40267 17.244 9.28828C17.244 9.17388 17.1971 8.94145 17.1398 8.7717C16.7491 7.61456 15.6301 6.97719 13.6907 6.80707C12.8741 6.73543 12.6607 6.73568 11.7964 6.80957ZM14.3324 7.83803C15.2719 8.01342 15.9318 8.38974 16.1729 8.88766C16.2681 9.08446 16.3048 9.2807 16.3047 9.59434C16.3045 11.2872 14.0737 12.5439 11.875 12.0896C10.9734 11.9034 10.1777 11.4426 9.72705 10.8457C9.41397 10.431 9.28498 10.0643 9.28097 9.5775C9.27377 8.70482 9.86593 8.14523 11.0961 7.86208C11.8814 7.68131 13.431 7.66985 14.3324 7.83803ZM20.7999 9.46373C21.2538 9.76409 21.5401 10.3076 21.6034 10.9892C21.7949 13.0492 19.5729 15.2834 17.5065 15.1088C16.9396 15.0608 16.494 14.8695 16.1579 14.5298C15.8264 14.1948 15.7432 14.0091 15.7346 13.5858C15.7191 12.8178 16.2431 11.8928 17.2988 10.8252C18.7482 9.35953 19.9414 8.89555 20.7999 9.46373ZM11.1914 9.714C11.0118 9.83973 10.96 10.0854 11.0688 10.2952C11.179 10.5075 11.6947 10.7756 12.2628 10.9158C12.7893 11.0457 13.48 10.9723 14.009 10.7301C14.6545 10.4346 14.8392 10.0914 14.523 9.77524C14.3212 9.5733 14.192 9.58113 13.7299 9.82339C13.3956 9.99865 13.282 10.0255 12.868 10.0269C12.4559 10.0283 12.3346 10.001 11.9726 9.82502C11.5043 9.59741 11.3825 9.58013 11.1914 9.714ZM19.628 11.2267C19.5566 11.3174 19.4979 11.4372 19.4975 11.4928C19.4972 11.5484 19.4309 11.7359 19.35 11.9094C19.1543 12.3298 18.713 12.7099 18.2323 12.8723C18.0222 12.9432 17.7985 13.0482 17.735 13.1056C17.5712 13.2539 17.5861 13.5755 17.7646 13.7433C17.9336 13.9021 18.0469 13.9099 18.4411 13.7903C19.3267 13.5215 20.0272 12.8606 20.3159 12.0214C20.4751 11.5586 20.4696 11.3642 20.2925 11.1978C20.0874 11.0052 19.7921 11.018 19.628 11.2267ZM7.00258 13.1241C6.11851 13.3357 5.3005 14.2432 5.09305 15.2425C4.9702 15.8342 5.04446 16.76 5.26593 17.398C5.72328 18.7154 6.79062 19.8781 8.07913 20.4624C9.52405 21.1175 11.144 20.9277 12.0766 19.9937C13.2712 18.7977 12.9873 17.2066 11.2289 15.2427C9.83506 13.6858 8.16116 12.8467 7.00258 13.1241ZM24.2722 13.1696C24.1256 13.2215 23.8819 13.3877 23.7307 13.5389C23.104 14.1655 23.1036 15.0956 23.7297 15.7216C24.468 16.4599 25.6476 16.303 26.181 15.3957C26.329 15.1438 26.3546 15.0313 26.3546 14.6308C26.3546 14.2303 26.329 14.1177 26.181 13.8659C25.7863 13.1944 25.0061 12.9098 24.2722 13.1696ZM8.45539 14.2501C9.05756 14.5318 9.60407 14.9436 10.2702 15.6173C10.9442 16.299 11.3437 16.8335 11.6276 17.4333C11.793 17.7827 11.8275 17.9311 11.8276 18.2938C11.8278 18.8587 11.6261 19.231 11.1475 19.5486C9.58021 20.5893 6.94391 19.2967 6.15013 17.0983C5.96892 16.5965 5.92609 15.7639 6.05815 15.3098C6.39708 14.1439 7.33895 13.7276 8.45539 14.2501ZM25.1245 14.0938C25.6965 14.3896 25.4396 15.2569 24.78 15.2569C24.5613 15.2569 24.1943 14.8844 24.1943 14.6623C24.1943 14.1702 24.6883 13.8683 25.1245 14.0938ZM7.38278 15.9563C7.22286 16.0821 7.21272 16.1167 7.24465 16.4261C7.29299 16.895 7.53832 17.3895 7.92566 17.7991C8.31106 18.2066 8.64887 18.4193 9.16651 18.5804C9.45054 18.6688 9.58028 18.681 9.71916 18.6326C9.89054 18.5729 10.0432 18.3568 10.0432 18.1741C10.0432 17.9981 9.78948 17.7756 9.50814 17.7048C8.91887 17.5564 8.45445 17.1331 8.23379 16.5433C8.16134 16.3498 8.10211 16.1664 8.10211 16.1357C8.10211 16.0489 7.78452 15.8205 7.6638 15.8205C7.60419 15.8205 7.47777 15.8816 7.38278 15.9563ZM15.3029 16.3285C14.1312 16.7911 13.9222 18.3413 14.933 19.0735C15.2514 19.3042 15.7806 19.426 16.01 19.3214C16.2422 19.2157 16.3537 18.9183 16.2376 18.7141C16.1346 18.5326 16.0607 18.4887 15.694 18.3909C15.3778 18.3066 15.2278 18.1103 15.2278 17.7808C15.2278 17.5978 15.2704 17.5086 15.4229 17.3723C15.8104 17.0261 16.3702 17.2372 16.454 17.7611C16.5039 18.0736 16.6836 18.2625 16.9309 18.2625C17.2158 18.2625 17.3695 18.0697 17.3679 17.7146C17.3653 17.168 16.9925 16.6166 16.4627 16.3759C16.1863 16.2504 15.5652 16.225 15.3029 16.3285ZM21.6897 16.8252C19.2885 17.016 18.0185 18.0806 18.1399 19.8008L18.1758 20.3103L17.7882 20.2111C17.2275 20.0675 14.7027 20.0701 14.0819 20.2149C12.3613 20.6162 11.4828 21.5129 11.4856 22.8647C11.4873 23.6674 11.7996 24.3879 12.4222 25.0258C13.0827 25.7025 13.9999 26.1666 15.0318 26.3464C15.5574 26.4379 16.8338 26.3852 17.3379 26.2512C18.0062 26.0735 18.8368 25.6194 19.3098 25.1734C19.9911 24.5306 20.3172 23.9137 20.4102 23.0915L20.4516 22.7257L20.8686 22.8707C21.4945 23.0884 22.1281 23.1674 22.9107 23.1253C23.7555 23.0798 24.179 22.9711 24.9382 22.6051C25.4205 22.3724 25.6173 22.2305 26.0397 21.8106C26.5886 21.265 26.8104 20.8935 26.9789 20.2374C27.0929 19.7931 27.099 19.5106 27.0043 19.0639C26.7216 17.732 25.5391 16.9975 23.3975 16.8236C22.5508 16.7548 22.5753 16.7548 21.6897 16.8252ZM24.1317 17.8641C25.8116 18.157 26.5056 19.1531 25.9204 20.4313C25.1822 22.0438 22.566 22.711 20.6566 21.7738C19.7235 21.3157 19.133 20.5465 19.0772 19.7162C19.0173 18.8253 19.5877 18.207 20.7388 17.9152C21.5788 17.7021 23.0743 17.6796 24.1317 17.8641ZM20.9781 19.7698C20.7643 19.938 20.7532 20.2507 20.9542 20.4395C21.1612 20.634 21.7543 20.8886 22.1883 20.9694C22.8547 21.0933 23.7773 20.8793 24.2343 20.4948C24.4744 20.2928 24.5153 20.1539 24.4092 19.9016C24.2832 19.6017 24.0816 19.5862 23.549 19.8356C23.1615 20.0171 23.033 20.0463 22.6289 20.0452C22.2238 20.0439 22.1059 20.016 21.7698 19.8418C21.3131 19.6053 21.2003 19.595 20.9781 19.7698ZM17.4005 21.1062C18.8048 21.3543 19.4648 21.9266 19.4662 22.8974C19.4679 23.9901 18.4172 25.0197 16.9431 25.3698C16.2666 25.5305 15.19 25.4783 14.531 25.2529C13.307 24.8341 12.4954 23.9561 12.4335 22.9836C12.4029 22.5034 12.4866 22.2386 12.7761 21.9006C13.1191 21.4998 13.8244 21.1973 14.7394 21.0584C15.1668 20.9935 16.9432 21.0255 17.4005 21.1062ZM8.73878 21.5563C8.00762 21.9207 7.68321 22.8344 8.01871 23.5848C8.30273 24.2201 9.03871 24.6048 9.71171 24.4696C10.6372 24.2837 11.1702 23.3964 10.9206 22.457C10.8258 22.0999 10.2931 21.559 9.93975 21.4609C9.51998 21.3443 9.0967 21.3779 8.73878 21.5563ZM9.86017 22.5155C10.2011 22.8565 10.0408 23.4307 9.57176 23.5484C9.32944 23.6092 8.98724 23.4327 8.88825 23.1957C8.62113 22.5564 9.37408 22.0294 9.86017 22.5155ZM14.3408 23.0258C14.1271 23.1939 14.1158 23.507 14.3167 23.6945C14.5101 23.8749 15.0314 24.1286 15.3682 24.2062C16.1511 24.3866 17.267 24.1414 17.6799 23.6982C17.8656 23.4989 17.8482 23.1876 17.6425 23.0258C17.4254 22.855 17.3722 22.8602 16.9135 23.0976C16.5716 23.2746 16.4627 23.2995 16.023 23.3011C15.5855 23.3028 15.4677 23.2773 15.0924 23.0995C14.5859 22.8597 14.5558 22.8567 14.3408 23.0258Z" fill="#334B69"/>
</svg>
