<svg width="32" height="32" viewBox="0 0 32 32" fill="none" xmlns="http://www.w3.org/2000/svg">
<path fill-rule="evenodd" clip-rule="evenodd" d="M15.6708 0.0649856C15.3868 0.169236 15.3476 0.359798 15.3163 1.78786C15.2568 4.50386 15.6363 6.46555 16.6269 8.56167L16.9979 9.34674L16.8659 9.84292C16.7933 10.1158 16.7175 10.524 16.6975 10.75C16.6626 11.1439 16.6683 11.1666 16.834 11.2969C17.186 11.5738 17.5069 11.3779 17.6116 10.8222C17.6487 10.6252 17.7536 10.1908 17.8446 9.8568L18.0102 9.24949L17.5983 8.4193C17.1205 7.45642 16.9349 6.95511 16.6821 5.94461C16.3525 4.6273 16.2775 3.9758 16.2742 2.40161L16.2712 0.964111L18.0993 0.947548L19.9275 0.930986L19.9291 1.26005C19.9326 1.96686 20.0526 3.51911 20.1465 4.07111C20.2287 4.55455 20.3853 5.22424 20.5246 5.6883C20.5464 5.76099 20.4833 5.80855 20.2878 5.86624C19.8596 5.9928 19.1688 6.38086 18.8811 6.65655C18.576 6.9488 18.5267 7.21961 18.74 7.43286C18.9426 7.63549 19.2111 7.59386 19.5337 7.30992C19.8856 7.00017 20.6023 6.71755 21.3769 6.58317C22.0978 6.45811 23.6575 6.49336 24.365 6.65067C27.0168 7.2403 29.1896 9.02067 30.3211 11.5308C30.8586 12.7232 31.0896 14.0164 31.0293 15.4954C30.8546 19.7795 29.1905 23.2689 26.208 25.6044C25.8628 25.8747 25.0315 26.4238 24.4771 26.7476C24.0549 26.9942 23.9341 27.2057 24.0626 27.4736C24.202 27.7645 24.4316 27.7999 24.8505 27.5949C25.2962 27.3767 26.1156 26.8456 26.7413 26.3694C29.3778 24.3623 31.2145 21.1759 31.7661 17.6516C32.137 15.2822 32.0333 13.5004 31.4244 11.7766C30.4726 9.08242 28.2936 6.93474 25.5964 6.0323C24.527 5.67449 23.6466 5.54349 22.4779 5.56824L21.4895 5.58911L21.3974 5.30786C21.0792 4.3353 20.93 3.17786 20.9286 1.67017C20.9273 0.319673 20.8955 0.164986 20.597 0.0609856C20.3568 -0.0227644 15.9 -0.0191394 15.6708 0.0649856ZM16.8315 12.3679C16.5724 12.4718 16.5393 12.5839 16.548 13.3294C16.5525 13.721 16.5826 14.3334 16.6148 14.6902C16.647 15.0471 16.6741 15.8032 16.6753 16.3704C16.6787 18.117 16.4241 19.0949 15.7857 19.7875C15.3499 20.2602 14.8687 20.4392 14.0341 20.4389C13.1695 20.4386 12.3519 20.1965 10.9587 19.5282C9.83182 18.9876 9.39357 18.8224 8.59107 18.6354C7.65589 18.4174 6.34757 18.4068 5.5837 18.611C3.9372 19.051 2.67232 20.1815 1.81845 21.976C1.62276 22.3872 1.6117 22.4404 1.68845 22.6005C1.73457 22.6967 1.85482 22.815 1.9557 22.8634C2.24732 23.0031 2.40857 22.866 2.78914 22.1547C3.21732 21.3544 3.45557 21.0357 4.01914 20.5094C5.23476 19.3741 6.88007 19.0962 8.87564 19.689C9.22582 19.793 9.97845 20.0983 10.548 20.3672C12.1367 21.1174 13.0319 21.3689 14.1174 21.3699C15.0456 21.3707 15.815 21.0855 16.379 20.5316L16.692 20.2241L16.6458 20.5004C16.4988 21.3794 16.1569 22.3149 15.7759 22.8806C15.5106 23.2746 15.4864 23.5365 15.6971 23.7345C15.9103 23.9347 16.1009 23.9055 16.3605 23.6327C16.9483 23.0147 17.4402 21.6715 17.6582 20.0891C17.8012 19.051 17.7991 16.767 17.6541 15.5891C17.5948 15.1079 17.5233 14.2405 17.4951 13.6616C17.451 12.754 17.4278 12.5935 17.3263 12.4962C17.175 12.3511 16.992 12.3036 16.8315 12.3679ZM6.42364 22.1473C5.66007 22.3421 5.12264 23.0991 4.59426 24.7242C4.17282 26.0203 3.9202 27.229 3.67982 29.1002C3.5387 30.1984 3.47557 30.3815 3.13064 30.6928C2.2982 31.4439 0.930136 30.8094 0.927824 29.6711C0.926199 28.8915 1.45201 25.8812 1.79907 24.6829C1.90364 24.3219 1.98932 23.9492 1.98957 23.8547C1.99039 23.4902 1.50482 23.293 1.24539 23.5524C0.891636 23.9062 0.165261 27.365 0.0170735 29.4016C-0.018114 29.8847 -0.00467654 30.0207 0.112198 30.3652C0.342136 31.0427 0.672261 31.4317 1.2712 31.731C2.3442 32.2671 3.72364 31.8136 4.2692 30.7454C4.43851 30.4139 4.50982 30.072 4.64745 28.9329C4.82764 27.441 5.23614 25.581 5.59014 24.6405C6.05026 23.418 6.47239 22.9274 6.9467 23.0634C7.23989 23.1475 7.33195 23.2688 7.76589 24.1424C8.23226 25.0815 8.63064 25.6416 9.30132 26.3013C10.9658 27.9385 13.1773 28.9423 15.865 29.2804C16.9876 29.4217 19.1279 29.3775 20.1462 29.192C21.566 28.9335 22.9682 28.5221 23.2243 28.289C23.4581 28.0763 23.4026 27.7379 23.1088 27.5859C22.943 27.5002 22.883 27.5089 22.257 27.7094C20.6339 28.2294 19.772 28.3728 18.0212 28.4139C16.9392 28.4394 16.4876 28.4241 15.9018 28.3423C12.2887 27.8374 9.74282 26.1745 8.47951 23.4942C8.15201 22.7994 7.89295 22.4801 7.49557 22.2814C7.13001 22.0985 6.78426 22.0553 6.42364 22.1473Z" fill="#334B69"/>
</svg>
