<svg width="32" height="32" viewBox="0 0 32 32" fill="none" xmlns="http://www.w3.org/2000/svg">
<path fill-rule="evenodd" clip-rule="evenodd" d="M7.23838 0.106417C6.58957 0.330667 5.93263 0.876042 5.65451 1.42123C5.58332 1.56079 5.52507 1.73129 5.52507 1.80017C5.52507 1.89842 5.37107 1.99867 4.81163 2.26454C3.61345 2.8341 3.0287 3.28185 2.55757 3.99054C2.06107 4.73742 1.99913 4.98398 2.00001 6.21117C2.00063 7.14698 2.02163 7.36685 2.17626 8.05492C2.49338 9.46604 2.98863 10.8584 3.7372 12.4433L4.02395 13.0504L3.86826 13.3432C3.75313 13.5597 3.71257 13.7319 3.71257 14.0037C3.71257 14.4489 3.79151 14.649 4.21801 15.2843C5.72776 17.5334 7.64451 19.0064 9.80632 19.5788L10.3063 19.7112L10.3376 20.9747C10.3643 22.0542 10.3843 22.2538 10.4752 22.3445C10.6255 22.4946 10.9411 22.4791 11.1067 22.3136C11.2404 22.1799 11.2438 22.1382 11.2438 20.6487C11.2438 18.8207 11.2937 18.933 10.4001 18.7481C8.95407 18.4488 7.8122 17.8202 6.6067 16.6599C5.5922 15.6835 4.65007 14.4147 4.65007 14.0249C4.65007 13.7734 4.87176 13.5549 5.12676 13.5549C5.3462 13.5549 5.50857 13.712 5.90232 14.3049C6.7822 15.6301 7.9287 16.6928 9.1037 17.2724C9.94932 17.6895 10.7409 17.8717 11.7126 17.8729C12.8088 17.8742 13.5518 17.7014 14.4959 17.2259C15.5215 16.7093 16.7501 15.5567 17.6081 14.3062C18.0759 13.6244 18.2359 13.5002 18.5464 13.5781C18.7689 13.634 18.9286 13.9457 18.85 14.1711C18.7854 14.3564 18.1526 15.2829 17.7555 15.7737C16.936 16.7864 15.9467 17.59 14.822 18.1565C14.2282 18.4557 13.8107 18.5975 13.0876 18.7462C12.6613 18.8337 12.4629 18.9052 12.3844 18.9997C12.2841 19.1204 12.2751 19.3494 12.2751 21.7832C12.2751 23.9608 12.2928 24.5214 12.3743 24.9169C12.8758 27.3532 14.6218 29.2074 17.0244 29.8549C17.8401 30.0748 19.2181 30.0886 20.0251 29.8851C22.1741 29.343 23.8762 27.804 24.5646 25.7805C24.885 24.8385 24.9001 24.6158 24.9001 20.8095V17.2654H25.4001H25.9001V20.8054C25.9001 23.7523 25.8834 24.4441 25.8007 24.9345C25.5798 26.244 24.9718 27.5415 24.1331 28.4924C23.7917 28.8796 23.7402 29.0074 23.8342 29.2342C23.9284 29.4619 24.1901 29.5841 24.4066 29.5018C24.5864 29.4334 25.0044 28.9582 25.4316 28.3362C25.8338 27.7507 26.2941 26.7749 26.4923 26.088C26.8205 24.95 26.8371 24.6923 26.8373 20.707L26.8376 17.0154L27.1657 16.8785C27.9412 16.555 28.7666 15.7414 29.1711 14.902C29.5003 14.2184 29.6104 13.663 29.5728 12.8758C29.5193 11.7587 29.1591 10.944 28.3679 10.1508C27.6492 9.43023 26.851 9.04635 25.8491 8.93929C25.3134 8.88204 25.0503 8.9641 24.9892 9.20723C24.8883 9.60942 25.1658 9.86742 25.6992 9.86742C26.2982 9.86742 27.1652 10.2711 27.6871 10.793C29.4499 12.5559 28.6844 15.4988 26.2793 16.2052C25.7968 16.3469 24.9503 16.3357 24.449 16.1809C23.4115 15.8604 22.5238 14.9181 22.2696 13.8674C22.1571 13.4024 22.1709 12.6007 22.2989 12.1732C22.5279 11.4081 23.0682 10.7298 23.8063 10.2807C24.3081 9.97554 24.4254 9.77961 24.2711 9.50461C24.0087 9.03717 23.3511 9.28092 22.4609 10.1756C21.6121 11.0289 21.252 11.8988 21.2565 13.0862C21.2593 13.8211 21.3776 14.3332 21.6934 14.9777C22.0669 15.7399 22.9189 16.5554 23.6969 16.8954L23.9626 17.0114V20.6608C23.9626 24.7099 23.9521 24.841 23.5571 25.7624C22.8701 27.3647 21.7138 28.4002 20.0436 28.9087C19.5557 29.0572 19.3918 29.076 18.5876 29.076C17.7834 29.076 17.6194 29.0572 17.1315 28.9087C16.2253 28.6327 15.5402 28.2455 14.9079 27.6517C14.2195 27.005 13.7749 26.3072 13.4526 25.3674L13.2489 24.7737L13.2264 22.2355L13.2039 19.6974L13.7306 19.5654C15.0721 19.2289 16.3858 18.4707 17.5627 17.3536C18.1298 16.8154 18.6135 16.2344 19.2407 15.3386C19.8907 14.4102 19.9738 13.9619 19.6159 13.3159L19.4661 13.0455L19.7679 12.4409C20.4053 11.1637 21.0691 9.29498 21.348 7.99242C21.5082 7.24461 21.5733 5.68067 21.4658 5.16348C21.3586 4.64798 21.0223 4.01723 20.6144 3.56642C20.1831 3.08992 19.3214 2.51192 18.5904 2.20892L18.0449 1.98279L17.9375 1.64217C17.7193 0.950104 16.7151 0.137917 15.9324 0.0205417C15.2628 -0.0798333 14.5861 0.301042 14.2226 0.982979C13.7229 1.92048 13.9934 3.1131 14.8149 3.59448C15.5133 4.00379 16.8543 3.7556 17.5394 3.09029L17.76 2.87604L18.3588 3.14573C19.5573 3.68548 20.2371 4.33517 20.4882 5.18048C20.6143 5.60498 20.6197 6.71573 20.4991 7.39867C20.2451 8.83673 19.7456 10.3152 18.9629 11.9455L18.6404 12.6174H18.362C17.7969 12.6174 17.4584 12.8564 16.9458 13.6174C15.7272 15.4262 14.3864 16.476 12.8376 16.8342C12.2421 16.9718 11.1709 16.9569 10.5575 16.8024C9.02613 16.4165 7.79326 15.4269 6.52826 13.5682C6.06157 12.8825 5.78595 12.686 5.2182 12.6345L4.84876 12.601L4.56607 11.9999C3.37851 9.47386 2.82988 7.4366 2.91607 5.87273C2.94457 5.35498 2.98107 5.19023 3.14213 4.85273C3.48282 4.13898 4.16307 3.56335 5.18938 3.12048L5.74382 2.88129L6.01407 3.12992C6.4572 3.53754 7.18895 3.80335 7.86882 3.80354C8.52701 3.80379 9.00926 3.49248 9.35601 2.84342C9.46988 2.63035 9.49351 2.48423 9.49363 1.99242C9.49382 1.4681 9.47332 1.35685 9.31845 1.04154C9.09807 0.592729 8.6717 0.209729 8.25457 0.0858542C7.85101 -0.0339583 7.63163 -0.0295208 7.23838 0.106417ZM8.12057 1.05604C8.38907 1.22198 8.51888 1.42992 8.56532 1.76848C8.62007 2.1681 8.54751 2.45517 8.33388 2.68385C8.1537 2.87679 8.1322 2.8831 7.75776 2.85304C7.00807 2.79285 6.34095 2.36273 6.43188 1.99817C6.54351 1.55067 7.30882 0.955417 7.79895 0.934854C7.86363 0.932167 8.00838 0.986667 8.12057 1.05604ZM16.1951 1.08917C16.5574 1.26967 17.0004 1.71604 17.0623 1.96292C17.1219 2.20017 16.9354 2.42485 16.4951 2.64642C16.2422 2.77373 16.0073 2.83935 15.7445 2.85604C15.3716 2.87979 15.3569 2.87473 15.1653 2.65648C14.8344 2.27954 14.8159 1.74192 15.119 1.30467C15.4019 0.896354 15.6917 0.838292 16.1951 1.08917ZM25.0826 11.244C23.6129 11.4878 23.0415 13.3294 24.1 14.4107C24.5671 14.8879 25.3107 15.071 25.9938 14.8773C26.4081 14.7598 26.8411 14.3824 27.071 13.9382C27.2464 13.5993 27.2751 13.4804 27.2751 13.0907C27.2751 12.7102 27.2444 12.576 27.0839 12.2549C26.8668 11.8204 26.6315 11.5964 26.1813 11.3955C25.8039 11.2272 25.4655 11.1805 25.0826 11.244ZM25.9403 12.3127C26.1858 12.4617 26.3377 12.7732 26.3371 13.1269C26.3359 13.9587 25.2753 14.3425 24.7214 13.7116C24.3629 13.3035 24.4016 12.7092 24.8077 12.3839C25.1659 12.097 25.5456 12.0731 25.9403 12.3127ZM10.6166 23.3019C10.3484 23.4106 10.318 23.5179 10.3539 24.2282C10.5399 27.8977 13.2819 31.0676 16.9098 31.8069C18.1813 32.066 19.4315 32.0343 20.674 31.7115C21.6506 31.4577 22.8864 30.8714 23.3532 30.4403C23.5851 30.226 23.5883 29.9262 23.3604 29.747C23.1356 29.5702 23.0447 29.582 22.6151 29.8437C20.9393 30.8647 19.2824 31.2296 17.5248 30.9646C15.8036 30.7052 14.1828 29.8139 13.0548 28.5069C11.9975 27.2815 11.4123 25.8607 11.2831 24.2058C11.2345 23.5835 11.2178 23.5217 11.0618 23.3875C10.8819 23.2328 10.8176 23.2204 10.6166 23.3019Z" fill="#334B69"/>
</svg>
