<svg width="32" height="32" viewBox="0 0 32 32" fill="none" xmlns="http://www.w3.org/2000/svg">
<path fill-rule="evenodd" clip-rule="evenodd" d="M15.1371 0.0343871C14.4994 0.15995 14.2613 0.219512 13.8558 0.354825C13.2317 0.563137 12.5636 0.903075 12.4832 1.0532C12.3784 1.24914 12.4077 1.42789 12.5717 1.59182C12.7774 1.79751 12.9311 1.78576 13.4812 1.52207C13.7374 1.39932 14.1866 1.2252 14.4795 1.13507C14.9592 0.98745 15.1114 0.971137 16.0121 0.970387C17.0034 0.969637 17.018 0.971637 17.6959 1.20251C18.9132 1.61707 19.6737 2.12401 20.8444 3.30139C21.4564 3.91676 21.655 4.07533 22.0716 4.28108C22.5571 4.52082 22.5837 4.52645 23.2278 4.5232C24.0289 4.51914 24.2978 4.44426 25.5938 3.86414C27.0422 3.21589 27.4484 3.09645 28.1996 3.0982C28.6888 3.09939 28.8998 3.12901 29.1711 3.23464C29.8939 3.5162 30.5142 4.23345 30.8331 5.15658C30.9842 5.59383 31.0046 5.7462 31.0076 6.46401C31.0134 7.8637 30.6233 8.96595 29.7196 10.1027C29.4221 10.477 28.8849 10.9953 28.7946 10.9953C28.7705 10.9953 28.7164 10.9197 28.6744 10.8274C28.6323 10.7351 28.5178 10.5584 28.4199 10.4348L28.242 10.2102L28.608 9.72151C29.8962 8.00145 30.2761 6.56214 29.733 5.45901C29.3338 4.64814 28.7323 4.24695 27.9141 4.24589C27.1583 4.24489 26.6467 4.44339 25.0433 5.35989C23.8167 6.06095 23.5523 6.43489 22.7698 8.57501C22.5489 9.17901 22.2742 9.84964 22.1592 10.0653C21.8701 10.6079 21.4647 10.9957 20.9895 11.1845C20.5358 11.3646 20.2313 11.6381 20.0367 12.0402C19.7327 12.6681 19.713 12.8689 19.6918 15.5578C19.6641 19.0661 19.5654 19.6555 18.8487 20.5948L18.6058 20.9131V22.477C18.6058 23.9645 18.6121 24.049 18.7354 24.2056C18.9047 24.4209 19.1811 24.4256 19.3899 24.2168L19.5433 24.0635V22.6477V21.232L19.7222 21.0043C19.9447 20.7211 20.0847 20.4501 20.2408 20.0007C20.4899 19.2834 20.5596 18.7917 20.5985 17.4762L20.6371 16.1758L22.8996 15.1564L25.1621 14.1369L25.3059 14.29C25.5428 14.5426 26.1781 14.93 26.5203 15.0305C26.9484 15.1564 27.4658 15.156 27.8467 15.0296C28.7346 14.7346 29.3098 13.6368 29.2029 12.4409L29.1617 11.9803L29.7431 11.434C30.8606 10.384 31.5592 9.15883 31.8645 7.71401C31.9867 7.13533 31.9711 5.86989 31.8343 5.27651C31.4904 3.78483 30.5239 2.67151 29.2164 2.26082C28.9854 2.18826 28.6724 2.15851 28.1683 2.16132C27.2691 2.16626 26.8297 2.29032 25.2617 2.98195C24.0515 3.5157 23.7209 3.62026 23.2437 3.62026C22.6278 3.62026 22.3046 3.42532 21.3558 2.48139C20.0229 1.15532 18.7219 0.416012 17.1553 0.0941996C16.7167 0.00413705 15.4772 -0.0326129 15.1371 0.0343871ZM10.4893 2.59576C9.67331 3.41358 9.31594 3.62026 8.71794 3.62026C8.24069 3.62026 7.91012 3.5157 6.69993 2.98195C5.16093 2.30307 4.69093 2.16864 3.82456 2.15907C3.07081 2.15076 2.7185 2.22351 2.16831 2.50107C-0.253691 3.72283 -0.733316 7.44233 1.16956 10.2468C1.47275 10.6937 2.20643 11.4781 2.60681 11.7834L2.921 12.023L2.88175 12.4623C2.78256 13.573 3.26837 14.5799 4.09125 14.9692C4.40481 15.1175 4.49612 15.1318 4.98137 15.1086C5.61143 15.0785 6.01193 14.9142 6.57662 14.4542C6.88481 14.2032 6.94156 14.179 7.0925 14.2338C7.25843 14.2942 11.3058 16.1745 11.3371 16.2057C11.3458 16.2145 11.3962 16.6418 11.4492 17.1553C11.6382 18.9894 11.8912 20.197 12.2342 20.9015L12.4169 21.2765L12.4332 25.6828L12.4496 30.089L12.6487 30.5093C12.8875 31.0135 13.2879 31.4221 13.7797 31.6636L14.1371 31.839H15.9808H17.8246L18.1819 31.6636C18.6737 31.4221 19.0741 31.0135 19.3129 30.5093L19.5121 30.089L19.5312 27.8241L19.5504 25.5592L19.3934 25.4023C19.1945 25.2033 18.956 25.2019 18.7592 25.3987L18.6058 25.5521V27.6375C18.6058 30.0529 18.5927 30.1311 18.1168 30.5697L17.8246 30.839L17.8086 24.7605L17.7927 18.682L17.9749 18.3543C18.2924 17.7834 18.3189 17.5085 18.3231 14.7453C18.3277 11.5826 18.3612 11.3804 19.0322 10.459C19.6052 9.67214 21.4572 5.97983 21.5261 5.48689C21.5506 5.3112 21.5279 5.22983 21.4256 5.12751C21.2654 4.96733 21.0787 4.9617 20.1032 5.08789C17.0817 5.47858 14.8799 5.47858 11.8584 5.08789C11.4645 5.03695 11.0356 4.99526 10.9053 4.99526C10.6209 4.99526 10.4183 5.16951 10.4183 5.41401C10.4183 5.61882 10.9766 6.85245 11.8126 8.49526C12.3804 9.61114 12.6274 10.0328 13.1609 10.7971C13.2648 10.9459 13.3941 11.2198 13.4481 11.4058C13.5644 11.806 13.6644 12.7566 13.6667 13.4838C13.6676 13.7696 13.6981 14.0592 13.7346 14.1274C13.8319 14.3093 14.0921 14.3911 14.2994 14.3052C14.5822 14.1881 14.6295 13.9676 14.5862 12.9673C14.5201 11.4362 14.3261 10.7918 13.6469 9.84826C13.3255 9.40183 11.6089 6.08858 11.6728 6.03808C11.6875 6.02645 12.1496 6.06689 12.6996 6.12795C15.0716 6.39126 16.8901 6.39126 19.2621 6.12795C19.8121 6.06689 20.2736 6.02589 20.2876 6.03689C20.3549 6.08939 18.6369 9.39851 18.2807 9.90251C17.4421 11.089 17.3934 11.3488 17.386 14.6828C17.3797 17.505 17.3622 17.6728 17.037 18.0433L16.8558 18.2496V24.5912V30.9328H15.9808H15.1058V24.5912V18.2496L14.9256 18.0443C14.6621 17.7443 14.6047 17.4612 14.5621 16.2511C14.5289 15.3091 14.5083 15.1478 14.4086 15.048C14.2494 14.8888 13.9067 14.8977 13.7561 15.065C13.6486 15.1844 13.6376 15.2974 13.643 16.2368C13.6498 17.4173 13.7257 17.885 13.9867 18.3543L14.1689 18.682L14.153 24.7605L14.1371 30.839L13.8448 30.5697C13.3352 30.1001 13.3558 30.3201 13.3558 25.332V20.9411L13.1681 20.6391C12.6406 19.7905 12.3643 17.9281 12.2985 14.7765C12.2554 12.7112 12.245 12.5698 12.1126 12.2453C11.913 11.7556 11.5497 11.4084 11.0196 11.2004C10.1928 10.876 9.85662 10.3931 9.19181 8.57501C8.40931 6.43489 8.14487 6.06095 6.91831 5.35989C5.31275 4.4422 4.8045 4.24526 4.04193 4.24526C3.39987 4.24526 2.90187 4.48182 2.54281 4.95745C2.01743 5.6532 1.8755 6.3282 2.07025 7.20376C2.21031 7.83333 2.80206 8.99995 3.34437 9.71583L3.77187 10.2801L3.5795 10.5666C3.47362 10.7241 3.35606 10.9058 3.31812 10.9704C3.25356 11.0805 3.23037 11.0725 2.95231 10.8446C2.34256 10.345 1.65131 9.36808 1.33231 8.5552C1.02037 7.7602 0.954059 7.39401 0.959059 6.49526C0.963121 5.75483 0.983996 5.5917 1.12925 5.16301C1.33893 4.54408 1.61493 4.11301 2.06418 3.70283C2.56768 3.24307 2.96931 3.10008 3.76206 3.0982C4.51318 3.09645 4.91943 3.21589 6.36781 3.86414C7.66387 4.44426 7.93275 4.51914 8.73381 4.5232C9.37656 4.52645 9.40556 4.52039 9.89006 4.28276C10.3018 4.08076 10.4969 3.92714 11.0277 3.38708C11.5747 2.83051 11.6683 2.70557 11.6683 2.53239C11.6683 2.28108 11.4491 2.05776 11.2026 2.05776C11.0641 2.05776 10.9102 2.17389 10.4893 2.59576ZM4.90506 5.3592C5.42206 5.55608 7.04906 6.50089 7.29256 6.74558C7.57356 7.02801 7.80737 7.51845 8.29068 8.83901C8.74075 10.0687 8.88962 10.3992 9.22243 10.9072C9.56981 11.4375 9.83725 11.6651 10.4942 11.9897C10.9897 12.2346 11.0919 12.312 11.1929 12.5188C11.3138 12.7665 11.4136 13.6203 11.3217 13.6203C11.2936 13.6203 10.5077 13.2666 9.57525 12.8343L7.87975 12.0483L7.90575 11.689C7.95462 11.0132 7.69787 10.2359 7.26887 9.76101C7.13925 9.61751 6.88206 9.43995 6.65868 9.3397C6.31018 9.18333 6.22312 9.16951 5.76531 9.19808C5.35868 9.22345 5.17931 9.26945 4.86168 9.42976C4.64375 9.53983 4.44425 9.60658 4.41837 9.5782C4.14325 9.27608 3.54256 8.35889 3.32368 7.90689C2.81268 6.85151 2.78593 6.23001 3.22487 5.60995C3.31406 5.48395 3.44325 5.34551 3.512 5.30233C3.819 5.10951 4.30112 5.1292 4.90506 5.3592ZM28.4501 5.30308C28.5186 5.34583 28.6476 5.48395 28.7367 5.60995C29.1752 6.22939 29.1484 6.82833 28.6339 7.90689C28.4269 8.34089 27.8697 9.19983 27.5672 9.55126C27.5555 9.56489 27.3696 9.49483 27.154 9.39564C26.8146 9.23939 26.6867 9.21514 26.1996 9.21464C25.7241 9.21408 25.5904 9.23789 25.3352 9.3682C24.6029 9.74226 24.1226 10.7036 24.1786 11.6832L24.1996 12.05L22.4323 12.8752C21.4604 13.3291 20.6531 13.6883 20.6383 13.6736C20.5749 13.6102 20.7457 12.7524 20.8729 12.4953C20.9956 12.2473 21.0735 12.1837 21.5303 11.9581C22.5436 11.4578 22.9056 10.9303 23.6709 8.83901C24.1542 7.51845 24.3881 7.02801 24.6691 6.74558C24.9119 6.50158 26.5372 5.55733 27.0566 5.35858C27.6561 5.12908 28.1406 5.10976 28.4501 5.30308ZM6.46393 10.2957C6.77625 10.5181 6.94743 10.9438 6.94637 11.4953C6.94587 11.7531 6.93468 12.0851 6.9215 12.2331C6.90331 12.4376 6.92631 12.5306 7.01731 12.62C7.08318 12.6846 8.07925 13.1744 9.23081 13.7083L11.3246 14.679L11.3439 14.8996C11.3546 15.021 11.3373 15.1203 11.3056 15.1203C11.2737 15.1203 10.2806 14.6705 9.09862 14.1208C7.82175 13.527 6.87268 13.1211 6.76012 13.1208C6.6105 13.1204 6.49218 13.2002 6.19762 13.5003C5.55475 14.1551 4.89975 14.366 4.40537 14.0772C3.29556 13.429 3.83625 10.9918 5.24856 10.2768C5.65562 10.0706 6.15887 10.0785 6.46393 10.2957ZM26.8414 10.281C27.2169 10.4681 27.7339 11.0071 27.9534 11.4403C28.133 11.7947 28.2911 12.4199 28.2924 12.7808C28.2936 13.113 28.1399 13.6226 27.9754 13.8316C27.6726 14.2168 27.0913 14.3091 26.5796 14.0536C26.4214 13.9746 26.1166 13.7323 25.9023 13.5151C25.5947 13.2035 25.4727 13.1203 25.3237 13.1203C25.2139 13.1203 24.2078 13.5385 22.9183 14.1203C21.6991 14.6703 20.6801 15.1203 20.6537 15.1203C20.6274 15.1203 20.6058 15.0395 20.6058 14.9408C20.6058 14.766 20.6627 14.7348 22.7777 13.7487C23.9722 13.1918 25.0002 12.6868 25.062 12.6265C25.1916 12.5001 25.1968 12.4425 25.1361 11.8078C25.0097 10.4864 25.8121 9.76808 26.8414 10.281Z" fill="#334B69"/>
</svg>
