<svg width="29" height="33" viewBox="0 0 29 33" fill="none" xmlns="http://www.w3.org/2000/svg">
<path fill-rule="evenodd" clip-rule="evenodd" d="M0.204729 0.125165C0.129916 0.194853 0.0532915 0.314353 0.0345415 0.39079C0.015729 0.467165 0.00835394 2.19854 0.0181664 4.23835L0.0359165 7.94704L0.183479 8.06648C0.383292 8.22823 0.640417 8.21779 0.806292 8.04129L0.942167 7.8966V4.41629V0.935915H14.0047H27.0672V11.3938V21.8516L27.2118 21.9875C27.4507 22.212 27.7632 22.1591 27.9132 21.8689C27.9924 21.7158 28.0047 20.269 28.0047 11.0599C28.0047 3.09641 27.9864 0.393415 27.932 0.291165C27.892 0.216103 27.8146 0.120415 27.7601 0.0785403C27.6829 0.0192278 24.6402 0.00197781 14.0009 0.000415312C0.363604 -0.00158469 0.340479 -0.00139719 0.204729 0.125165ZM13.6293 1.74067C13.2127 1.87704 12.9132 2.1181 12.6544 2.52548C12.5634 2.66854 12.5307 2.87373 12.5056 3.4606L12.4734 4.21248L12.0984 4.32798C11.8824 4.39454 11.3834 4.46479 10.9212 4.49367C10.0143 4.55035 9.85542 4.62667 9.86604 5.00042C9.87667 5.37442 10.0029 5.43592 10.7603 5.43592C11.3551 5.43592 12.0717 5.33892 12.3953 5.21454C12.4947 5.17635 12.5047 5.2266 12.5047 5.76879C12.5047 6.43785 12.5595 6.36967 11.9109 6.50629C11.3509 6.62429 9.77698 6.60685 9.09842 6.47517C8.10579 6.28248 6.75085 5.80504 6.4641 5.54692C6.10729 5.22567 6.37073 4.56092 6.85492 4.56092C6.90679 4.56092 7.19192 4.66135 7.4886 4.78417C8.13523 5.05185 8.35667 5.07173 8.51492 4.87629C8.64748 4.71254 8.66448 4.44317 8.55154 4.29435C8.46598 4.1816 7.85348 3.8946 7.3246 3.71935C6.45829 3.43235 5.56479 3.95054 5.37848 4.84798C5.20973 5.66073 5.60167 6.24335 6.61173 6.68148C8.50098 7.50085 10.3083 7.72935 12.2703 7.39679L12.5047 7.35704V7.73573V8.11442L12.1453 8.2506C11.4154 8.5271 10.6712 8.64004 9.56717 8.64185C7.7611 8.64491 6.46698 8.36598 3.84842 7.40929C3.32467 7.21792 3.17292 7.18704 2.91185 7.21879C1.6256 7.37504 1.0921 8.89973 2.00973 9.79685C2.50498 10.281 5.44329 11.2353 7.34842 11.5307C8.80198 11.756 10.7244 11.7175 11.992 11.4377L12.5105 11.3232L12.492 11.6727L12.4734 12.0222L12.0359 12.1337C11.7953 12.1951 11.3172 12.2869 10.9734 12.3378C9.02417 12.6264 7.47442 12.4816 5.92529 11.866C5.00742 11.5014 4.4456 11.5444 3.95229 12.0172C3.46885 12.4806 3.33773 13.1765 3.62279 13.7655C3.86885 14.2737 4.32717 14.5522 5.60879 14.972C6.87742 15.3875 7.47035 15.4675 9.25467 15.4639C10.4969 15.4612 10.9794 15.4363 11.4422 15.3507C11.7687 15.2903 12.1414 15.2248 12.2703 15.2052L12.5047 15.1695V15.42C12.5047 15.6597 12.4918 15.6759 12.2078 15.7955C11.7229 15.9997 11.3176 16.1164 10.7547 16.2138C10.359 16.2823 10.1955 16.3401 10.114 16.4403C9.95942 16.6304 9.97829 16.8527 10.1649 17.0394C10.3152 17.1897 10.3504 17.1969 10.7304 17.1562C11.0621 17.1207 11.6775 16.9765 12.3953 16.7659C12.4941 16.7369 12.5047 16.7918 12.5047 17.3322V17.9305L12.0203 18.0828C11.0968 18.3732 10.5257 18.463 9.59842 18.4635C8.84392 18.4639 8.63642 18.4407 8.09179 18.2949C7.74435 18.202 7.2381 18.0321 6.96679 17.9175C6.55223 17.7423 6.45548 17.673 6.36117 17.4835C6.26067 17.2816 6.25823 17.2358 6.33785 17.0452C6.39498 16.9085 6.49854 16.8027 6.62735 16.7494C6.80585 16.6754 6.8911 16.6841 7.40067 16.828C7.71567 16.9169 8.16129 17.0243 8.39098 17.0665C8.7596 17.1344 8.82729 17.1312 8.9681 17.0389C9.34123 16.7944 9.22111 16.3315 8.75323 16.2109C8.59935 16.1712 8.13854 16.0475 7.72929 15.936C7.16929 15.7835 6.91135 15.742 6.68673 15.7687C6.05735 15.8432 5.5816 16.2457 5.40504 16.8532C5.20248 17.5499 5.51867 18.2252 6.22529 18.6054C7.05967 19.0542 8.63717 19.4352 9.66092 19.4352C10.2372 19.4352 11.1724 19.291 11.8719 19.0944C12.1818 19.0072 12.451 18.9359 12.47 18.9359C12.4891 18.9359 12.5047 19.5989 12.5047 20.4092V21.8826L12.1453 21.6776C11.9477 21.5649 11.4765 21.2713 11.0984 21.0252C10.278 20.4914 9.66179 20.1734 9.15717 20.0236C8.66879 19.8786 7.84117 19.8784 7.35354 20.0232C5.77679 20.4914 4.85673 22.3544 5.31579 24.1494C5.47417 24.7685 5.7061 25.1944 6.10061 25.5904C6.53917 26.0307 7.1141 26.3107 8.34842 26.6855C8.93279 26.863 9.52242 27.0692 9.65867 27.1439C9.81042 27.2271 10.0515 27.4729 10.2812 27.7785C11.05 28.8018 11.8836 29.5709 12.6197 29.9359C13.6469 30.4454 14.685 30.3871 15.7234 29.7615C16.1871 29.4822 17.2344 28.4485 17.7314 27.7797C17.9622 27.4691 18.1968 27.2282 18.3507 27.1439C18.4869 27.0692 19.0738 26.8636 19.6548 26.687C21.1842 26.2221 21.7588 25.8959 22.2153 25.233C23.1374 23.8941 22.9631 21.8229 21.8372 20.7399C21.2206 20.1468 20.6324 19.9134 19.7547 19.9134C18.8826 19.9134 18.2236 20.171 16.9109 21.0252C16.5328 21.2713 16.0617 21.5649 15.864 21.6776L15.5047 21.8826V20.4092C15.5047 19.5989 15.5202 18.9359 15.5393 18.9359C15.5584 18.9359 15.8275 19.0072 16.1375 19.0944C17.767 19.5525 19.1608 19.5324 20.7234 19.028C21.9947 18.6176 22.4754 18.2434 22.6324 17.5418C22.7722 16.9171 22.4423 16.2229 21.8657 15.9288C21.44 15.7116 21.103 15.711 20.332 15.9262C19.4165 16.1819 18.9396 16.2528 18.1391 16.2527C17.2627 16.2525 16.5327 16.1104 15.8015 15.7975C15.5203 15.6772 15.5047 15.6578 15.5047 15.4282C15.5047 15.1377 15.4664 15.1419 16.4295 15.3248C17.0632 15.4451 17.3737 15.4639 18.7547 15.4654C20.1739 15.467 20.426 15.4515 21.0568 15.3237C22.2786 15.0761 23.6277 14.5808 24.0467 14.2259C24.508 13.8351 24.6736 13.0009 24.3958 12.4672C23.9575 11.6253 23.1877 11.4185 22.1062 11.852C21.7925 11.9777 21.345 12.1299 21.1117 12.1902C20.6022 12.3217 20.3949 12.4472 20.3425 12.6559C20.2982 12.8327 20.4331 13.0807 20.6314 13.1868C20.7824 13.2677 21.6437 13.0519 22.3769 12.7495C22.6285 12.6458 22.9227 12.5609 23.0306 12.5609C23.4361 12.5609 23.6898 12.9082 23.5636 13.2905C23.4805 13.5424 23.1105 13.7504 22.2086 14.0522C21.0208 14.4498 20.4478 14.5297 18.7859 14.5294C17.3079 14.529 16.9604 14.4974 15.9265 14.2691L15.5047 14.1759V13.5804V12.9849L15.6765 13.0287C16.2715 13.1804 17.1634 13.317 17.9897 13.3831C18.9139 13.457 18.9487 13.4554 19.1147 13.332C19.3484 13.1584 19.3797 12.8266 19.1795 12.6469C19.0573 12.5372 18.8964 12.5075 18.0977 12.4474C17.2748 12.3854 16.3118 12.2333 15.7234 12.0725C15.5469 12.0242 15.5349 12.0008 15.5174 11.6722L15.4988 11.3232L16.0174 11.4377C17.2849 11.7175 19.2074 11.756 20.6609 11.5307C22.566 11.2353 25.5044 10.281 25.9996 9.79685C26.7321 9.08066 26.5707 7.88885 25.6752 7.40148C25.1795 7.13173 24.7896 7.15635 23.8484 7.51698C21.7533 8.31973 20.191 8.64479 18.4422 8.64185C17.3381 8.64004 16.594 8.5271 15.864 8.2506L15.5047 8.11442V7.73573V7.35704L15.739 7.39679C16.8888 7.59167 18.0415 7.59417 19.0672 7.40392C20.2289 7.18848 21.7999 6.59679 22.1805 6.23129C22.9255 5.5161 22.7887 4.35379 21.8979 3.83098C21.4305 3.55667 20.9666 3.58029 20.1447 3.92017C19.3581 4.24548 18.7058 4.41823 17.9934 4.48992C17.3485 4.55479 16.4204 4.48123 15.9039 4.32429L15.5359 4.21248L15.5037 3.4606C15.4696 2.66435 15.4327 2.55273 15.0747 2.16454C14.7441 1.8061 14.0506 1.60273 13.6293 1.74067ZM14.4265 2.8456L14.5672 3.00542V12.5918V22.1782L14.2859 22.2204C14.1312 22.2436 13.8781 22.2436 13.7234 22.2204L13.4422 22.1782V12.6022C13.4422 3.90798 13.4514 3.01304 13.5426 2.88285C13.7521 2.58367 14.1802 2.56567 14.4265 2.8456ZM21.405 4.6321C21.7379 4.78379 21.8174 5.30192 21.5452 5.54692C21.2585 5.80504 19.9035 6.28248 18.9109 6.47517C18.2324 6.60685 16.6585 6.62429 16.0984 6.50629C15.4505 6.36979 15.5047 6.43554 15.5047 5.78554V5.20604L16.0203 5.32448C16.7405 5.48985 18.0122 5.48654 18.8172 5.31717C19.4293 5.18835 20.0081 5.0026 20.6609 4.72542C21.087 4.54448 21.1856 4.5321 21.405 4.6321ZM3.93173 8.43485C4.69698 8.7331 5.59242 9.01029 6.44217 9.21198C8.51454 9.70398 10.5359 9.71791 12.114 9.2511L12.5047 9.13554V9.74723C12.5047 10.33 12.498 10.3604 12.364 10.3922C10.5111 10.8317 8.84223 10.862 6.87967 10.4916C5.46054 10.2239 2.93523 9.39492 2.64035 9.10004C2.36779 8.82748 2.47942 8.33492 2.84842 8.18179C3.01985 8.11067 3.21973 8.15735 3.93173 8.43485ZM25.3703 8.33804C25.5655 8.53004 25.57 8.8896 25.3797 9.09216C25.164 9.32166 23.4305 9.94135 22.0609 10.2785C20.558 10.6485 19.9975 10.7167 18.4734 10.7154C17.115 10.7141 16.8974 10.6917 15.9265 10.453L15.5047 10.3493V9.74242V9.13554L15.8953 9.2511C16.7281 9.49748 17.3802 9.58067 18.4734 9.5801C20.355 9.5791 21.9505 9.23592 24.4734 8.28942C24.9589 8.10729 25.146 8.11748 25.3703 8.33804ZM0.273604 9.19685C0.198042 9.2341 0.106667 9.34954 0.0704791 9.45329C-0.027896 9.73554 -0.0211462 31.5207 0.0773539 31.7057C0.117354 31.7807 0.194729 31.8764 0.249229 31.9183C0.394041 32.0295 27.6153 32.0295 27.7601 31.9183C27.8146 31.8764 27.892 31.7807 27.932 31.7057C28.0293 31.5229 28.036 23.6695 27.939 23.3914C27.8774 23.2143 27.6637 23.0609 27.4789 23.0609C27.4336 23.0609 27.3224 23.1192 27.2319 23.1905L27.0672 23.32V27.1905V31.0609H14.0047H0.942167V20.2269C0.942167 9.98792 0.936167 9.38735 0.832792 9.29423C0.682104 9.15841 0.437792 9.11585 0.273604 9.19685ZM5.51923 12.7124C7.30667 13.5029 9.98467 13.6272 12.3328 13.0287L12.5047 12.9849V13.5804V14.1759L12.0828 14.2691C11.049 14.4974 10.7014 14.529 9.22342 14.5294C7.56154 14.5297 6.98854 14.4498 5.80073 14.0522C4.89885 13.7504 4.52885 13.5424 4.44573 13.2905C4.31948 12.9079 4.57329 12.5609 4.97954 12.5609C5.08792 12.5609 5.33079 12.6291 5.51923 12.7124ZM21.4385 16.7778C21.699 16.9125 21.7853 17.2085 21.6456 17.4889C21.5544 17.672 21.453 17.744 21.0425 17.9175C20.7712 18.0321 20.265 18.202 19.9175 18.2949C19.3729 18.4407 19.1654 18.4639 18.4109 18.4635C17.4836 18.463 16.9125 18.3732 15.989 18.0828L15.5047 17.9305V17.3394C15.5047 17.0144 15.5284 16.7484 15.5574 16.7484C15.5864 16.7484 15.773 16.8045 15.9722 16.873C16.9862 17.2219 18.5418 17.3039 19.6297 17.066C19.9562 16.9945 20.4062 16.8819 20.6297 16.8155C21.1317 16.6664 21.2155 16.6625 21.4385 16.7778ZM8.66329 20.8792C9.15423 20.9699 9.74611 21.2607 10.6922 21.8759C12.2189 22.8689 12.9462 23.1481 14.0047 23.1481C15.0632 23.1481 15.7904 22.8689 17.3172 21.8759C18.2908 21.2428 18.8698 20.963 19.3968 20.8713C20.3101 20.7122 21.1562 21.1203 21.5667 21.9177C22.1382 23.0278 21.8934 24.4994 21.0344 25.1175C20.7101 25.3508 20.1634 25.5712 19.3078 25.8135C17.8441 26.2282 17.6093 26.3765 16.8754 27.3497C16.2705 28.1519 15.547 28.8148 14.9594 29.1052C14.5342 29.3154 14.432 29.3405 14.0047 29.3405C13.5773 29.3405 13.4752 29.3154 13.0499 29.1052C12.4624 28.8148 11.7388 28.1519 11.1339 27.3497C10.4 26.3765 10.1652 26.2282 8.70154 25.8135C7.03298 25.3409 6.47135 24.9227 6.22567 23.9697C5.86323 22.5635 6.5866 21.1095 7.76385 20.8781C8.14967 20.8022 8.24792 20.8024 8.66329 20.8792ZM8.03379 21.707C7.4906 21.9549 7.22173 22.5197 7.26785 23.3162C7.30242 23.9129 7.50267 24.2847 7.95848 24.5979C8.59523 25.0356 9.53698 25.209 9.99385 24.9728C10.3955 24.7651 10.6038 24.309 10.5473 23.7613C10.4236 22.5628 9.64667 21.7023 8.63592 21.6442C8.37029 21.6289 8.15592 21.6513 8.03379 21.707ZM18.9348 21.7064C18.3163 21.9365 17.8564 22.4006 17.6402 23.013C17.3747 23.7652 17.3948 24.3249 17.7012 24.7145C17.9039 24.9721 18.1587 25.0697 18.6245 25.0683C19.3794 25.0659 20.187 24.6532 20.5359 24.0915C20.7102 23.811 20.7234 23.7475 20.7234 23.1909C20.7234 22.465 20.5832 22.1131 20.1834 21.836C19.883 21.6279 19.3067 21.568 18.9348 21.7064ZM8.93873 22.6842C9.34223 22.89 9.51123 23.1863 9.60829 23.8578C9.64161 24.0886 9.63123 24.1243 9.52879 24.13C9.21898 24.1474 9.00898 24.1032 8.70135 23.9558C8.32211 23.774 8.19217 23.5577 8.19217 23.1081C8.19217 22.5918 8.45979 22.4398 8.93873 22.6842ZM19.7199 22.6999C19.8407 22.8724 19.8457 23.3092 19.7299 23.5864C19.5964 23.9057 19.0122 24.1599 18.4805 24.13C18.3781 24.1243 18.3677 24.0886 18.401 23.8578C18.4969 23.1945 18.6652 22.8944 19.0572 22.6873C19.3675 22.5234 19.5994 22.5277 19.7199 22.6999ZM18.4467 28.2881C18.3755 28.3787 18.3172 28.4899 18.3172 28.5352C18.3172 28.72 18.4705 28.9336 18.6476 28.9953C18.9094 29.0865 22.6087 29.0835 22.8717 28.9919C23.2042 28.8759 23.3 28.5128 23.0647 28.2602C22.9384 28.1245 22.9194 28.1234 20.7568 28.1234H18.5762L18.4467 28.2881ZM23.7547 28.2484C23.5955 28.4076 23.5938 28.7125 23.7512 28.8699C23.9101 29.0289 24.2275 29.0841 24.7619 29.0459C25.2753 29.0092 25.4422 28.8955 25.4422 28.5825C25.4422 28.2012 25.2887 28.1234 24.5359 28.1234C23.963 28.1234 23.8638 28.1393 23.7547 28.2484Z" fill="#334B69"/>
</svg>
