<svg width="29" height="32" viewBox="0 0 29 32" fill="none" xmlns="http://www.w3.org/2000/svg">
<path fill-rule="evenodd" clip-rule="evenodd" d="M0.204718 0.125159C0.12991 0.194843 0.0532887 0.314336 0.0345397 0.39077C0.0157282 0.467141 0.0083535 2.19842 0.0181655 4.23813L0.0359146 7.94662L0.183469 8.06605C0.383271 8.2278 0.640383 8.21736 0.806249 8.04087L0.942117 7.89619V4.41606V0.935866H14.0039H27.0657V11.3932V21.8505L27.2104 21.9864C27.4493 22.2108 27.7617 22.1579 27.9118 21.8678C27.9909 21.7147 28.0032 20.268 28.0032 11.0593C28.0032 3.09625 27.9849 0.393395 27.9305 0.29115C27.8905 0.216091 27.8131 0.120409 27.7586 0.0785362C27.6814 0.0192268 24.6389 0.00197771 14.0001 0.000415291C0.363585 -0.0015846 0.340461 -0.00139712 0.204718 0.125159ZM9.55267 1.39928C8.91126 1.58458 8.30317 2.08437 7.89413 2.76252C6.78262 4.60549 7.4184 7.2396 9.18412 8.10668C9.49654 8.26017 9.60454 8.27923 10.1604 8.27923C10.7384 8.27923 10.8159 8.26411 11.1916 8.07818C11.415 7.96756 11.6769 7.81313 11.7735 7.73495L11.9493 7.59283L12.4176 7.84225C12.6752 7.9795 12.9234 8.13393 12.9692 8.18549C13.015 8.23705 13.1253 8.48291 13.2142 8.73183C13.3032 8.98076 13.4321 9.29455 13.5007 9.42911C13.6028 9.6291 13.6325 9.84865 13.6635 10.6327C13.6844 11.16 13.7298 11.6665 13.7644 11.758C13.7989 11.8497 13.9062 11.9573 14.0029 11.9973C14.234 12.0931 14.5466 11.9422 14.6058 11.7064C14.6284 11.6162 14.6276 11.0836 14.6039 10.5229C14.5625 9.54316 14.5527 9.48579 14.352 9.04763C14.237 8.79689 14.0796 8.39241 14.002 8.1488C13.9244 7.90519 13.8269 7.65939 13.7854 7.60264C13.6481 7.41496 12.0496 6.54288 11.8358 6.53907C11.679 6.53632 11.5638 6.60413 11.2973 6.85624C10.885 7.2461 10.5994 7.37322 10.1371 7.37247C9.25599 7.37097 8.50297 6.50995 8.31873 5.29326C8.14555 4.14945 8.61071 2.94876 9.40205 2.49678C9.82378 2.25592 10.1545 2.21049 10.5817 2.33467C11.249 2.52866 11.7569 3.18094 12.0008 4.15732C12.0673 4.42325 12.1481 4.66723 12.1804 4.69954C12.3485 4.86766 14.4935 5.93423 14.6646 5.93492C14.8233 5.93548 14.9204 5.86348 15.2234 5.52044C16.0687 4.56361 16.9533 4.58905 17.7754 5.59381C18.4207 6.38258 18.5664 7.07354 18.2298 7.74801C18.029 8.15036 17.5514 8.65815 17.0663 8.98507C16.8772 9.11244 16.6944 9.25887 16.66 9.31043C16.6211 9.3688 16.5857 10.7639 16.5663 13.0083L16.535 16.6125L15.6695 15.8717C15.1934 15.4642 14.7856 15.1127 14.7633 15.0904C14.7409 15.0681 14.7086 14.656 14.6914 14.1745C14.6619 13.3486 14.6518 13.2923 14.5126 13.1797C14.3091 13.0149 14.0907 13.0302 13.8983 13.2227L13.7359 13.3851L13.7698 14.4117C13.7938 15.139 13.8283 15.4683 13.8882 15.5415C14.0375 15.724 16.7175 18.0092 16.8603 18.0757C17.0457 18.1622 17.3403 18.0378 17.4331 17.834C17.4832 17.7242 17.5037 16.5384 17.5037 13.7553V9.83159L17.7785 9.63428C18.5706 9.06538 19.1748 8.20567 19.3154 7.44702C19.5323 6.27702 18.6129 4.68029 17.39 4.10289C17.0226 3.92952 16.9087 3.90596 16.4413 3.90696C15.9716 3.90796 15.8619 3.93146 15.494 4.10989C15.2651 4.22082 14.9506 4.44062 14.7952 4.5983L14.5126 4.88497L13.7501 4.48843L12.9876 4.09195L12.8192 3.58479C12.6094 2.9532 12.3827 2.56159 11.9799 2.13524C11.3684 1.48802 10.3327 1.17398 9.55267 1.39928ZM0.27359 9.19637C0.198031 9.23362 0.106661 9.34905 0.0704754 9.45279C-0.0278945 9.73503 -0.021145 31.519 0.0773498 31.704C0.117348 31.7791 0.194719 31.8747 0.249216 31.9166C0.394021 32.0278 27.6138 32.0278 27.7586 31.9166C27.8131 31.8747 27.8905 31.7791 27.9305 31.704C28.0278 31.5213 28.0345 23.6682 27.9376 23.3901C27.8759 23.2131 27.6623 23.0597 27.4775 23.0597C27.4322 23.0597 27.321 23.118 27.2304 23.1893L27.0657 23.3188V27.1891V31.0593H14.0039H0.942117V20.2258C0.942117 9.98739 0.936117 9.38686 0.832748 9.29374C0.682068 9.15794 0.437769 9.11537 0.27359 9.19637ZM11.3806 14.9961C11.3128 15.0639 11.2439 15.1834 11.2276 15.2617C11.2112 15.3399 11.0825 17.4982 10.9415 20.058L10.6852 24.7121L10.2241 25.137C9.6491 25.6668 9.23962 26.2036 8.94832 26.8095C8.73315 27.257 8.72302 27.308 8.72415 27.9345C8.72527 28.5235 8.74252 28.6234 8.89264 28.91C9.62997 30.3176 11.1049 30.6903 12.6858 29.8684L13.1489 29.6277L13.6233 29.7631C14.3034 29.9572 15.2074 29.951 15.7224 29.7486C16.6644 29.3784 17.3071 28.1659 17.1168 27.1184C16.9902 26.4218 16.4423 25.6485 15.7803 25.232L15.5256 25.0718L15.45 24.2688C15.3319 23.0139 15.3095 22.8884 15.1782 22.7475C15.0061 22.5628 14.6523 22.5966 14.4915 22.813C14.375 22.9698 14.3752 22.9936 14.5002 24.188C14.5702 24.8564 14.644 25.4623 14.6642 25.5344C14.6845 25.6064 14.8612 25.7674 15.057 25.8922C15.8621 26.4052 16.1886 26.8771 16.1886 27.5282C16.1886 28.3979 15.5829 28.9993 14.7106 28.996C14.435 28.9949 13.7662 28.8485 13.4246 28.7144C13.0797 28.579 12.9909 28.5955 12.5402 28.878C11.4869 29.5385 10.5246 29.5281 9.98271 28.8504C9.68903 28.4831 9.60979 28.2445 9.64054 27.8199C9.68866 27.1539 10.2644 26.2805 11.093 25.6165C11.3143 25.4393 11.5236 25.2203 11.5581 25.13C11.5926 25.0397 11.7253 23.0394 11.853 20.6848C11.9806 18.3303 12.0929 16.3941 12.1026 16.3822C12.1122 16.3704 12.5126 16.7167 12.9922 17.1519C13.7521 17.8414 13.8686 17.9728 13.8983 18.1734C13.9171 18.3001 13.9964 19.0645 14.0745 19.8722C14.204 21.2102 14.2292 21.3532 14.3574 21.4815C14.5474 21.6715 14.8178 21.6641 15.0061 21.4637L15.155 21.3052L14.9777 19.4795C14.8801 18.4753 14.7746 17.6041 14.7431 17.5433C14.7116 17.4826 14.052 16.8568 13.2773 16.1528C11.7719 14.7846 11.6602 14.7165 11.3806 14.9961ZM18.4458 28.2866C18.3745 28.3772 18.3162 28.4884 18.3162 28.5337C18.3162 28.7185 18.4696 28.9321 18.6466 28.9938C18.9084 29.085 22.6075 29.082 22.8705 28.9903C23.203 28.8744 23.2988 28.5113 23.0635 28.2587C22.9372 28.1231 22.9182 28.1219 20.7557 28.1219H18.5753L18.4458 28.2866ZM23.7534 28.2469C23.5942 28.4061 23.5926 28.711 23.7499 28.8684C23.9088 29.0273 24.2262 29.0826 24.7606 29.0444C25.274 29.0076 25.4408 28.894 25.4408 28.581C25.4408 28.1997 25.2873 28.1219 24.5346 28.1219C23.9617 28.1219 23.8625 28.1378 23.7534 28.2469Z" fill="#334B69"/>
</svg>
